<svg width="140" height="140" viewBox="0 0 140 140" fill="none" xmlns="http://www.w3.org/2000/svg">
<circle cx="70" cy="70" r="70" fill="#D9D9D9"/>
<path d="M69.899 26C57.6553 26 47.7015 35.9538 47.7015 48.1975C47.7015 60.2074 57.0945 69.9276 69.3382 70.3482C69.712 70.3014 70.0859 70.3014 70.3663 70.3482H70.6934C76.4384 70.1565 81.8836 67.7381 85.8778 63.6044C89.872 59.4706 92.102 53.9456 92.0964 48.1975C92.0964 35.9538 82.1426 26 69.899 26ZM93.6386 82.7741C80.6005 74.082 59.3376 74.082 46.2061 82.7741C40.2712 86.7462 37 92.1204 37 97.8683C37 103.616 40.2712 108.944 46.1594 112.869C52.7018 117.262 61.3004 119.458 69.899 119.458C78.4976 119.458 87.0961 117.262 93.6386 112.869C99.5267 108.897 102.798 103.57 102.798 97.7749C102.751 92.0269 99.5267 86.6995 93.6386 82.7741Z" fill="white"/>
</svg>
