<svg width="51" height="50" viewBox="0 0 51 50" fill="none" xmlns="http://www.w3.org/2000/svg">
<path d="M43.9402 16.7394C41.6303 6.5758 32.7647 2 24.977 2H24.955C17.1893 2 8.30172 6.5538 5.99182 16.7174C3.41793 28.0689 10.3696 37.6824 16.6614 43.7322C18.8914 45.8907 21.8734 47.0977 24.977 47.098C27.9689 47.098 30.9607 45.9761 33.2706 43.7322C39.5624 37.6824 46.5141 28.0909 43.9402 16.7394ZM24.977 27.7609C24.067 27.7609 23.1659 27.5816 22.3251 27.2334C21.4844 26.8851 20.7204 26.3747 20.077 25.7312C19.4335 25.0877 18.923 24.3238 18.5748 23.4831C18.2265 22.6423 18.0473 21.7412 18.0473 20.8312C18.0473 19.9212 18.2265 19.0201 18.5748 18.1793C18.923 17.3386 19.4335 16.5746 20.077 15.9311C20.7204 15.2877 21.4844 14.7772 22.3251 14.429C23.1659 14.0807 24.067 13.9015 24.977 13.9015C26.8149 13.9015 28.5775 14.6316 29.877 15.9311C31.1766 17.2307 31.9067 18.9933 31.9067 20.8312C31.9067 22.6691 31.1766 24.4316 29.877 25.7312C28.5775 27.0308 26.8149 27.7609 24.977 27.7609Z" fill="#FFFFFF"/>
</svg>
