<svg width="45" height="45" viewBox="0 0 45 45" fill="none" xmlns="http://www.w3.org/2000/svg">
<path d="M37.4435 3.28125H31.931C29.5498 3.28125 28.1248 4.70625 28.1248 7.0875V12.6C28.1248 14.9812 29.5498 16.4062 31.931 16.4062H37.4435C39.8248 16.4062 41.2498 14.9812 41.2498 12.6V7.0875C41.2498 4.70625 39.8248 3.28125 37.4435 3.28125ZM37.856 9.4875C37.631 9.7125 37.331 9.825 37.031 9.825C36.731 9.825 36.431 9.7125 36.206 9.4875L35.8685 9.15V13.35C35.8685 14.0062 35.3435 14.5312 34.6873 14.5312C34.031 14.5312 33.506 14.0062 33.506 13.35V9.15L33.1685 9.4875C32.7185 9.9375 31.9685 9.9375 31.5185 9.4875C31.0685 9.0375 31.0685 8.2875 31.5185 7.8375L33.8623 5.49375C33.956 5.4 34.0873 5.325 34.2185 5.26875C34.256 5.25 34.2935 5.25 34.331 5.23125C34.4248 5.19375 34.5185 5.175 34.631 5.175C34.6685 5.175 34.706 5.175 34.7435 5.175C34.8748 5.175 34.9873 5.19375 35.1185 5.25C35.1373 5.25 35.1373 5.25 35.156 5.25C35.2873 5.30625 35.3998 5.38125 35.4935 5.475C35.5123 5.49375 35.5123 5.49375 35.531 5.49375L37.8748 7.8375C38.3248 8.2875 38.3248 9.0375 37.856 9.4875Z" fill="#27A64A"/>
<path d="M3.75 21.4875V30.8625C3.75 35.1562 7.21875 38.625 11.5125 38.625H33.4688C37.7625 38.625 41.25 35.1375 41.25 30.8438V21.4875C41.25 20.2312 40.2375 19.2188 38.9813 19.2188H6.01875C4.7625 19.2187 3.75 20.2312 3.75 21.4875ZM15 32.3437H11.25C10.4812 32.3437 9.84375 31.7062 9.84375 30.9375C9.84375 30.1687 10.4812 29.5312 11.25 29.5312H15C15.7688 29.5312 16.4062 30.1687 16.4062 30.9375C16.4062 31.7062 15.7688 32.3437 15 32.3437ZM27.1875 32.3437H19.6875C18.9187 32.3437 18.2812 31.7062 18.2812 30.9375C18.2812 30.1687 18.9187 29.5312 19.6875 29.5312H27.1875C27.9562 29.5312 28.5938 30.1687 28.5938 30.9375C28.5938 31.7062 27.9562 32.3437 27.1875 32.3437Z" fill="#292D32"/>
<path d="M25.3125 8.64375V14.1375C25.3125 15.3937 24.3 16.4062 23.0438 16.4062H6.01875C4.74375 16.4062 3.75 15.3562 3.75 14.1C3.76875 11.9812 4.6125 10.05 6.01875 8.64375C7.425 7.2375 9.375 6.375 11.5125 6.375H23.0438C24.3 6.375 25.3125 7.3875 25.3125 8.64375Z" fill="#27A64A"/>
</svg>
