<svg width="61" height="61" viewBox="0 0 61 61" fill="none" xmlns="http://www.w3.org/2000/svg">
<path d="M39.9434 8H21.079C12.8849 8 8 12.8825 8 21.0725V39.905C8 48.1175 12.8849 53 21.079 53H39.9209C48.115 53 52.9999 48.1175 52.9999 39.9275V21.0725C53.0224 12.8825 48.1375 8 39.9434 8ZM38.075 35.675C38.7278 36.3275 38.7278 37.4075 38.075 38.06C37.7373 38.3975 37.3096 38.555 36.8819 38.555C36.4542 38.555 36.0265 38.3975 35.6888 38.06L30.5112 32.885L25.3336 38.06C24.996 38.3975 24.5683 38.555 24.1405 38.555C23.7128 38.555 23.2851 38.3975 22.9474 38.06C22.6335 37.7424 22.4574 37.314 22.4574 36.8675C22.4574 36.421 22.6335 35.9926 22.9474 35.675L28.125 30.5L22.9474 25.325C22.6335 25.0074 22.4574 24.579 22.4574 24.1325C22.4574 23.686 22.6335 23.2576 22.9474 22.94C23.6003 22.2875 24.6808 22.2875 25.3336 22.94L30.5112 28.115L35.6888 22.94C36.3416 22.2875 37.4222 22.2875 38.075 22.94C38.7278 23.5925 38.7278 24.6725 38.075 25.325L32.8974 30.5L38.075 35.675Z" fill="black"/>
</svg>
