<svg width="17" height="22" viewBox="0 0 17 22" fill="none" xmlns="http://www.w3.org/2000/svg">
<path d="M8.49996 16.7083C9.05249 16.7083 9.5824 16.4888 9.9731 16.0981C10.3638 15.7074 10.5833 15.1775 10.5833 14.625C10.5833 13.4687 9.64579 12.5416 8.49996 12.5416C7.94742 12.5416 7.41752 12.7611 7.02682 13.1518C6.63612 13.5425 6.41663 14.0724 6.41663 14.625C6.41663 15.1775 6.63612 15.7074 7.02682 16.0981C7.41752 16.4888 7.94742 16.7083 8.49996 16.7083ZM14.75 7.33329C15.3025 7.33329 15.8324 7.55279 16.2231 7.94349C16.6138 8.33419 16.8333 8.86409 16.8333 9.41663V19.8333C16.8333 20.3858 16.6138 20.9157 16.2231 21.3064C15.8324 21.6971 15.3025 21.9166 14.75 21.9166H2.24996C1.69742 21.9166 1.16752 21.6971 0.77682 21.3064C0.386119 20.9157 0.166626 20.3858 0.166626 19.8333V9.41663C0.166626 8.26038 1.10413 7.33329 2.24996 7.33329H3.29163V5.24996C3.29163 3.86862 3.84036 2.54386 4.81711 1.56711C5.79386 0.590359 7.11862 0.041626 8.49996 0.041626C9.18393 0.041626 9.8612 0.176344 10.4931 0.438087C11.125 0.69983 11.6992 1.08347 12.1828 1.56711C12.6664 2.05075 13.0501 2.62491 13.3118 3.25682C13.5736 3.88872 13.7083 4.56599 13.7083 5.24996V7.33329H14.75ZM8.49996 2.12496C7.67116 2.12496 6.8763 2.4542 6.29025 3.04025C5.7042 3.6263 5.37496 4.42116 5.37496 5.24996V7.33329H11.625V5.24996C11.625 4.42116 11.2957 3.6263 10.7097 3.04025C10.1236 2.4542 9.32876 2.12496 8.49996 2.12496Z" fill="black"/>
</svg>
