<svg width="20" height="20" viewBox="0 0 20 20" fill="none" xmlns="http://www.w3.org/2000/svg">
<path d="M18.9166 13.7083V13.1875C18.9166 11.75 17.75 10.5833 16.3125 10.5833C14.875 10.5833 13.7083 11.75 13.7083 13.1875V13.7083C13.1354 13.7083 12.6666 14.177 12.6666 14.75V18.9166C12.6666 19.4895 13.1354 19.9583 13.7083 19.9583H18.9166C19.4895 19.9583 19.9583 19.4895 19.9583 18.9166V14.75C19.9583 14.177 19.4895 13.7083 18.9166 13.7083ZM17.875 13.7083H14.75V13.1875C14.75 12.3229 15.4479 11.625 16.3125 11.625C17.177 11.625 17.875 12.3229 17.875 13.1875V13.7083ZM4.33329 4.33329C4.33329 2.03121 6.19788 0.166626 8.49996 0.166626C10.802 0.166626 12.6666 2.03121 12.6666 4.33329C12.6666 6.63538 10.802 8.49996 8.49996 8.49996C6.19788 8.49996 4.33329 6.63538 4.33329 4.33329ZM10.5833 16.8333H0.166626V14.75C0.166626 12.4479 3.89579 10.5833 8.49996 10.5833C9.82288 10.5833 11.0625 10.7395 12.177 11.0104C11.9583 11.4375 11.7812 11.8854 11.6979 12.3645C11.0208 12.9375 10.5833 13.7916 10.5833 14.75V16.8333Z" fill="black"/>
</svg>
