<svg width="150" height="150" viewBox="0 0 150 150" fill="none" xmlns="http://www.w3.org/2000/svg">
<path d="M11.6802 136.839C9.55534 133.783 8.75493 130.399 8.76139 126.678C8.81302 96.9463 8.79322 67.2145 8.9515 37.3469C44.3073 37.2107 79.5068 37.2104 114.706 37.2106C116.599 37.2106 116.601 37.2127 116.601 39.1306C116.602 48.3577 116.594 57.5848 116.618 66.8118C116.62 67.3994 116.863 67.9864 116.951 68.6666C114.583 71.4599 112.26 74.1601 109.915 76.718C109.884 68.8154 109.908 61.055 109.85 53.2952C109.816 48.8092 106.486 44.7763 101.347 44.79C77.1387 44.8543 52.9296 44.8558 28.7209 44.7853C24.2238 44.7723 20.2266 48.353 20.2229 53.3185C20.2054 76.6488 20.2103 99.9792 20.2192 123.31C20.2209 128.038 24.0474 131.836 28.7704 131.836C52.9305 131.838 77.0906 131.838 101.251 131.836C106.081 131.836 109.853 128.066 109.86 123.22C109.87 116.533 109.87 109.846 109.849 103.16C109.848 102.655 109.652 102.151 109.595 101.561C111.873 99.1955 114.103 96.916 116.411 94.7283C116.527 95.3028 116.596 95.7854 116.597 96.268C116.603 105.395 116.649 114.522 116.58 123.648C116.549 127.742 115.072 131.339 112.212 134.318C108.733 137.942 104.272 139.127 99.474 139.135C73.4119 139.181 47.3497 139.165 21.2875 139.136C19.7952 139.134 18.2755 138.948 16.8186 138.623C15.1784 138.257 13.595 137.636 11.9869 137.126C11.9869 137.126 12.0089 137.115 11.9717 137.056C11.8497 136.945 11.765 136.892 11.6802 136.839ZM13.4704 68.1591C13.2771 68.6313 12.9175 69.1028 12.9154 69.5758C12.8805 77.3771 12.8978 85.1785 12.883 92.9799C12.8808 94.1588 13.4046 94.6589 14.5714 94.6386C15.6978 94.619 16.1208 94.0604 16.1192 92.9876C16.1079 85.1862 16.1235 77.3848 16.1041 69.5834C16.1003 68.0766 15.1474 67.5072 13.4704 68.1591ZM13.2941 59.5268C13.1857 60.8907 12.9385 62.2662 13.0513 63.6116C13.0862 64.0277 14.1341 64.6931 14.6568 64.6401C15.1779 64.5872 15.841 63.8533 16.0437 63.2778C16.287 62.5871 16.1235 61.7478 16.1109 60.9733C16.0819 59.1936 15.0833 58.5927 13.2941 59.5268Z" fill="#E4E3FF"/>
<path d="M8.83715 29.5834C8.92173 25.7241 8.29431 21.8263 9.5869 18.036C11.5013 12.4224 15.3238 8.94234 21.0994 7.62957C21.9373 7.43911 22.8147 7.33745 23.6738 7.33698C51.3853 7.32206 79.0967 7.31291 106.808 7.34504C109.243 7.34786 111.547 8.05504 113.643 9.65573C113.929 10.274 114.201 10.6796 114.384 11.1216C115.235 13.1693 116.394 15.1626 116.807 17.2983C117.283 19.7515 116.982 22.3442 117.217 24.8577C117.456 27.4012 115.365 29.6175 112.514 29.6142C77.9548 29.574 43.396 29.5854 8.83715 29.5834ZM28.4653 22.4652C28.6312 22.8157 28.7613 23.189 28.9689 23.5127C30.0407 25.1842 31.597 25.9962 33.5547 25.7356C35.4432 25.4842 36.8329 24.361 37.3652 22.5377C37.8795 20.7763 37.6685 19.0517 35.9607 17.6209C34.304 16.2892 32.4868 16.0363 30.66 17.1165C28.7281 18.2591 28.0475 20.0527 28.4653 22.4652ZM23.5713 17.5167C21.8781 16.2237 20.0715 16.0716 18.2854 17.2102C16.4567 18.376 15.7949 20.1156 16.2322 22.4534C17.1859 24.7097 18.7367 25.8268 20.8477 25.7783C22.6891 25.7359 24.4303 24.4929 25.0949 22.7463C25.8045 20.8812 25.335 19.132 23.5713 17.5167ZM48.1849 17.5006C46.2924 16.2204 44.5495 16.128 42.8774 17.2194C41.1637 18.3381 40.4798 20.1192 40.9434 22.5123C41.7671 24.6428 43.3429 25.7951 45.4096 25.7784C47.3282 25.7629 49.0908 24.5121 49.7519 22.6969C50.4453 20.7931 49.9566 19.0429 48.1849 17.5006ZM64.4746 22.4658C65.2705 24.3326 66.8207 24.7074 68.6576 24.7025C78.3683 24.6765 88.0791 24.6932 97.7898 24.6887C100.034 24.6876 102.278 24.6778 104.522 24.6419C106.131 24.6161 107.248 23.7352 107.692 22.2752C108.115 20.8862 108.023 19.462 106.504 18.3217C105.733 18.0711 104.963 17.6049 104.191 17.602C92.0938 17.556 79.9966 17.5552 67.8996 17.5811C65.2669 17.5867 63.7742 19.7 64.4746 22.4658ZM68.7064 12.5901C69.4177 12.977 70.1245 13.6898 70.8411 13.6997C77.1714 13.7876 83.5034 13.7433 89.8349 13.7575C90.9886 13.7601 91.963 13.4741 91.9682 12.1488C91.9732 10.8781 90.9605 10.5901 89.9171 10.5875C83.4882 10.5716 77.0593 10.5732 70.6304 10.5854C69.4631 10.5876 68.6503 11.059 68.7064 12.5901ZM61.8009 10.8675C60.6892 12.0893 60.9192 13.3897 62.3638 13.6655C63.153 13.8163 64.0641 13.8805 64.7915 13.6217C65.3307 13.4298 66.0105 12.6408 65.9908 12.143C65.9702 11.6226 65.2633 10.8351 64.7212 10.6977C63.8792 10.4843 62.9228 10.7225 61.8009 10.8675Z" fill="#AA5922"/>
<path d="M116.994 68.5736C116.864 67.9864 116.62 67.3994 116.618 66.8118C116.594 57.5848 116.602 48.3577 116.601 39.1306C116.601 37.2127 116.6 37.2106 114.706 37.2106C79.5069 37.2104 44.3073 37.2107 8.97366 37.2115C8.82397 35.7425 8.80836 34.2731 8.9458 32.6657C46.4812 32.529 83.8635 32.5303 121.246 32.5316C121.261 42.1674 121.276 51.8032 121.294 61.439C121.295 62.0216 121.327 62.604 121.458 63.3373C121.382 63.8884 121.193 64.2887 120.898 64.6926C119.526 65.9887 118.26 67.2811 116.994 68.5736Z" fill="#D0D0F6"/>
<path d="M12.0229 137.221C13.595 137.636 15.1783 138.257 16.8185 138.623C18.2754 138.948 19.7951 139.134 21.2874 139.136C47.3496 139.165 73.4118 139.181 99.4739 139.135C104.272 139.127 108.733 137.942 112.212 134.318C115.072 131.339 116.549 127.742 116.58 123.648C116.649 114.521 116.603 105.394 116.597 96.2678C116.596 95.7852 116.527 95.3026 116.444 94.6366C118.016 92.6373 119.633 90.8214 121.25 89.0055C121.264 102.323 121.491 115.645 121.203 128.956C121.059 135.598 116.249 141.407 109.058 142.956C108.132 143.156 107.165 143.249 106.217 143.25C78.6047 143.265 50.9925 143.273 23.3803 143.248C20.0852 143.245 17.1665 142.039 14.6694 139.896C13.7433 139.101 12.926 138.179 12.0229 137.221Z" fill="#D0D0F7"/>
<path d="M121.263 32.3949C83.8636 32.5301 46.4812 32.5288 8.96462 32.5307C8.82018 31.6391 8.80996 30.7443 8.81846 29.7164C43.396 29.5854 77.9549 29.574 112.514 29.6141C115.365 29.6174 117.456 27.4012 117.217 24.8576C116.982 22.3442 117.283 19.7515 116.807 17.2983C116.394 15.1625 115.235 13.1693 114.384 11.1216C114.201 10.6795 113.929 10.274 113.691 9.74561C115.751 10.4338 117.087 12.074 118.348 13.7642C120.464 16.6019 121.375 19.8213 121.302 23.359C121.241 26.3243 121.283 29.2918 121.263 32.3949Z" fill="#994F1D"/>
<path d="M124.498 59.7685C125.739 58.3818 126.83 56.8123 128.251 55.6443C131.799 52.7287 136.201 53.1327 139.697 56.4902C139.925 56.7093 140.107 56.9758 140.246 57.4004C140.029 59.6086 139.421 61.4692 138.207 63.1238C136.438 65.5353 133.062 66.6909 130.333 64.2756C129.715 63.7289 129.096 63.1792 128.44 62.6804C127.14 61.6916 125.813 60.7372 124.498 59.7685Z" fill="#FA655A"/>
<path d="M121.306 88.9279C119.633 90.8215 118.016 92.6374 116.365 94.5448C114.103 96.9159 111.873 99.1955 109.506 101.596C109.048 101.924 108.729 102.132 108.335 102.27C107.624 101.62 106.987 101.039 106.363 100.359C106.477 100.098 106.552 99.9101 106.682 99.7775C109.13 97.2902 111.698 94.9106 114.012 92.3049C117.981 87.836 121.801 83.2351 125.663 78.6723C127.261 76.7844 128.806 74.8518 130.466 72.9775C131.389 73.7793 132.221 74.543 133.053 75.3067C129.156 79.8212 125.259 84.3358 121.306 88.9279Z" fill="#F2A819"/>
<path d="M124.411 59.7994C125.813 60.737 127.14 61.6914 128.44 62.6803C129.096 63.1791 129.715 63.7288 130.333 64.2755C133.062 66.6908 136.438 65.5352 138.207 63.1237C139.421 61.469 140.029 59.6085 140.266 57.5028C142.223 60.6734 142.041 63.9081 140.017 66.9616C138.916 68.624 137.483 70.0671 136.034 71.6008C135.027 70.9404 134.187 70.2883 133.294 69.5557C129.965 66.686 126.689 63.8969 123.413 61.1078C123.717 60.682 124.021 60.2562 124.411 59.7994Z" fill="#EF5646"/>
<path d="M123.331 61.1796C126.689 63.8971 129.965 66.6862 133.249 69.6513C132.283 70.7755 131.31 71.7237 130.251 72.6284C127.111 69.9529 124.058 67.321 121.005 64.6891C121.193 64.2887 121.382 63.8884 121.575 63.3915C122.137 62.6136 122.693 61.9324 123.331 61.1796Z" fill="#E1E0FE"/>
<path d="M130.338 72.6717C131.31 71.7235 132.283 70.7753 133.301 69.7316C134.187 70.2882 135.027 70.9403 135.952 71.6451C135.103 72.8739 134.169 74.05 133.144 75.2663C132.221 74.5429 131.388 73.7792 130.459 72.9102C130.361 72.8048 130.338 72.6717 130.338 72.6717Z" fill="#CFCDF6"/>
<path d="M11.7078 136.912C11.765 136.892 11.8498 136.945 11.966 137.067C11.9101 137.086 11.8227 137.036 11.7078 136.912Z" fill="#D0D0F7"/>
<path d="M108.409 102.34C108.728 102.132 109.048 101.924 109.457 101.681C109.652 102.15 109.848 102.655 109.849 103.159C109.87 109.846 109.87 116.533 109.86 123.22C109.853 128.066 106.081 131.836 101.251 131.836C77.0906 131.838 52.9305 131.838 28.7705 131.836C24.0475 131.835 20.221 128.038 20.2192 123.309C20.2104 99.979 20.2054 76.6487 20.2229 53.3183C20.2267 48.3528 24.2238 44.7721 28.721 44.7852C52.9297 44.8556 77.1388 44.8542 101.347 44.7898C106.486 44.7762 109.816 48.8091 109.85 53.295C109.908 61.0548 109.884 68.8152 109.88 76.8072C107.248 80.1089 104.536 83.1036 102.048 86.2748C100.354 88.4342 98.9754 90.8406 97.3827 93.2003C96.6943 94.7768 96.0789 96.2895 95.3292 97.8099C85.1052 97.8233 75.0155 97.829 64.9257 97.8349C64.5358 97.8352 64.0403 97.6876 63.7773 97.8713C63.1702 98.2954 62.3075 98.8274 62.2223 99.4136C62.0951 100.289 62.7339 101.061 63.836 101.072C64.2259 101.075 64.6159 101.075 65.0058 101.075C74.267 101.075 83.5282 101.065 92.7893 101.101C93.3078 101.103 93.8249 101.482 94.3397 101.79C94.2498 102.298 94.1628 102.702 94.0563 103.222C93.777 104.323 93.3985 105.298 93.3004 106.3C93.2368 106.949 93.3787 107.868 93.8027 108.246C94.2295 108.627 95.1768 108.699 95.7938 108.531C96.9055 108.228 97.9409 107.645 99.1126 107.163C102.281 105.544 105.345 103.942 108.409 102.34ZM49.3641 56.9321C48.5679 56.7317 47.7736 56.3675 46.9751 56.3581C42.3031 56.303 37.6291 56.2727 32.9578 56.3517C29.9711 56.4022 28.1188 58.4169 28.1076 61.4198C28.0908 65.9464 28.0697 70.4736 28.1323 74.9994C28.1445 75.8832 28.5297 76.7619 28.7717 77.838C29.6874 79.3379 31.0887 80.1109 32.7806 80.1336C37.5578 80.1976 42.3385 80.2401 47.1139 80.1266C49.8731 80.061 51.8264 77.9771 51.8442 75.3523C51.8766 70.5742 51.8841 65.7955 51.8358 61.0177C51.8186 59.313 51.0909 57.9209 49.3641 56.9321ZM49.3966 92.3493C48.5518 92.144 47.7091 91.7717 46.8618 91.7612C42.2307 91.7037 37.5979 91.6944 32.9667 91.7506C30.0725 91.7858 28.1268 93.7973 28.1104 96.6783C28.0841 101.31 28.0555 105.943 28.1429 110.573C28.161 111.531 28.6822 112.479 29.0408 113.616C29.9714 114.788 31.1561 115.474 32.6793 115.475C37.5611 115.479 42.4438 115.529 47.3243 115.448C49.8803 115.406 51.8168 113.362 51.8385 110.814C51.8792 106.03 51.8791 101.245 51.8346 96.4604C51.8187 94.7559 51.121 93.3494 49.3966 92.3493ZM90.6738 74.1229C94.3339 74.1229 97.994 74.123 101.654 74.1228C103.738 74.1226 104.544 73.6842 104.583 72.5307C104.628 71.2041 103.718 70.622 101.565 70.6216C89.4134 70.6194 77.2619 70.6114 65.1105 70.6431C64.3697 70.645 63.5317 70.8164 62.9237 71.2009C62.5126 71.4608 62.1139 72.3573 62.2685 72.7475C62.4913 73.3095 63.1791 73.741 63.7534 74.0871C64.0406 74.2603 64.5162 74.1226 64.9066 74.1226C73.398 74.1229 81.8894 74.1229 90.6738 74.1229ZM62.9278 62.6415C62.7434 63.3253 62.2293 64.1714 62.4642 64.6487C62.7152 65.1586 63.6721 65.5914 64.3228 65.5941C77.0021 65.6481 89.6817 65.6344 102.361 65.6329C102.653 65.6329 103.051 65.7316 103.218 65.5818C103.721 65.1312 104.52 64.5497 104.482 64.0765C104.436 63.493 103.72 62.9 103.179 62.4476C102.946 62.2522 102.426 62.3915 102.036 62.3915C89.6004 62.3901 77.1646 62.3889 64.7289 62.3955C64.1973 62.3958 63.6658 62.4711 62.9278 62.6415ZM62.1342 107.929C62.3733 109.158 63.1902 109.574 64.3598 109.572C71.2409 109.563 78.1219 109.575 85.0029 109.563C86.5612 109.56 87.377 108.907 87.2979 107.747C87.2002 106.317 86.1602 106.071 85.0085 106.07C78.1275 106.061 71.2464 106.07 64.3654 106.061C63.1978 106.06 62.3773 106.472 62.1342 107.929Z" fill="white"/>
<path d="M97.4556 93.1364C98.9753 90.8405 100.354 88.4342 102.048 86.2748C104.535 83.1036 107.248 80.1088 109.9 76.9495C112.26 74.1599 114.583 71.4597 116.951 68.6664C118.26 67.2809 119.526 65.9884 120.898 64.6924C124.058 67.3208 127.112 69.9527 130.251 72.6282C130.338 72.6717 130.361 72.8048 130.368 72.8721C128.806 74.8516 127.261 76.7843 125.663 78.6721C121.801 83.235 117.981 87.8359 114.012 92.3048C111.698 94.9105 109.13 97.2901 106.682 99.7773C106.551 99.91 106.477 100.098 106.285 100.339C106.054 100.34 105.915 100.263 105.725 100.101C102.935 97.7231 100.195 95.4298 97.4556 93.1364ZM112.331 79.3611C111.525 80.2672 110.727 81.1799 109.911 82.0767C109.423 82.6131 108.909 83.2427 109.748 83.744C110.081 83.9428 110.959 83.7025 111.281 83.3667C113.159 81.4063 114.971 79.3802 116.731 77.3137C116.967 77.0374 116.786 76.407 116.798 75.9406C116.286 75.9754 115.586 75.8096 115.295 76.0814C114.271 77.0368 113.387 78.1427 112.331 79.3611ZM119.101 71.4751C118.804 71.797 118.309 72.0905 118.258 72.4477C118.19 72.9189 118.47 73.4401 118.601 73.9399C119.074 73.7766 119.685 73.7408 119.984 73.4167C120.33 73.0413 120.542 72.4065 120.521 71.8964C120.512 71.6964 119.715 71.529 119.101 71.4751Z" fill="#F2A819"/>
<path d="M13.5665 68.0948C15.1475 67.5071 16.1004 68.0765 16.1042 69.5833C16.1236 77.3846 16.108 85.1861 16.1193 92.9874C16.1208 94.0602 15.6978 94.6188 14.5714 94.6384C13.4047 94.6588 12.8808 94.1587 12.8831 92.9798C12.8978 85.1784 12.8806 77.377 12.9155 69.5757C12.9176 69.1026 13.2772 68.6312 13.5665 68.0948Z" fill="#EFEEFF"/>
<path d="M13.3815 59.4489C15.0834 58.5925 16.082 59.1935 16.1109 60.9731C16.1236 61.7477 16.287 62.587 16.0438 63.2777C15.8411 63.8532 15.178 64.5871 14.6569 64.6399C14.1342 64.693 13.0863 64.0276 13.0514 63.6114C12.9386 62.2661 13.1858 60.8906 13.3815 59.4489Z" fill="#EFEEFF"/>
<path d="M64.4807 22.2573C63.7742 19.7001 65.2669 17.5868 67.8995 17.5812C79.9966 17.5554 92.0938 17.5561 104.191 17.6021C104.963 17.6051 105.733 18.0712 106.571 18.5322C106.655 21.7103 105.51 22.8512 102.507 22.8515C91.0612 22.8526 79.6155 22.8699 68.1701 22.8259C66.9396 22.8211 65.7104 22.4555 64.4807 22.2573Z" fill="white"/>
<path d="M64.4777 22.3615C65.7105 22.4554 66.9396 22.821 68.1701 22.8257C79.6156 22.8698 91.0613 22.8524 102.507 22.8514C105.51 22.8511 106.655 21.7101 106.638 18.6167C108.023 19.4619 108.115 20.8862 107.692 22.2752C107.248 23.7352 106.131 24.6161 104.522 24.6419C102.278 24.6778 100.034 24.6876 97.7898 24.6887C88.0791 24.6931 78.3683 24.6765 68.6576 24.7025C66.8207 24.7074 65.2705 24.3326 64.4777 22.3615Z" fill="#E4E2FE"/>
<path d="M68.6702 12.4846C68.6504 11.0591 69.4631 10.5877 70.6305 10.5855C77.0594 10.5733 83.4883 10.5718 89.9172 10.5876C90.9606 10.5902 91.9733 10.8782 91.9683 12.1489C91.9631 13.4742 90.9887 13.7602 89.835 13.7576C83.5035 13.7434 77.1715 13.7877 70.8412 13.6998C70.1246 13.6899 69.4178 12.9771 68.6702 12.4846Z" fill="#CA9775"/>
<path d="M40.9282 22.2962C40.4798 20.1192 41.1637 18.3381 42.8775 17.2194C44.5495 16.128 46.2924 16.2204 48.2621 17.698C48.3571 20.7964 47.5453 22.1247 45.367 22.9159C43.7591 23.4999 42.339 22.9917 40.9282 22.2962Z" fill="#FEFDFD"/>
<path d="M16.2344 22.254C15.7949 20.1158 16.4568 18.3762 18.2854 17.2104C20.0715 16.0718 21.8781 16.2238 23.6493 17.7109C23.7435 20.7813 23.018 21.957 20.6699 22.9154C19.0539 23.575 17.6472 22.9135 16.2344 22.254Z" fill="#FEFDFD"/>
<path d="M28.4849 22.2589C28.0475 20.0526 28.728 18.259 30.66 17.1165C32.4867 16.0362 34.304 16.2892 36.0076 17.8332C35.9354 18.8004 35.9695 19.623 35.6706 20.2983C34.3999 23.1698 31.8206 23.8411 28.4849 22.2589Z" fill="#FEFDFD"/>
<path d="M16.2332 22.3538C17.6471 22.9135 19.0537 23.575 20.6698 22.9154C23.0179 21.957 23.7433 20.7812 23.728 17.7814C25.3349 19.1321 25.8044 20.8813 25.0947 22.7464C24.4302 24.493 22.689 25.7361 20.8476 25.7784C18.7366 25.827 17.1857 24.7098 16.2332 22.3538Z" fill="#E4E1FA"/>
<path d="M40.9358 22.4044C42.339 22.9919 43.7591 23.5001 45.367 22.9161C47.5453 22.1249 48.3571 20.7966 48.3399 17.7695C49.9566 19.0431 50.4453 20.7933 49.7519 22.6971C49.0908 24.5123 47.3282 25.7631 45.4096 25.7786C43.3429 25.7953 41.7671 24.643 40.9358 22.4044Z" fill="#E4E1F9"/>
<path d="M28.4751 22.3621C31.8205 23.8412 34.3999 23.1698 35.6706 20.2984C35.9694 19.6231 35.9354 18.8004 36.0657 17.9143C37.6685 19.0518 37.8795 20.7763 37.3652 22.5377C36.8328 24.361 35.4431 25.4842 33.5546 25.7356C31.597 25.9962 30.0407 25.1843 28.9689 23.5128C28.7613 23.189 28.6311 22.8157 28.4751 22.3621Z" fill="#E4E2FC"/>
<path d="M61.9079 10.8184C62.9228 10.7226 63.8792 10.4844 64.7211 10.6978C65.2632 10.8352 65.9702 11.6227 65.9908 12.1431C66.0105 12.6409 65.3307 13.4299 64.7915 13.6218C64.0641 13.8806 63.153 13.8163 62.3637 13.6656C60.9192 13.3897 60.6892 12.0894 61.9079 10.8184Z" fill="#CA9674"/>
<path d="M105.775 100.185C105.915 100.263 106.054 100.341 106.272 100.438C106.987 101.039 107.624 101.62 108.335 102.27C105.345 103.942 102.281 105.544 99.0905 107.064C98.5587 106.202 98.1533 105.422 97.8496 104.595C98.3966 104.357 98.8652 104.205 99.2832 103.965C101.454 102.717 103.612 101.447 105.775 100.185Z" fill="#EEB590"/>
<path d="M28.9716 113.432C28.6822 112.479 28.161 111.531 28.1429 110.573C28.0555 105.943 28.0841 101.31 28.1104 96.6783C28.1268 93.7974 30.0725 91.7859 32.9667 91.7507C37.5979 91.6945 42.2307 91.7038 46.8618 91.7613C47.7091 91.7718 48.5518 92.1441 49.4581 92.5623C49.6139 93.4469 49.7862 94.1181 49.7898 94.7902C49.8138 99.3782 49.8428 103.967 49.7875 108.554C49.7527 111.434 47.6975 113.371 44.8189 113.376C40.2308 113.385 35.6427 113.376 31.0546 113.381C30.3603 113.381 29.6659 113.414 28.9716 113.432ZM34.414 104.162C35.1208 105.094 35.7995 106.05 36.5412 106.954C37.6216 108.27 38.6253 108.421 39.9508 107.403C41.7304 106.037 43.4762 104.625 45.1983 103.186C46.4201 102.166 46.5917 101.01 45.7723 100.009C44.9758 99.0359 43.7375 98.9766 42.5273 99.906C41.2914 100.855 40.0873 101.846 38.8351 102.846C37.8472 101.89 37.0548 100.506 35.39 101.345C34.3148 101.886 34.0578 102.826 34.414 104.162Z" fill="#FC665A"/>
<path d="M28.7429 77.643C28.5297 76.7619 28.1446 75.8832 28.1323 74.9994C28.0698 70.4736 28.0908 65.9465 28.1077 61.4199C28.1189 58.4169 29.9712 56.4023 32.9579 56.3517C37.6292 56.2727 42.3032 56.303 46.9752 56.3581C47.7737 56.3675 48.568 56.7318 49.4356 57.1423C49.6048 58.0238 49.7837 58.6945 49.7874 59.3662C49.8125 63.8549 49.8512 68.3445 49.7832 72.8323C49.7333 76.1295 47.803 77.9241 44.5145 77.9304C43.2459 77.9328 41.9768 77.9537 40.7088 77.9269C36.72 77.8423 32.7315 77.739 28.7429 77.643ZM35.3616 65.9453C33.9747 67.109 33.8379 68.024 34.8747 69.4322C35.3946 70.1384 35.9384 70.8286 36.4994 71.5027C37.6442 72.878 38.6319 73.025 40.014 71.9536C41.7472 70.6099 43.4549 69.2319 45.1409 67.8294C46.3953 66.7859 46.5946 65.6946 45.8102 64.6633C45.0116 63.6133 43.7662 63.5571 42.4695 64.5527C41.2457 65.4924 40.0476 66.4655 38.8226 67.4363C37.8536 66.4751 37.1366 65.2377 35.3616 65.9453Z" fill="#F9BA3A"/>
<path d="M90.5273 74.123C81.8894 74.123 73.398 74.1231 64.9065 74.1227C64.5161 74.1227 64.0406 74.2604 63.7533 74.0873C63.179 73.7411 62.4912 73.3096 62.2684 72.7476C62.1138 72.3574 62.5126 71.461 62.9236 71.2011C63.5317 70.8166 64.3696 70.6452 65.1104 70.6433C77.2618 70.6115 89.4134 70.6196 101.565 70.6218C103.718 70.6222 104.627 71.2042 104.583 72.5309C104.544 73.6844 103.738 74.1228 101.654 74.1229C97.9939 74.1232 94.3339 74.123 90.5273 74.123Z" fill="#D2D2F7"/>
<path d="M63.031 62.5764C63.6658 62.4711 64.1973 62.3958 64.7289 62.3955C77.1646 62.3889 89.6003 62.3901 102.036 62.3914C102.426 62.3915 102.946 62.2522 103.179 62.4476C103.72 62.9 104.436 63.493 104.482 64.0765C104.52 64.5497 103.72 65.1312 103.218 65.5818C103.051 65.7315 102.653 65.6328 102.361 65.6329C89.6817 65.6343 77.0021 65.6481 64.3227 65.5941C63.672 65.5913 62.7152 65.1586 62.4642 64.6487C62.2292 64.1713 62.7433 63.3253 63.031 62.5764Z" fill="#D0D0F7"/>
<path d="M94.3426 101.686C93.8249 101.482 93.3078 101.103 92.7893 101.101C83.5282 101.065 74.267 101.075 65.0058 101.075C64.6159 101.075 64.2259 101.076 63.836 101.072C62.7338 101.061 62.0951 100.289 62.2223 99.4137C62.3075 98.8275 63.1702 98.2955 63.7773 97.8714C64.0403 97.6877 64.5358 97.8353 64.9257 97.835C75.0154 97.8291 85.1052 97.8234 95.3072 97.9225C95.0605 99.2468 94.7016 100.466 94.3426 101.686Z" fill="#D0D0F7"/>
<path d="M28.7573 77.7406C32.7315 77.7391 36.72 77.8424 40.7088 77.927C41.9768 77.9538 43.2459 77.9329 44.5145 77.9304C47.803 77.9242 49.7333 76.1296 49.7832 72.8324C49.8512 68.3446 49.8125 63.855 49.7874 59.3663C49.7837 58.6946 49.6048 58.0239 49.5049 57.2245C51.091 57.9211 51.8186 59.3131 51.8359 61.0178C51.8841 65.7956 51.8766 70.5744 51.8442 75.3524C51.8264 77.9772 49.8732 80.0612 47.1139 80.1267C42.3385 80.2403 37.5579 80.1977 32.7806 80.1337C31.0887 80.1111 29.6874 79.3381 28.7573 77.7406Z" fill="#E7A627"/>
<path d="M29.0062 113.524C29.666 113.414 30.3603 113.382 31.0547 113.381C35.6428 113.376 40.2309 113.385 44.819 113.376C47.6976 113.371 49.7528 111.434 49.7875 108.554C49.8429 103.967 49.8138 99.3782 49.7898 94.7902C49.7863 94.1181 49.6139 93.4469 49.5246 92.6456C51.121 93.3495 51.8187 94.756 51.8346 96.4605C51.8792 101.245 51.8792 106.03 51.8385 110.814C51.8169 113.362 49.8803 115.406 47.3243 115.449C42.4438 115.529 37.5611 115.479 32.6794 115.475C31.1562 115.474 29.9715 114.789 29.0062 113.524Z" fill="#F05645"/>
<path d="M62.1343 107.815C62.3773 106.472 63.1977 106.06 64.3653 106.061C71.2463 106.07 78.1274 106.061 85.0084 106.07C86.1601 106.072 87.2002 106.317 87.2978 107.747C87.3769 108.907 86.5612 109.56 85.0029 109.563C78.1218 109.575 71.2408 109.563 64.3597 109.573C63.1901 109.574 62.3732 109.158 62.1343 107.815Z" fill="#D2D2F7"/>
<path d="M94.3398 101.79C94.7017 100.466 95.0606 99.2469 95.4415 97.9149C96.0789 96.2896 96.6944 94.7769 97.3828 93.2004C100.195 95.43 102.935 97.7233 105.725 100.101C103.612 101.447 101.454 102.717 99.2833 103.965C98.8653 104.205 98.3967 104.357 97.7652 104.549C96.4113 104.068 95.2436 103.587 94.0759 103.106C94.1629 102.702 94.2499 102.298 94.3398 101.79Z" fill="#F5C8AA"/>
<path d="M94.0563 103.222C95.2436 103.587 96.4112 104.068 97.6634 104.595C98.1534 105.422 98.5588 106.202 98.9862 107.081C97.941 107.645 96.9055 108.228 95.7938 108.531C95.1768 108.699 94.2295 108.627 93.8027 108.246C93.3787 107.868 93.2368 106.95 93.3004 106.3C93.3985 105.298 93.7771 104.324 94.0563 103.222Z" fill="#4D4B4A"/>
<path d="M112.39 79.2763C113.387 78.1427 114.271 77.0368 115.295 76.0814C115.586 75.8096 116.286 75.9754 116.798 75.9406C116.786 76.407 116.967 77.0374 116.731 77.3137C114.971 79.3802 113.159 81.4063 111.281 83.3666C110.96 83.7025 110.081 83.9428 109.748 83.7439C108.909 83.2427 109.423 82.6131 109.911 82.0767C110.727 81.1799 111.525 80.2672 112.39 79.2763Z" fill="white"/>
<path d="M119.189 71.4111C119.715 71.5292 120.512 71.6966 120.521 71.8966C120.542 72.4067 120.33 73.0415 119.984 73.4169C119.686 73.741 119.074 73.7768 118.601 73.9401C118.47 73.4403 118.19 72.9191 118.258 72.4479C118.309 72.0907 118.804 71.7972 119.189 71.4111Z" fill="white"/>
<path d="M34.3678 104.056C34.0577 102.826 34.3147 101.886 35.3899 101.345C37.0548 100.506 37.8471 101.89 38.835 102.846C40.0872 101.846 41.2913 100.855 42.5273 99.9061C43.7374 98.9767 44.9757 99.0361 45.7722 100.009C46.5916 101.011 46.42 102.166 45.1982 103.186C43.4761 104.625 41.7303 106.037 39.9507 107.404C38.6252 108.421 37.6215 108.27 36.5411 106.954C35.7994 106.05 35.1207 105.094 34.3678 104.056Z" fill="#FFFCFC"/>
<path d="M35.4663 65.904C37.1366 65.2377 37.8536 66.4751 38.8227 67.4363C40.0476 66.4655 41.2457 65.4923 42.4695 64.5527C43.7662 63.5571 45.0116 63.6133 45.8102 64.6633C46.5946 65.6945 46.3954 66.7859 45.1409 67.8294C43.4549 69.2319 41.7472 70.6099 40.014 71.9535C38.632 73.025 37.6443 72.878 36.4995 71.5026C35.9384 70.8286 35.3946 70.1384 34.8747 69.4322C33.8379 68.024 33.9747 67.109 35.4663 65.904Z" fill="#FFFEFB"/>
</svg>
