<svg xmlns="http://www.w3.org/2000/svg" version="1.1" xmlns:xlink="http://www.w3.org/1999/xlink" width="512" height="512" x="0" y="0" viewBox="0 0 512 512" style="enable-background:new 0 0 512 512" xml:space="preserve" class=""><g><path d="M43.33 102.56h425.34v364.05H43.33z" style="" fill="#e9eaeb" data-original="#e9eaeb"></path><path d="M414.67 102.56h54v364.05h-54z" style="" fill="#b9bbc1" data-original="#b9bbc1"></path><path d="M470.153 102.558H41.847V42.796a8.644 8.644 0 0 1 8.645-8.645h411.016a8.644 8.644 0 0 1 8.645 8.645v59.762z" style="" fill="#fdc74f" data-original="#fdc74f"></path><path d="M461.508 34.151h-45.355V79.14h54V42.796a8.645 8.645 0 0 0-8.645-8.645z" style="" fill="#fca629" data-original="#fca629"></path><path d="M43.332 210.929c-19.576 0-35.445-15.869-35.445-35.445v-28.877h70.889v28.877c0 19.576-15.869 35.445-35.444 35.445z" style="" fill="#e60d28" data-original="#e60d28" class=""></path><path d="M114.221 210.929c-19.576 0-35.445-15.869-35.445-35.445v-28.877h70.889v28.877c.001 19.576-15.868 35.445-35.444 35.445z" style="" fill="#f2f2f2" data-original="#f2f2f2" class=""></path><path d="M185.111 210.929c-19.576 0-35.445-15.869-35.445-35.445v-28.877h70.889v28.877c0 19.576-15.869 35.445-35.444 35.445z" style="" fill="#e60d28" data-original="#e60d28" class=""></path><path d="M256 210.929c-19.576 0-35.445-15.869-35.445-35.445v-28.877h70.889v28.877c.001 19.576-15.868 35.445-35.444 35.445z" style="" fill="#f2f2f2" data-original="#f2f2f2" class=""></path><path d="M326.89 210.929c-19.576 0-35.445-15.869-35.445-35.445v-28.877h70.889v28.877c0 19.576-15.869 35.445-35.444 35.445z" style="" fill="#e60d28" data-original="#e60d28" class=""></path><path d="M397.779 210.929c-19.576 0-35.445-15.869-35.445-35.445v-28.877h70.889v28.877c.001 19.576-15.868 35.445-35.444 35.445z" style="" fill="#f2f2f2" data-original="#f2f2f2" class=""></path><path d="M468.668 210.929c-19.576 0-35.445-15.869-35.445-35.445v-28.877h70.889v28.877c.001 19.576-15.868 35.445-35.444 35.445z" style="" fill="#e60d28" data-original="#e60d28" class=""></path><path d="M78.776 146.608H7.887L41.811 79.14h61.197z" style="" fill="#fc502a" data-original="#fc502a" class=""></path><path d="M149.666 146.608h-70.89l24.232-67.468h61.197z" style="" fill="#ffffff" data-original="#ffffff" class=""></path><path d="M220.555 146.608h-70.889l14.539-67.468h61.197z" style="" fill="#fc502a" data-original="#fc502a" class=""></path><path d="M291.445 146.608h-70.89l4.847-67.468h61.196z" style="" fill="#ffffff" data-original="#ffffff" class=""></path><path d="M362.334 146.608h-70.889l-4.847-67.468h61.197z" style="" fill="#fc502a" data-original="#fc502a" class=""></path><path d="M433.224 146.608h-70.89L347.795 79.14h61.197z" style="" fill="#ffffff" data-original="#ffffff" class=""></path><path d="M504.113 146.608h-70.889L408.992 79.14h61.197z" style="" fill="#fc502a" data-original="#fc502a" class=""></path><path d="M488.311 433.349H23.688c-8.941 0-16.188 7.248-16.188 16.189v23.723a4.59 4.59 0 0 0 4.589 4.589h487.822a4.59 4.59 0 0 0 4.589-4.589v-23.723c0-8.941-7.248-16.189-16.189-16.189z" style="" fill="#8b8996" data-original="#8b8996"></path><path d="M488.312 433.349h-37.978v44.5h49.578a4.589 4.589 0 0 0 4.589-4.589v-23.723c-.001-8.94-7.249-16.188-16.189-16.188z" style="" fill="#706f7f" data-original="#706f7f"></path><path d="M426.774 385.77H208.45a6.45 6.45 0 0 1-6.45-6.45V259.185a6.45 6.45 0 0 1 6.45-6.45h218.324a6.45 6.45 0 0 1 6.45 6.45V379.32a6.45 6.45 0 0 1-6.45 6.45z" style="" fill="#00c6c8" data-original="#00c6c8"></path><path d="M426.774 252.735h-47.717V385.77h47.717a6.45 6.45 0 0 0 6.45-6.45V259.185a6.45 6.45 0 0 0-6.45-6.45z" style="" fill="#0fb0c0" data-original="#0fb0c0"></path><path d="M171.336 433.349H71.727V259.185a6.45 6.45 0 0 1 6.45-6.45h86.709a6.45 6.45 0 0 1 6.45 6.45v174.164z" style="" fill="#00c6c8" data-original="#00c6c8"></path><path d="M164.886 252.735h-47.717V433.35h54.167V259.185a6.45 6.45 0 0 0-6.45-6.45z" style="" fill="#0fb0c0" data-original="#0fb0c0"></path><path d="M143.5 354.755a7.5 7.5 0 0 0 7.5-7.5v-13.5a7.5 7.5 0 0 0-15 0v13.5a7.5 7.5 0 0 0 7.5 7.5z" fill="#000000" opacity="1" data-original="#000000" class=""></path><path d="M488.312 425.849h-12.143V217.76c20.115-3.56 35.445-21.155 35.445-42.276v-28.876c0-.147-.014-.291-.022-.436-.005-.081-.005-.162-.012-.243a7.517 7.517 0 0 0-.128-.871c-.003-.017-.009-.033-.013-.049a7.389 7.389 0 0 0-.224-.8c-.022-.066-.048-.132-.072-.197a7.436 7.436 0 0 0-.278-.655c-.019-.039-.031-.08-.05-.118L477.653 77.29V42.796c0-8.902-7.243-16.145-16.145-16.145H120.456a7.5 7.5 0 0 0 0 15h341.052c.631 0 1.145.514 1.145 1.145V71.64H49.347V42.796c0-.631.514-1.145 1.145-1.145H85.56a7.5 7.5 0 0 0 0-15H50.492c-8.902 0-16.145 7.243-16.145 16.145V77.29L1.186 143.239c-.019.039-.032.08-.05.118a7.436 7.436 0 0 0-.278.655c-.024.066-.05.131-.072.197a7.389 7.389 0 0 0-.224.8l-.013.049c-.06.285-.102.575-.128.871-.007.081-.007.162-.012.243-.008.145-.022.289-.022.436v28.876c0 21.12 15.33 38.716 35.445 42.276v208.089H23.688C10.626 425.849 0 436.476 0 449.538v23.722c0 6.666 5.423 12.089 12.089 12.089h487.822c6.666 0 12.089-5.423 12.089-12.089v-23.722c0-13.062-10.626-23.689-23.688-23.689zm8.301-250.364c0 15.409-12.536 27.945-27.945 27.945s-27.945-12.536-27.945-27.945v-21.376h55.89v21.376zM465.565 86.64l26.382 52.468h-53.448L419.655 86.64h45.91zm-61.849 0 18.844 52.468h-54.17L357.083 86.64h46.633zm22.008 67.468v21.376c0 15.409-12.536 27.945-27.945 27.945s-27.945-12.536-27.945-27.945v-21.376h55.89zM341.739 86.64l11.307 52.468h-54.62l-3.769-52.468h47.082zm13.095 67.468v21.376c0 15.409-12.536 27.945-27.944 27.945s-27.945-12.536-27.945-27.945v-21.376h55.889zM232.382 86.64h47.235l3.769 52.468h-54.773l3.769-52.468zm-4.327 67.468h55.89v21.376c0 15.409-12.536 27.945-27.945 27.945s-27.945-12.536-27.945-27.945v-21.376zM256 218.429c14.704 0 27.701-7.431 35.445-18.732 7.744 11.301 20.741 18.732 35.445 18.732s27.701-7.431 35.444-18.732c7.744 11.301 20.741 18.732 35.445 18.732s27.701-7.431 35.445-18.732c6.396 9.334 16.379 16.016 27.945 18.063v208.089H178.836V259.185c0-7.692-6.258-13.95-13.95-13.95H78.177c-7.692 0-13.95 6.258-13.95 13.95v166.664H50.832V217.76c11.566-2.047 21.549-8.729 27.945-18.063 7.744 11.301 20.741 18.732 35.445 18.732s27.701-7.431 35.445-18.732c7.744 11.301 20.741 18.732 35.444 18.732s27.701-7.431 35.445-18.732c7.743 11.301 20.74 18.732 35.444 18.732zm-92.164 41.806v165.614H79.227V260.235h84.609zm-77.56-84.75v-21.376h55.89v21.376c0 15.409-12.536 27.945-27.945 27.945s-27.945-12.537-27.945-27.945zm83.985-88.845h47.082l-3.769 52.468h-54.62l11.307-52.468zm-13.095 67.468h55.889v21.376c0 15.409-12.536 27.945-27.945 27.945s-27.944-12.536-27.944-27.945v-21.376zm-2.25-67.468-11.307 52.468h-54.17l18.844-52.468h46.633zm-108.481 0h45.91l-18.844 52.468H20.053L46.435 86.64zm-31.048 88.845v-21.376h55.89v21.376c0 15.409-12.536 27.945-27.945 27.945s-27.945-12.537-27.945-27.945zM497 470.349H15v-20.812c0-4.791 3.897-8.688 8.688-8.688h464.623c4.791 0 8.688 3.897 8.688 8.688v20.812H497z" fill="#000000" opacity="1" data-original="#000000" class=""></path><path d="M194.5 259.185v120.136c0 7.692 6.258 13.95 13.95 13.95h218.323c7.692 0 13.95-6.258 13.95-13.95V259.185c0-7.692-6.258-13.95-13.95-13.95H335.06a7.5 7.5 0 0 0 0 15h90.664V378.27H209.5V260.235h90.25a7.5 7.5 0 0 0 0-15h-91.3c-7.692 0-13.95 6.257-13.95 13.95z" fill="#000000" opacity="1" data-original="#000000" class=""></path></g></svg>