<svg xmlns="http://www.w3.org/2000/svg" version="1.1" xmlns:xlink="http://www.w3.org/1999/xlink" width="512" height="512" x="0" y="0" viewBox="0 0 512 512" style="enable-background:new 0 0 512 512" xml:space="preserve" class=""><g><path fill="#5ca196" d="M76.049 81.426h-64.53v64.53c0 36.917 30.034 66.951 66.951 66.951H143v-64.53c0-36.917-30.034-66.951-66.951-66.951z" opacity="1" data-original="#5ca196"></path><path fill="#7bc5b0" d="m171.834 49.426-10.001 61.482 10.001 68.137c29.396-7.063 51.314-33.557 51.314-65.089v-64.53z" opacity="1" data-original="#7bc5b0" class=""></path><path fill="#9edba7" d="M158.618 49.426c-36.917 0-66.951 30.034-66.951 66.951v64.53h64.53c5.385 0 10.617-.656 15.637-1.863V49.426z" opacity="1" data-original="#9edba7"></path><circle cx="340.167" cy="235.074" r="171.834" fill="#fdd278" transform="rotate(-45 340.15 235.154)" opacity="1" data-original="#fdd278" class=""></circle><g fill="#c27e4e"><path d="m252.754 261.966 106.65-106.65 21.21 21.21-106.65 106.65zM284.746 325.963 423.39 187.317l21.21 21.21-138.645 138.646z" fill="#c27e4e" opacity="1" data-original="#c27e4e" class=""></path></g><path fill="#ffdc9e" d="m171.834 118.907-10.001 175 10.001 168.667c94.75 0 171.834-77.084 171.834-171.834 0-94.749-77.084-171.833-171.834-171.833z" opacity="1" data-original="#ffdc9e" class=""></path><path fill="#ffe8bf" d="M0 290.741c0 94.75 77.084 171.834 171.834 171.834V118.907C77.084 118.907 0 195.991 0 290.741z" opacity="1" data-original="#ffe8bf" class=""></path><path fill="#7bc5b0" d="M442.642 352.185c-31.63 0-57.363 25.733-57.363 57.364l29.204 53.026h23.821c31.63 0 57.364-25.733 57.364-57.364v-53.026z" opacity="1" data-original="#7bc5b0" class=""></path><path fill="#9edba7" d="M347.531 331.093h-64.53v64.53c0 36.917 30.034 66.951 66.952 66.951h64.53v-64.53c0-36.917-30.034-66.951-66.952-66.951z" opacity="1" data-original="#9edba7"></path><path fill="#ffb973" d="m107.844 365.444 22.388-22.389 21.21 21.21-22.388 22.389z" opacity="1" data-original="#ffb973" class=""></path><path fill="#e3a76f" d="m203.773 216.014-21.212-21.213-10.727 10.727v42.425zM267.773 248.014l-21.212-21.213-74.727 74.727-3.501 24.296 3.501 18.13z" opacity="1" data-original="#e3a76f"></path><g fill="#ffb973"><path d="m97.107 322.681 74.727-74.728v-42.425l-95.939 95.94zM150.681 322.681l21.153 21.273v-42.426z" fill="#ffb973" opacity="1" data-original="#ffb973" class=""></path></g></g></svg>