<svg xmlns="http://www.w3.org/2000/svg" version="1.1" xmlns:xlink="http://www.w3.org/1999/xlink" width="512" height="512" x="0" y="0" viewBox="0 0 497 497" style="enable-background:new 0 0 512 512" xml:space="preserve" class=""><g><path fill="#e5e3e5" d="M125.5 395.037h131c52.659 0 95.5-42.852 95.5-95.524s-42.841-95.524-95.5-95.524h-57c-36.117 0-65.5-29.39-65.5-65.516s29.383-65.516 65.5-65.516H355l9.5-30.008h-165c-52.659 0-95.5 42.852-95.5 95.524s42.841 95.524 95.5 95.524h57c36.117 0 65.5 29.39 65.5 65.516s-29.383 65.516-65.5 65.516h-119z" opacity="1" data-original="#e5e3e5" class=""></path><path fill="#94f283" d="M473.088 208.865c0 1.487-.201 2.949-.588 4.378 0 0-5.378 6.682-9.32 10.102-9.81 8.511-25.745 12.553-45.681 12.553-30.701 0-52.426-10.46-52.426-27.033 0-8.37 4.34-13.223 13.425-21.383 10.034-5.334 23.805-8.625 39-8.625 30.703 0 55.59 13.435 55.59 30.008z" opacity="1" data-original="#94f283"></path><path fill="#79e87c" d="M472.5 213.243c-3.93 14.5-27.061 25.63-55 25.63-30.7 0-55.59-13.43-55.59-30.01 0-8.37 6.35-15.94 16.59-21.38-.39 1.43-.59 2.89-.59 4.38 0 16.58 24.89 30.01 55.59 30.01 15.19 0 28.97-3.29 39-8.63z" opacity="1" data-original="#79e87c"></path><path fill="#ffe177" d="M497 79.712c0 54.678-36.764 94.947-60.291 115.119 0 0-13.496 7.104-16.651 9.236a4.009 4.009 0 0 1-4.495 0c-12.929-8.739-71.766-51.931-71.766-124.255 0-28.452 10.078-52.491 32.596-66.511 5.27-3.281 16.06-8.969 16.06-8.969A79.5 79.5 0 0 1 417.499.311C461.407.313 497 35.861 497 79.712z" opacity="1" data-original="#ffe177"></path><path fill="#ffd15b" d="M436.71 194.833c-7.59 6.51-13.8 10.93-16.96 13.06-1.36.92-3.14.92-4.5 0-12.93-8.74-77.25-55.86-77.25-128.18 0-35.21 22.948-65.08 54.728-75.47C373.458 18.713 361 41.763 361 67.713c0 69.79 59.9 116.12 75.71 127.12z" opacity="1" data-original="#ffd15b"></path><ellipse cx="417.5" cy="78.332" fill="#f3f0f3" rx="37" ry="37.009" opacity="1" data-original="#f3f0f3" class=""></ellipse><path fill="#94f283" d="M135.088 466.68c0 1.487-.201 2.949-.588 4.378 0 0-5.378 6.682-9.32 10.102-9.81 8.511-25.745 12.553-45.681 12.553-30.701 0-52.426-10.46-52.426-27.033 0-8.37 4.34-13.223 13.425-21.383 10.034-5.334 23.805-8.625 39-8.625 30.703 0 55.59 13.435 55.59 30.008z" opacity="1" data-original="#94f283"></path><path fill="#79e87c" d="M134.5 471.057c-3.93 14.5-27.061 25.63-55 25.63-30.7 0-55.59-13.43-55.59-30.01 0-8.37 6.35-15.94 16.59-21.38-.39 1.43-.59 2.89-.59 4.38 0 16.58 24.89 30.01 55.59 30.01 15.19 0 28.97-3.29 39-8.63z" opacity="1" data-original="#79e87c"></path><path fill="#ff7b7b" d="M159 337.527c0 54.678-36.764 94.947-60.291 115.119 0 0-13.496 7.104-16.651 9.236a4.009 4.009 0 0 1-4.495 0c-12.929-8.739-71.766-51.931-71.766-124.255 0-28.452 10.078-52.491 32.596-66.511 5.27-3.281 16.06-8.969 16.06-8.969a79.496 79.496 0 0 1 25.046-4.021c43.908.001 79.501 35.55 79.501 79.401z" opacity="1" data-original="#ff7b7b" class=""></path><path fill="#f96e6e" d="M98.71 452.647c-7.59 6.51-13.8 10.93-16.96 13.06-1.36.92-3.14.92-4.5 0C64.32 456.967 0 409.847 0 337.527c0-35.21 22.948-65.08 54.728-75.47C35.458 276.528 23 299.577 23 325.527c0 69.79 59.9 116.12 75.71 127.12z" opacity="1" data-original="#f96e6e"></path><ellipse cx="79.5" cy="336.147" fill="#f3f0f3" rx="37" ry="37.009" opacity="1" data-original="#f3f0f3" class=""></ellipse><path fill="#60b7ff" d="M289.5 218.993c0-35.908-29.102-65.016-65-65.016-13.844 0-26.677 4.329-37.219 11.707 0 0-9.203 9.562-13.398 15.236-7.984 10.799-10.766 23.612-10.766 38.073 0 35.908 25.484 60.65 61.383 60.65 15.181 0 28.533-2.297 39.596-11.021 5.922-4.67 15.626-15.317 15.626-15.317 6.198-9.96 9.778-21.718 9.778-34.312z" opacity="1" data-original="#60b7ff" class=""></path><path fill="#26a6fe" d="M279.72 253.303c-11.47 18.44-31.91 30.71-55.22 30.71-35.9 0-65-29.11-65-65.02 0-22.06 10.98-41.56 27.78-53.31-6.2 9.96-9.78 21.71-9.78 34.31 0 35.91 29.1 65.02 65 65.02 13.85 0 26.68-4.33 37.22-11.71z" opacity="1" data-original="#26a6fe" class=""></path><path fill="#f3f0f3" d="m244.741 248.457-52.262-27.697c-1.418-.751-1.418-2.783 0-3.534l52.264-27.698c2.767-1.466 5.91 1.185 4.932 4.159l-7.912 24.057a3.998 3.998 0 0 0 0 2.499l7.911 24.055c.978 2.974-2.166 5.626-4.933 4.159z" opacity="1" data-original="#f3f0f3" class=""></path></g></svg>