<svg width="150" height="150" viewBox="0 0 150 150" fill="none" xmlns="http://www.w3.org/2000/svg">
<g clip-path="url(#clip0_37_256)">
<path d="M88.1836 0.292969C92.7796 0.292969 97.3756 0.292969 102.075 0.390295C101.525 0.816589 100.876 1.15296 100.218 1.47339C92.3035 5.33223 84.6596 9.63808 77.8421 15.2678C73.7492 18.6475 70.0326 22.3721 67.8362 27.3298C65.7388 32.0637 65.9402 36.743 68.9328 40.9641C70.6301 43.3581 72.731 45.5762 75.0144 47.4233C81.192 52.4205 88.4518 55.462 95.7899 58.3233C101.145 60.4114 106.576 62.3625 111.752 64.8378C118.985 68.2968 125.174 73.1932 129.677 79.9568C135.923 89.3384 136.854 99.6878 134.91 110.463C133.007 121.011 128.72 130.664 123.363 139.865C121.306 143.399 119.056 146.82 116.895 150.293C91.0096 150.293 65.1245 150.293 39.1263 150.197C39.3213 149.797 39.6026 149.458 39.9414 149.192C45.3772 144.928 50.8853 140.754 56.2437 136.395C61.5846 132.051 66.2918 127.056 70.5684 121.656C74.6818 116.462 78.1647 110.911 80.2261 104.568C82.6771 97.026 82.3008 89.6465 78.4791 82.6365C75.4427 77.0672 71.04 72.6762 65.8924 69.0132C61.7711 66.0806 57.4239 63.4335 53.9584 59.6663C50.5893 56.0039 48.1324 51.8744 47.6001 46.8501C50.0297 47.0236 50.9422 46.0444 50.626 43.7626C50.5334 43.0944 50.3753 42.4161 50.4153 41.7526C50.5108 40.1676 49.8428 39.1695 48.3485 38.5863C49.3537 36.2384 50.3546 34.0047 51.4711 31.8043C52.8215 32.1866 53.7472 31.753 54.4844 30.7459C54.9697 30.0829 55.5045 29.4554 56.0315 28.824C57.2789 27.3294 57.2992 26.5222 56.2026 24.939C57.2004 23.949 58.0525 22.9542 59.0253 22.0964C59.9472 21.2835 60.9957 20.6143 62.0516 19.954C63.5967 21.6326 65.3707 21.4758 67.2199 19.5746C68.3492 18.4136 68.0988 17.0947 66.5199 15.6863C66.7444 15.3252 66.9055 15.0062 67.1599 14.8053C73.2314 10.0121 79.6143 5.67729 86.3052 1.79245C86.9905 1.39454 87.5603 0.797568 88.1836 0.292969ZM85.3063 71.2925C84.4675 70.801 83.6515 70.2641 82.7844 69.8292C81.6025 69.2365 80.3565 69.601 79.7362 70.6409C79.1063 71.697 79.3819 72.9508 80.5008 73.6976C81.5506 74.3983 82.6011 75.1705 83.7661 75.5992C84.4701 75.8582 85.6129 75.8025 86.1555 75.3757C86.6983 74.9488 87.0195 73.8437 86.9143 73.111C86.8252 72.4898 85.9892 71.9758 85.3063 71.2925ZM53.0519 56.9299C53.8689 57.6941 54.6615 58.4867 55.5087 59.2159C56.7212 60.2595 57.9515 60.2515 58.8753 59.2554C59.8048 58.253 59.6531 56.9077 58.4731 55.792C57.8016 55.157 57.1138 54.5393 56.4383 53.9086C55.3195 52.8641 54.1429 52.6861 53.174 53.421C52.1559 54.1933 52.0609 55.3674 53.0519 56.9299ZM71.3507 64.1434C70.4036 63.6453 69.4738 63.1104 68.5054 62.658C67.2031 62.0497 65.9623 62.4508 65.3824 63.6008C64.8252 64.7059 65.176 65.8959 66.3497 66.6032C67.2647 67.1547 68.2274 67.6291 69.1811 68.1138C70.6511 68.861 71.824 68.6625 72.5392 67.5712C73.2953 66.4176 72.965 65.3108 71.3507 64.1434ZM99.2385 101.659C101.195 102.331 102.462 101.597 102.598 99.6239C102.685 98.369 102.688 97.0981 102.597 95.8439C102.502 94.5396 101.66 93.8392 100.377 93.7832C99.1679 93.7304 98.2138 94.6975 98.1538 96.0034C98.1026 97.1188 98.0202 98.253 98.1665 99.3501C98.2671 100.105 98.7352 100.81 99.2385 101.659ZM94.6133 111.159C94.14 112.062 93.5875 112.935 93.2139 113.878C92.7712 114.995 93.0405 116.033 94.1286 116.649C95.1788 117.244 96.3113 117.151 96.988 116.124C97.8371 114.835 98.5589 113.437 99.1448 112.008C99.6017 110.894 98.7493 109.567 97.5788 109.31C96.1463 108.996 95.2672 109.724 94.6133 111.159ZM87.616 122.531C86.3996 123.692 85.1165 124.793 83.9879 126.034C83.1048 127.005 83.2751 128.367 84.1766 129.175C85.1085 130.01 86.342 129.987 87.3169 129.023C88.1109 128.238 88.967 127.453 89.5194 126.506C89.9616 125.748 90.2789 124.695 90.1262 123.87C89.9385 122.856 88.9355 122.41 87.616 122.531ZM93.4938 79.4552C91.6795 80.5418 91.4387 81.7366 92.6986 83.3844C93.3178 84.1941 93.9114 85.0245 94.5538 85.8153C95.3971 86.8534 96.657 87.0806 97.6527 86.4184C98.7164 85.711 98.9907 84.4024 98.2212 83.2228C97.586 82.2491 96.949 81.2256 96.1003 80.4596C95.4885 79.9073 94.5276 79.7418 93.4938 79.4552ZM77.1532 138.552C77.4182 138.337 77.6932 138.132 77.9466 137.904C79.0944 136.868 79.28 135.567 78.4334 134.55C77.594 133.542 76.2993 133.489 75.0453 134.417C74.8102 134.591 74.585 134.779 74.3598 134.966C72.9203 136.161 72.6342 137.338 73.5052 138.473C74.3377 139.558 75.4751 139.628 77.1532 138.552Z" fill="#665E68"/>
<path d="M55.6343 15.5695C59.3607 13.2549 63.0186 10.8193 66.832 8.6583C71.039 6.27438 75.3847 4.13484 79.6793 1.90667C80.6484 1.40383 81.6558 0.974655 82.6314 0.40227C84.3812 0.292969 86.1453 0.292969 88.0465 0.292969C87.5603 0.797568 86.9905 1.39454 86.3052 1.79245C79.6143 5.67729 73.2314 10.0121 67.1599 14.8053C66.9055 15.0062 66.7444 15.3252 66.3955 15.6862C63.4339 15.7199 61.5785 17.504 61.9885 19.8819C60.9957 20.6143 59.9472 21.2835 59.0253 22.0964C58.0525 22.9542 57.2004 23.949 56.1015 24.8992C54.6727 24.287 53.6475 24.5996 52.7944 25.6244C52.1712 26.3731 51.5409 27.1178 50.9552 27.8954C49.7387 29.5104 49.8426 30.4061 51.3554 31.771C50.3546 34.0047 49.3537 36.2384 48.245 38.6146C47.4704 39.1702 46.5697 39.4315 46.1835 40.0266C45.2382 41.4833 46.1378 45.6533 47.4761 46.8382C48.1324 51.8744 50.5893 56.0039 53.9584 59.6663C57.4239 63.4335 61.7711 66.0806 65.8924 69.0132C71.04 72.6762 75.4427 77.0672 78.4791 82.6365C82.3008 89.6465 82.6771 97.026 80.2261 104.568C78.1647 110.911 74.6818 116.462 70.5684 121.656C66.2918 127.056 61.5846 132.051 56.2437 136.395C50.8853 140.754 45.3772 144.928 39.9414 149.192C39.6026 149.458 39.3213 149.797 38.989 150.197C31.6346 150.293 24.3042 150.293 16.882 150.204C26.2048 144.256 35.3099 137.968 43.6064 130.576C49.8611 125.003 55.6202 118.989 59.9537 111.749C62.7435 107.088 64.7226 102.126 64.9963 96.6389C65.3639 89.2696 62.4086 83.177 57.5397 77.862C53.7411 73.7153 49.1254 70.6293 44.4257 67.6323C40.2001 64.9377 36.3641 61.7875 33.577 57.5371C30.2533 52.4686 29.3987 47.0035 31.6675 41.366C32.8542 38.417 34.4565 35.5488 36.3317 32.9805C40.9285 26.6844 47.0008 21.9083 53.2875 17.4022C53.645 17.146 53.8866 16.7279 54.1822 16.3852C54.1822 16.3852 54.1987 16.4063 54.2668 16.4908C54.4876 16.4121 54.6402 16.249 54.7928 16.0858C54.7928 16.0858 54.7864 16.113 54.8629 16.1464C55.171 15.9764 55.4026 15.7729 55.6343 15.5695Z" fill="#564E56"/>
<path d="M104.46 0.292969C105.123 2.14956 104.011 2.84232 102.538 3.54525C95.791 6.76672 89.277 10.429 83.3719 15.0285C79.7307 17.8647 76.2501 20.9939 74.233 25.2898C72.0156 30.0124 72.5103 33.7256 75.9747 38.01C79.9888 42.9741 85.4328 45.951 91.1891 48.3261C96.6528 50.5804 102.186 52.6958 107.789 54.5753C114.841 56.941 121.605 59.821 127.683 64.1616C131.925 67.1914 135.561 70.7945 138.624 75.0584C142.711 80.7487 145.06 87.1117 146.111 93.9109C146.735 97.9491 146.967 102.135 146.677 106.205C146.334 111.031 145.398 115.835 144.438 120.591C142.657 129.417 139.324 137.706 135.415 145.794C134.427 147.838 132.771 148.958 131.153 150.217C126.556 150.293 121.863 150.293 117.032 150.293C119.056 146.82 121.306 143.399 123.363 139.865C128.72 130.664 133.007 121.011 134.91 110.463C136.854 99.6878 135.923 89.3384 129.677 79.9568C125.174 73.1932 118.985 68.2968 111.752 64.8378C106.576 62.3625 101.145 60.4114 95.7899 58.3233C88.4518 55.462 81.192 52.4205 75.0144 47.4233C72.731 45.5762 70.6301 43.3581 68.9328 40.9641C65.9402 36.743 65.7388 32.0637 67.8362 27.3298C70.0327 22.3721 73.7492 18.6475 77.8421 15.2678C84.6596 9.63808 92.3036 5.33223 100.218 1.47339C100.876 1.15296 101.525 0.816589 102.212 0.390295C102.941 0.292969 103.635 0.292969 104.46 0.292969Z" fill="#FED301"/>
<path d="M54.0754 16.3955C53.8865 16.728 53.6449 17.146 53.2874 17.4023C47.0007 21.9084 40.9284 26.6845 36.3316 32.9805C34.4564 35.5489 32.8541 38.4171 31.6674 41.3661C29.3986 47.0036 30.2532 52.4687 33.5769 57.5372C36.364 61.7875 40.2 64.9378 44.4255 67.6324C49.1253 70.6294 53.741 73.7154 57.5396 77.862C62.4085 83.1771 65.3638 89.2697 64.9962 96.639C64.7225 102.126 62.7434 107.088 59.9536 111.749C55.6201 118.989 49.861 125.003 43.6063 130.576C35.3097 137.968 26.2047 144.256 16.7445 150.205C12.7868 150.293 8.87442 150.293 4.82474 150.293C4.57017 149.945 4.49514 149.575 4.32868 149.252C3.33859 147.333 3.809 145.876 5.56457 144.71C12.2896 140.242 19.0154 135.773 25.6658 131.196C31.9718 126.856 37.6339 121.729 42.7796 116.087C47.0894 111.362 50.7802 106.214 52.495 99.8448C54.2962 93.1547 52.6125 87.3721 48.5202 82.067C45.2076 77.7726 40.8327 74.7598 36.3153 71.9037C31.0825 68.5954 26.3097 64.8001 23.5099 59.0636C21.0481 54.0197 21.3112 48.9541 23.5921 43.9463C26.3494 37.8926 30.9482 33.3432 35.8444 29.0149C41.2243 24.259 47.2941 20.5096 53.3258 16.6937C53.5222 16.5695 53.7536 16.5005 54.0754 16.3955Z" fill="#FEC20C"/>
<path d="M85.395 71.3533C85.9892 71.9757 86.8252 72.4898 86.9143 73.111C87.0195 73.8437 86.6983 74.9488 86.1555 75.3757C85.613 75.8024 84.4701 75.8582 83.7661 75.5991C82.6011 75.1705 81.5507 74.3983 80.5008 73.6976C79.3819 72.9508 79.1063 71.6969 79.7362 70.6408C80.3565 69.601 81.6025 69.2364 82.7844 69.8292C83.6515 70.2641 84.4675 70.801 85.395 71.3533Z" fill="#DDE8F7"/>
<path d="M51.4711 31.8043C49.8426 30.4061 49.7386 29.5104 50.9551 27.8954C51.5409 27.1177 52.1712 26.3731 52.7944 25.6244C53.6475 24.5996 54.6726 24.2869 56.0085 24.9542C57.2992 26.5222 57.2788 27.3294 56.0315 28.824C55.5045 29.4554 54.9697 30.0829 54.4844 30.7459C53.7472 31.753 52.8215 32.1866 51.4711 31.8043Z" fill="#DCE7F6"/>
<path d="M47.6 46.8501C46.1377 45.6534 45.2381 41.4833 46.1834 40.0266C46.5696 39.4315 47.4703 39.1702 48.2405 38.7288C49.8427 39.1695 50.5107 40.1676 50.4152 41.7526C50.3752 42.4161 50.5333 43.0945 50.6259 43.7626C50.9422 46.0444 50.0297 47.0236 47.6 46.8501Z" fill="#DDE8F7"/>
<path d="M52.9771 56.8544C52.0609 55.3673 52.1559 54.1932 53.174 53.4209C54.1429 52.686 55.3195 52.864 56.4382 53.9085C57.1138 54.5392 57.8016 55.1569 58.4731 55.7919C59.653 56.9077 59.8048 58.2529 58.8752 59.2553C57.9515 60.2514 56.7211 60.2594 55.5086 59.2158C54.6614 58.4866 53.8688 57.694 52.9771 56.8544Z" fill="#DCE8F6"/>
<path d="M71.4477 64.1915C72.9649 65.3108 73.2953 66.4176 72.5392 67.5712C71.824 68.6625 70.6511 68.861 69.181 68.1138C68.2274 67.6291 67.2647 67.1547 66.3496 66.6032C65.176 65.8959 64.8252 64.7059 65.3824 63.6008C65.9623 62.4508 67.203 62.0497 68.5053 62.658C69.4737 63.1104 70.4036 63.6453 71.4477 64.1915Z" fill="#DCE7F6"/>
<path d="M99.1387 101.598C98.7351 100.81 98.267 100.105 98.1664 99.35C98.0201 98.2528 98.1025 97.1186 98.1538 96.0033C98.2137 94.6973 99.1679 93.7303 100.377 93.7831C101.66 93.8391 102.501 94.5394 102.596 95.8438C102.688 97.0979 102.685 98.3688 102.598 99.6238C102.462 101.597 101.195 102.331 99.1387 101.598Z" fill="#DDE8F7"/>
<path d="M94.6575 111.06C95.2671 109.724 96.1462 108.996 97.5787 109.31C98.7493 109.567 99.6017 110.894 99.1448 112.008C98.5588 113.437 97.8371 114.835 96.9879 116.124C96.3113 117.151 95.1788 117.244 94.1285 116.65C93.0405 116.033 92.7711 114.995 93.2138 113.878C93.5874 112.935 94.1399 112.062 94.6575 111.06Z" fill="#DCE8F7"/>
<path d="M87.7269 122.512C88.9355 122.41 89.9385 122.856 90.1262 123.87C90.2789 124.695 89.9616 125.749 89.5194 126.506C88.9669 127.453 88.1108 128.238 87.3168 129.023C86.3419 129.987 85.1084 130.01 84.1766 129.175C83.2751 128.367 83.1047 127.005 83.9879 126.034C85.1165 124.793 86.3995 123.693 87.7269 122.512Z" fill="#DCE8F7"/>
<path d="M93.6081 79.4297C94.5276 79.742 95.4885 79.9074 96.1003 80.4597C96.949 81.2257 97.586 82.2493 98.2212 83.2229C98.9907 84.4025 98.7164 85.7112 97.6527 86.4186C96.6569 87.0808 95.397 86.8535 94.5538 85.8154C93.9114 85.0246 93.3178 84.1943 92.6986 83.3845C91.4387 81.7368 91.6794 80.542 93.6081 79.4297Z" fill="#DCE8F7"/>
<path d="M77.0704 138.62C75.475 139.628 74.3376 139.558 73.5051 138.473C72.6341 137.338 72.9202 136.161 74.3597 134.966C74.5849 134.779 74.8101 134.591 75.0452 134.417C76.2992 133.489 77.5939 133.542 78.4333 134.55C79.2799 135.567 79.0943 136.868 77.9465 137.904C77.6931 138.132 77.4181 138.337 77.0704 138.62Z" fill="#DBE7F6"/>
<path d="M62.0515 19.9542C61.5784 17.5042 63.4338 15.7201 66.3754 15.7834C68.0986 17.0949 68.3491 18.4138 67.2198 19.5748C65.3705 21.4759 63.5966 21.6328 62.0515 19.9542Z" fill="#DBE7F6"/>
<path d="M55.5383 15.5522C55.4026 15.7729 55.1709 15.9763 54.8492 16.1432C54.9869 15.9161 55.2147 15.7256 55.5383 15.5522Z" fill="#FEC20C"/>
<path d="M54.6994 16.0989C54.6401 16.249 54.4875 16.4121 54.2574 16.4811C54.322 16.2953 54.4641 16.2036 54.6994 16.0989Z" fill="#FEC20C"/>
</g>
<defs>
<clipPath id="clip0_37_256">
<rect width="150" height="150" fill="white"/>
</clipPath>
</defs>
</svg>
