<svg width="150" height="150" viewBox="0 0 150 150" fill="none" xmlns="http://www.w3.org/2000/svg">
<g clip-path="url(#clip0_37_218)">
<path d="M150.293 128.476C149.338 129.685 148.13 129.877 146.752 129.809C144.807 129.712 142.855 129.78 140.767 129.636C140.626 125.356 140.655 121.217 140.612 117.079C140.592 115.186 141.119 113.466 142.38 112.127C144.545 109.829 146.868 107.678 149.124 105.465C149.459 106.112 149.793 106.758 150.21 107.462C150.293 114.459 150.293 121.399 150.293 128.476Z" fill="#C7CFE2"/>
<path d="M9.95519 129.768C7.73078 129.774 5.50362 129.716 3.28308 129.811C2.12601 129.861 1.20398 129.605 0.386596 128.657C0.292969 122.748 0.292969 116.882 0.292969 110.879C0.817948 109.986 1.34293 109.231 1.96793 108.531C3.86 110.108 5.63607 111.648 7.44891 113.144C9.01761 114.438 10.0456 115.91 9.98877 118.097C9.88773 121.985 9.9571 125.878 9.95519 129.768Z" fill="#C8CFE2"/>
<path d="M99.5651 58.2564C100.287 67.5357 97.5225 75.3935 89.9476 81.4165C86.2304 83.9045 82.3739 85.5698 78.0978 85.9838C76.1099 86.1762 74.0773 85.9061 72.0243 85.7556C71.6344 85.1993 71.307 84.7145 70.9321 84.2697C67.578 80.2897 65.8693 75.6027 65.6807 70.4996C65.4484 64.2141 65.6142 57.9134 65.6304 51.6194C65.6368 49.1167 67.219 47.2679 69.7133 46.8796C70.9068 46.6938 72.1303 46.7085 73.3302 46.5545C78.6643 45.8696 83.8823 46.4824 88.9968 48.0152C90.8988 48.5853 92.7273 49.4002 94.6092 50.2183C95.2478 51.6038 95.7613 52.9411 96.5124 54.128C97.4253 55.5704 98.5385 56.8859 99.5651 58.2564Z" fill="#F0C087"/>
<path d="M99.581 58.1382C98.5387 56.8861 97.4254 55.5705 96.5125 54.1281C95.7614 52.9412 95.248 51.6039 94.6298 50.0913C94.9352 47.9491 94.1016 46.6324 92.4574 45.8082C90.1652 44.6592 87.9146 43.3752 85.5194 42.4939C79.8632 40.4129 73.9336 40.2902 67.9432 40.376C67.5646 40.1006 67.2442 39.8969 66.9009 39.7448C64.3463 38.613 62.431 36.785 61.4862 34.1734C59.7296 29.3175 61.7396 24.0154 66.354 21.8906C66.9299 21.6254 67.4309 21.1975 67.9666 20.845C77.8686 20.8302 87.7706 20.7875 97.6724 20.821C100.016 20.829 101.952 23.0104 101.953 25.3744C101.955 32.1066 101.872 38.8402 101.989 45.5704C102.045 48.8453 101.377 51.9307 100.4 55.0009C100.085 55.9921 99.8621 57.0128 99.581 58.1382Z" fill="#694B4B"/>
<path d="M70.5518 129.739C63.3343 129.751 56.1168 129.764 48.7655 129.623C48.6326 126.984 48.5705 124.496 48.6508 122.013C48.7487 118.989 47.6172 116.56 45.4947 114.462C42.5863 111.588 39.753 108.637 36.925 105.637C37.0455 105.336 37.1284 105.117 37.2113 104.898C39.9737 103.656 42.6943 102.307 45.5094 101.198C48.8669 99.8761 52.3053 98.7596 55.8657 97.6332C58.6327 101.126 61.181 104.589 63.8794 107.931C65.1618 109.519 66.4501 109.406 67.9652 107.978C68.9768 107.025 70.0317 106.117 71.0888 105.319C71.1881 106.76 70.7784 108.254 72.4157 109.098C72.2555 110.829 72.1236 112.431 71.9789 114.032C71.5057 119.268 71.0278 124.503 70.5518 129.739Z" fill="#FF507D"/>
<path d="M101.96 129.738C94.7397 129.75 87.5199 129.762 80.1637 129.625C79.4008 122.64 78.7744 115.804 78.2235 108.891C80.045 108.056 79.2336 106.438 79.6106 105.206C80.5499 106.013 81.4162 106.784 82.2409 107.597C84.2622 109.59 85.5415 109.596 87.2574 107.383C89.7731 104.138 92.1922 100.818 94.6525 97.5304C97.5555 98.5544 100.461 99.5707 103.36 100.606C104.786 101.115 106.199 101.659 107.793 102.293C110 103.295 112.241 103.83 113.654 105.81C110.598 108.936 107.568 111.954 104.58 115.013C102.851 116.783 101.931 118.915 101.949 121.427C101.968 124.197 101.957 126.967 101.96 129.738Z" fill="#FF507D"/>
<path d="M67.9906 40.4717C73.9335 40.2902 79.8631 40.4129 85.5193 42.494C87.9145 43.3752 90.1651 44.6592 92.4573 45.8082C94.1015 46.6324 94.9351 47.9491 94.6098 49.9765C92.7273 49.4003 90.8988 48.5854 88.9968 48.0153C83.8824 46.4825 78.6643 45.8697 73.3302 46.5546C72.1303 46.7087 70.9068 46.6939 69.7133 46.8797C67.219 47.268 65.6368 49.1169 65.6304 51.6195C65.6143 57.9135 65.4485 64.2142 65.6808 70.4997C65.8694 75.6029 67.578 80.2898 70.9321 84.2698C71.307 84.7146 71.6344 85.1994 71.8966 85.7544C71.1431 85.7659 70.4685 85.7319 69.812 85.6044C66.4245 84.947 63.5166 83.2175 60.6278 81.4505C55.7865 77.7216 52.576 72.9125 51.5202 66.8804C51.0411 64.1436 51.1407 61.3056 51.0717 58.3065C52.0929 56.8169 52.9061 55.428 53.9769 54.279C55.2877 52.8726 55.9877 51.3344 55.947 49.4227C55.9158 47.9594 55.9321 46.4948 55.9434 45.0308C55.9584 43.0946 56.6293 42.287 58.5086 41.9176C59.0798 41.8053 59.6508 41.6875 60.2263 41.6023C62.8135 41.2195 65.4024 40.8475 67.9906 40.4717Z" fill="#E6AF78"/>
<path d="M37.1071 104.881C37.1284 105.117 37.0454 105.336 36.8351 105.68C35.2966 107.306 34.3382 109.063 34.2855 111.129C34.1526 116.334 34.1172 121.542 34.0721 126.75C34.0608 128.053 34.5916 129.106 35.8059 129.728C27.2808 129.746 18.7557 129.765 10.0929 129.776C9.95704 125.878 9.88767 121.985 9.98872 118.097C10.0456 115.91 9.01756 114.438 7.44886 113.144C5.63602 111.649 3.85994 110.109 2.05615 108.485C2.95162 107.592 3.77326 106.662 4.78637 106.047C6.25757 105.154 7.86695 104.49 9.61602 103.757C10.0161 103.994 10.243 104.184 10.4151 104.414C14.0368 109.267 19.7403 111.338 25.6158 109.89C29.3241 108.976 32.1507 106.79 34.3248 103.702C35.2175 104.089 36.1102 104.476 37.1071 104.881Z" fill="#D5DCEC"/>
<path d="M19.3337 58.3449C19.4548 58.3279 19.576 58.3108 19.8887 58.2945C20.3171 58.2149 20.554 58.1346 20.7909 58.0542C26.2581 57.5881 30.948 59.3466 34.6844 63.2992C37.5373 66.3173 39.1382 69.9951 39.5682 74.1886C40.2497 80.835 41.2902 87.435 43.4195 93.7849C44.4849 96.9619 43.3044 97.9182 40.9273 98.7026C37.7406 99.7542 34.4982 100.637 31.0805 101.61C30.4137 100.865 29.9461 100.102 29.501 99.2181C29.442 97.4093 29.3603 95.7222 29.3394 93.958C32.0913 92.0642 34.3497 89.8821 35.5274 86.6502C35.7805 86.0777 36.0168 85.5851 36.1096 85.0667C36.6486 82.0557 37.3843 81.6623 34.2873 79.3493C32.927 78.3333 31.5201 77.3593 30.0477 76.518C26.4147 74.442 22.6337 72.7077 18.4371 71.9345C18.3363 71.7258 18.2733 71.5779 18.1615 71.5054C14.0177 68.8215 14.2304 61.6076 18.5971 59.1636C18.9004 58.9939 19.0908 58.6225 19.3337 58.3449Z" fill="#694B4B"/>
<path d="M140.634 77.6597C140.443 80.3005 140.53 82.9992 139.994 85.5681C139.229 89.2415 136.806 91.8948 133.502 93.9665C133.061 94.1313 132.767 94.1784 132.512 94.3054C129.086 96.0131 125.539 96.2462 121.869 95.1032C121.074 93.4508 120.07 91.9706 119.553 90.3364C118.291 86.3488 119.071 82.2054 119.01 78.1318C118.985 76.4863 121.309 74.3584 122.818 74.4409C125.864 74.6076 128.932 74.7431 131.933 75.239C134.834 75.7185 137.664 76.6347 140.556 77.4329C140.603 77.5577 140.618 77.6087 140.634 77.6597Z" fill="#F0C087"/>
<path d="M149.082 105.377C146.868 107.678 144.545 109.829 142.38 112.127C141.119 113.465 140.592 115.186 140.612 117.079C140.655 121.217 140.626 125.356 140.63 129.629C136.709 129.766 132.784 129.768 128.729 129.635C128.507 128.682 128.366 127.867 128.336 127.047C128.211 123.695 128.16 120.34 128.006 116.99C127.883 114.329 127.651 111.672 127.57 108.986C128.932 108.292 128.514 107.097 128.682 106.097C129.279 106.515 129.738 107.089 130.298 107.217C130.891 107.351 131.95 107.279 132.166 106.916C133.526 104.632 134.708 102.241 135.949 99.8861C138.722 100.671 141.485 101.497 144.273 102.228C146.214 102.737 147.805 103.717 149.082 105.377Z" fill="#D5DCED"/>
<path d="M140.735 77.6075C140.618 77.6087 140.603 77.5577 140.554 77.3294C139.926 76.2305 139.522 75.0641 138.705 74.4267C132.881 69.8838 126.082 69.0421 118.91 69.4002C118.705 69.2583 118.575 69.1803 118.436 69.1581C115.071 68.6205 113.386 66.162 114.265 62.8694C114.582 61.6823 115.22 60.5809 115.712 59.4404C117.3 57.8555 119.133 57.0514 121.46 57.0953C126.964 57.1992 132.473 57.2099 137.977 57.098C141.246 57.0316 143.092 59.1835 143.272 62.3476C143.571 67.6018 142.389 72.6052 140.735 77.6075Z" fill="#694B4B"/>
<path d="M19.2151 58.3257C19.0908 58.6224 18.9004 58.9938 18.5972 59.1635C14.2304 61.6074 14.0177 68.8214 18.1615 71.5053C18.2734 71.5778 18.3363 71.7257 18.3342 71.9566C17.7058 72.463 16.938 72.732 16.6615 73.2588C14.8927 76.6303 12.1424 78.9152 8.88028 80.7155C7.78079 81.3223 7.40269 82.4002 7.67513 83.6033C7.93101 84.7333 8.26318 85.8561 8.67538 86.9388C9.8463 90.0144 12.0958 92.1935 14.7154 94.166C14.6966 95.9777 14.6962 97.6524 14.6673 99.4287C14.1487 100.16 13.6584 100.79 13.1682 101.419C9.34963 101.004 5.81985 99.6127 2.33828 98.1159C0.908266 97.5011 0.495573 96.0191 1.05959 94.2933C2.65574 89.4095 3.70563 84.4111 4.42026 79.3244C4.88216 76.0366 5.1483 72.6304 6.24743 69.5425C8.38406 63.5399 12.6381 59.5636 19.2151 58.3257Z" fill="#5A4146"/>
<path d="M67.943 40.3759C65.4023 40.8474 62.8135 41.2194 60.2262 41.6022C59.6507 41.6873 59.0797 41.8051 58.5085 41.9174C56.6292 42.2869 55.9583 43.0945 55.9433 45.0307C55.932 46.4946 55.9157 47.9592 55.9469 49.4226C55.9876 51.3342 55.2876 52.8724 53.9768 54.2789C52.906 55.4278 52.0928 56.8168 51.0985 58.1672C50.4879 56.2264 49.8556 54.2365 49.4271 52.2035C49.0451 50.3916 48.664 48.5303 48.6791 46.694C48.7106 42.8416 48.2779 38.9785 49.1901 35.1351C50.8013 28.3468 57.4669 22.0885 64.4103 21.1007C65.4993 20.9458 66.6041 20.9018 67.834 20.8257C67.4307 21.1974 66.9297 21.6253 66.3538 21.8905C61.7394 24.0153 59.7294 29.3174 61.486 34.1733C62.4308 36.7849 64.3462 38.6129 66.9007 39.7447C67.244 39.8968 67.5644 40.1005 67.943 40.3759Z" fill="#5A4146"/>
<path d="M118.982 69.4904C126.082 69.0423 132.881 69.884 138.705 74.4269C139.522 75.0642 139.926 76.2307 140.523 77.2557C137.664 76.6349 134.834 75.7186 131.933 75.2392C128.931 74.7432 125.864 74.6077 122.818 74.4411C121.309 74.3585 118.985 76.4864 119.01 78.132C119.071 82.2056 118.291 86.3489 119.553 90.3365C120.07 91.9707 121.074 93.451 121.76 95.0958C120.678 94.8113 119.691 94.4323 118.705 94.0533C115.083 91.76 112.591 88.6252 111.797 84.3567C111.472 82.6087 111.481 80.7986 111.428 78.7993C111.881 77.5434 111.971 76.2517 112.657 75.5142C114.637 73.3866 116.857 71.4824 118.982 69.4904Z" fill="#E5AF78"/>
<path d="M113.698 105.719C112.241 103.83 110 103.295 107.898 102.326C110.461 101.563 113.095 100.872 115.944 100.224C117.041 101.808 117.977 103.322 118.793 104.899C120.453 108.104 120.843 108.218 123.635 106.179C123.675 107.279 123.428 108.35 124.524 109.112C124.51 111.052 124.556 112.857 124.47 114.655C124.229 119.689 123.933 124.72 123.659 129.752C120.791 129.757 117.924 129.762 114.986 129.674C116.283 128.943 116.516 127.716 116.52 126.404C116.533 121.923 116.585 117.44 116.502 112.959C116.452 110.243 115.896 107.642 113.698 105.719Z" fill="#D5DBED"/>
<path d="M89.8866 87.2944C89.906 88.6666 89.9253 90.0388 89.8921 91.6298C88.9558 92.3569 88.0548 92.8379 87.1911 93.3784C83.2831 95.8239 79.3856 98.2862 75.4212 100.747C75.2725 100.754 75.187 100.751 75.0398 100.661C74.8219 100.464 74.6736 100.336 74.5089 100.234C69.8839 97.3819 65.2572 94.532 60.6307 91.6818C60.6402 90.3098 60.6496 88.9379 60.7857 87.4351C61.2322 87.4107 61.5804 87.4672 61.8675 87.631C65.9722 89.9722 70.4951 90.9842 75.1081 91.0044C78.1479 91.0177 81.2282 90.2253 84.2211 89.5055C86.1739 89.0358 88.0024 88.0494 89.8866 87.2944Z" fill="#E6AE78"/>
<path d="M13.1248 101.507C13.6584 100.79 14.1486 100.16 14.7751 99.4399C17.9174 100.262 20.9237 101.179 24.1273 100.496C25.912 100.115 27.6948 99.7255 29.4784 99.34C29.9461 100.102 30.4137 100.865 30.9773 101.665C32.1163 102.314 33.1593 102.924 34.2636 103.618C32.1507 106.79 29.3241 108.976 25.6158 109.89C19.7403 111.338 14.0368 109.267 10.4151 104.414C10.243 104.184 10.016 103.994 9.71973 103.749C10.777 103.006 11.9293 102.3 13.1248 101.507Z" fill="#E6AF79"/>
<path d="M75.4843 100.743C79.3855 98.2862 83.283 95.8239 87.191 93.3784C88.0547 92.8379 88.9557 92.3569 89.8975 91.7652C91.4039 91.4935 92.2717 92.3069 92.8593 93.4666C93.4966 94.7245 94.041 96.0295 94.6392 97.4222C92.1921 100.818 89.773 104.138 87.2573 107.383C85.5414 109.596 84.2621 109.59 82.2408 107.597C81.4161 106.784 80.5498 106.013 79.5634 105.111C78.111 103.581 76.7976 102.162 75.4843 100.743Z" fill="#D23D69"/>
<path d="M60.5134 91.6887C65.2571 94.5319 69.8838 97.3817 74.5088 100.234C74.6735 100.336 74.8218 100.464 74.982 100.752C73.68 102.345 72.3736 103.767 71.0672 105.189C70.0317 106.117 68.9768 107.025 67.9652 107.978C66.4501 109.406 65.1618 109.519 63.8794 107.931C61.181 104.589 58.6326 101.126 55.9779 97.6215C56.679 95.9679 57.3016 94.3259 58.2293 92.8797C58.6192 92.2719 59.6543 92.0779 60.5134 91.6887Z" fill="#D23D69"/>
<path d="M89.9056 87.1591C88.0024 88.0493 86.1739 89.0357 84.2211 89.5054C81.2282 90.2252 78.1479 91.0177 75.108 91.0044C70.4951 90.9841 65.9722 89.9722 61.8674 87.6309C61.5804 87.4672 61.2322 87.4106 60.8059 87.2993C60.6808 85.4374 60.6624 83.5804 60.6359 81.5869C63.5166 83.2173 66.4245 84.9469 69.812 85.6043C70.4685 85.7317 71.1431 85.7658 71.9372 85.8442C74.0773 85.9061 76.11 86.1762 78.0978 85.9838C82.374 85.5698 86.2304 83.9045 89.8599 81.4584C89.9514 83.3091 89.9381 85.1665 89.9056 87.1591Z" fill="#D29B6E"/>
<path d="M123.631 106.055C120.843 108.218 120.453 108.104 118.793 104.899C117.977 103.323 117.041 101.808 116.063 100.221C116.783 99.2063 117.6 98.2362 118.587 97.3347C119.206 97.7498 119.655 98.0965 120.15 98.5298C122.131 100.422 124.068 102.228 126.128 104.149C128.212 102.16 130.164 100.296 132.203 98.3932C132.727 97.9902 133.164 97.6269 133.602 97.2637C135.146 97.3307 135.18 98.846 135.935 99.7848C134.708 102.242 133.526 104.632 132.166 106.916C131.95 107.279 130.891 107.351 130.299 107.217C129.738 107.09 129.279 106.515 128.598 106.05C126.182 103.912 126.182 103.913 123.876 105.902C123.804 105.964 123.713 106.004 123.631 106.055Z" fill="#C7CFE1"/>
<path d="M118.911 69.4002C116.857 71.4822 114.637 73.3864 112.657 75.514C111.971 76.2515 111.881 77.5432 111.451 78.6618C109.924 74.8886 108.776 70.9646 108.994 66.7858C109.195 62.9298 111.427 60.1266 115.594 59.4545C115.22 60.5809 114.582 61.6822 114.265 62.8694C113.386 66.162 115.071 68.6205 118.436 69.1581C118.575 69.1803 118.705 69.2583 118.911 69.4002Z" fill="#5A4146"/>
<path d="M120.104 98.443C119.655 98.0964 119.206 97.7497 118.695 97.3314C118.645 96.2791 118.657 95.2984 118.687 94.1854C119.691 94.4322 120.678 94.8112 121.774 95.1978C125.539 96.2463 129.086 96.0131 132.512 94.3054C132.767 94.1785 133.061 94.1314 133.446 94.051C133.566 95.0353 133.578 96.0157 133.596 97.1298C133.164 97.6268 132.727 97.9901 132.086 98.3968C129.606 98.7321 127.333 99.2105 125.051 99.2531C123.408 99.2839 121.753 98.7339 120.104 98.443Z" fill="#D29B6E"/>
<path d="M20.6887 58.0343C20.554 58.1345 20.3171 58.2149 19.981 58.2915C20.1167 58.1967 20.3516 58.1055 20.6887 58.0343Z" fill="#5A4146"/>
<path d="M113.654 105.81C115.896 107.642 116.452 110.243 116.502 112.959C116.585 117.44 116.533 121.923 116.52 126.404C116.516 127.716 116.283 128.943 114.845 129.654C110.594 129.743 106.412 129.76 102.095 129.757C101.957 126.967 101.967 124.197 101.948 121.427C101.931 118.915 102.85 116.783 104.58 115.012C107.568 111.954 110.597 108.936 113.654 105.81Z" fill="#D23D6A"/>
<path d="M35.9387 129.735C34.5916 129.106 34.0608 128.053 34.0721 126.75C34.1172 121.542 34.1526 116.334 34.2855 111.129C34.3382 109.063 35.2966 107.306 36.7976 105.762C39.753 108.637 42.5863 111.588 45.4947 114.462C47.6171 116.56 48.7486 118.989 48.6508 122.013C48.5704 124.496 48.6326 126.984 48.629 129.604C44.4414 129.739 40.2565 129.74 35.9387 129.735Z" fill="#D23D6A"/>
<path d="M78.148 108.969C78.7744 115.804 79.4009 122.64 80.0309 129.607C76.9683 129.75 73.9023 129.761 70.6941 129.755C71.028 124.503 71.5058 119.267 71.9791 114.031C72.1237 112.431 72.2557 110.829 72.5466 109.101C74.5158 108.973 76.3319 108.971 78.148 108.969Z" fill="#727487"/>
<path d="M123.793 129.762C123.933 124.72 124.229 119.689 124.47 114.655C124.556 112.857 124.509 111.052 124.656 109.115C125.681 108.991 126.575 109.002 127.468 109.014C127.651 111.673 127.883 114.329 128.006 116.99C128.16 120.341 128.211 123.695 128.336 127.047C128.366 127.867 128.507 128.682 128.59 129.622C127.031 129.754 125.479 129.763 123.793 129.762Z" fill="#B0BAD3"/>
<path d="M78.2235 108.891C76.3318 108.971 74.5157 108.973 72.5689 108.972C70.7785 108.254 71.1882 106.76 71.0889 105.319C72.3737 103.767 73.6801 102.345 75.0442 100.833C75.1871 100.751 75.2725 100.753 75.4212 100.747C76.7977 102.162 78.1111 103.581 79.4716 105.094C79.2335 106.438 80.045 108.056 78.2235 108.891Z" fill="#5D5D6E"/>
<path d="M35.4445 86.7181C34.3497 89.8821 32.0913 92.0642 29.2341 93.9714C25.8852 95.6241 22.5737 96.2875 19.0409 95.393C18.6965 94.8826 18.4216 94.4042 18.0238 94.0736C16.283 92.627 15.3858 90.7022 15.0508 88.5523C14.8358 87.1731 15.0231 85.7361 14.9218 84.3329C14.8315 83.0826 15.2233 82.2385 16.33 81.5618C17.0491 81.1222 17.6271 80.3877 18.1435 79.6926C19.9462 77.2665 20.0909 77.205 22.897 78.4012C23.1204 78.4964 23.329 78.6264 23.5526 78.721C28.0339 80.6178 31.8651 83.4806 35.4445 86.7181Z" fill="#F0C087"/>
<path d="M35.5275 86.6503C31.8652 83.4806 28.034 80.6179 23.5526 78.7211C23.329 78.6265 23.1205 78.4965 22.8971 78.4013C20.0909 77.2051 19.9463 77.2666 18.1436 79.6927C17.6271 80.3877 17.0491 81.1222 16.3301 81.5619C15.2234 82.2386 14.8316 83.0827 14.9219 84.333C15.0232 85.7362 14.8359 87.1732 15.0508 88.5524C15.3859 90.7023 16.2831 92.6271 18.0239 94.0737C18.4217 94.4043 18.6966 94.8827 18.9256 95.3968C17.4601 95.0101 16.097 94.5196 14.7339 94.0292C12.0959 92.1938 9.84631 90.0147 8.67539 86.939C8.26319 85.8563 7.93103 84.7335 7.67514 83.6035C7.40271 82.4004 7.7808 81.3225 8.88029 80.7157C12.1424 78.9154 14.8927 76.6305 16.6616 73.259C16.938 72.7322 17.7058 72.4632 18.3493 72.0527C22.6337 72.7078 26.4147 74.4421 30.0478 76.5181C31.5202 77.3594 32.9271 78.3335 34.2873 79.3494C37.3843 81.6624 36.6487 82.0558 36.1097 85.0668C36.0169 85.5852 35.7805 86.0778 35.5275 86.6503Z" fill="#E5AE78"/>
<path d="M14.7154 94.166C16.0969 94.5195 17.46 95.0099 18.9385 95.4967C22.5737 96.2874 25.8852 95.624 29.1734 94.0483C29.3603 95.7221 29.442 97.4092 29.501 99.2181C27.6948 99.7253 25.912 100.115 24.1273 100.495C20.9237 101.179 17.9174 100.262 14.8035 99.3382C14.6961 97.6525 14.6965 95.9778 14.7154 94.166Z" fill="#D29B6E"/>
<path d="M127.57 108.986C126.575 109.002 125.682 108.991 124.656 108.977C123.428 108.35 123.675 107.279 123.635 106.179C123.713 106.004 123.804 105.964 123.876 105.902C126.182 103.913 126.182 103.912 128.505 106.01C128.514 107.097 128.932 108.292 127.57 108.986Z" fill="#979EB7"/>
<path d="M120.15 98.5298C121.753 98.7341 123.408 99.284 125.051 99.2533C127.333 99.2106 129.606 98.7322 132 98.4366C130.164 100.296 128.212 102.16 126.128 104.149C124.068 102.228 122.131 100.422 120.15 98.5298Z" fill="#E6AF79"/>
</g>
<defs>
<clipPath id="clip0_37_218">
<rect width="150" height="150" fill="white"/>
</clipPath>
</defs>
</svg>
