<svg xmlns="http://www.w3.org/2000/svg" version="1.1" xmlns:xlink="http://www.w3.org/1999/xlink" width="512" height="512" x="0" y="0" viewBox="0 0 512 512" style="enable-background:new 0 0 512 512" xml:space="preserve" class=""><g><path fill="#845252" d="M132.13 181.677V74.322c0-31.926 25.881-57.806 57.806-57.806h16.516v165.162H132.13z" opacity="1" data-original="#845252"></path><path fill="#7a4646" d="M295.957 7.565h-17.828L264.259 0h-41.373c-18.243 0-33.032 14.789-33.032 33.032v148.645h182.103V83.565c0-41.974-34.027-76-76-76z" opacity="1" data-original="#7a4646"></path><path fill="#70393c" d="M297.291.004V0h-33.032c0 9.122 7.395 16.516 16.516 16.516h16.436c36.486 0 66.065 29.578 66.065 66.065v99.097h16.514V82.581C379.789 37 342.861.049 297.291.004z" opacity="1" data-original="#70393c"></path><path fill="#fbbd80" d="M198.194 307.462h107.084v72.409H198.194z" opacity="1" data-original="#fbbd80"></path><path fill="#f4aa73" d="M313.807 371.613v-90.839H198.194v26.688c17.349 9.266 37.024 14.602 57.806 14.602 7.465 0 14.789-.687 21.917-1.994 10.105-1.853 19.374 5.923 19.374 16.196v35.346h16.516z" opacity="1" data-original="#f4aa73"></path><path fill="#dbd8db" d="m346.921 355.097-90.92 8.258-90.922-8.258.083 140.387L198.112 512h33.114L256 500.813 280.774 512h32.951l33.115-16.516z" opacity="1" data-original="#dbd8db"></path><path fill="#615260" d="M265.531 388.129h-26.047L231.226 512h32.907z" opacity="1" data-original="#615260"></path><path fill="#4e3d4d" d="M280.775 363.355h-49.548v24.774c0 13.682 11.092 24.774 24.774 24.774.655 0 1.271-.143 1.913-.193l6.219 99.29h16.643l-7.121-106.517c4.396-4.471 7.121-10.589 7.121-17.354v-24.774z" opacity="1" data-original="#4e3d4d"></path><path fill="#615260" d="m411.705 383.088-53.823-16.573-14.306 4.396L313.725 512H429.42c2.896 0 5.676-.495 8.259-1.408l8.993-17.11v-63.041c-.001-21.747-14.183-40.953-34.967-47.353zM92.773 377.362c-20.785 6.4-34.967 25.606-34.967 47.354v62.51C57.806 500.908 68.898 512 82.58 512h115.531l-33.033-156.903z" opacity="1" data-original="#615260"></path><path fill="#eceaec" d="M196.674 330.442c-8.22-4.567-18.588-1.359-22.793 7.052l-8.802 17.604 23.117 40.455c5.145 9.003 17.216 11.094 25.089 4.346l42.633-36.543zM297.33 340.348l-41.412 23.007 42.633 36.542c7.873 6.748 19.944 4.657 25.089-4.346l14.976-26.207z" opacity="1" data-original="#eceaec"></path><path fill="#dbd8db" d="m315.162 330.442-17.832 9.906c0 9.135 9.366 18.966 19.462 22.138l21.823 6.858 8.142-14.248-8.802-17.604c-4.205-8.409-14.573-11.617-22.793-7.05z" opacity="1" data-original="#dbd8db"></path><path fill="#ffd18d" d="M330.324 85.285c-6.494-3.761-14.328-5.359-22.42-3.89l-28.351 5.15a132.155 132.155 0 0 1-47.267-.006l-28.261-5.142c-20.278-3.689-38.945 11.888-38.945 32.499v34.75c0 9.122-7.395 16.516-16.516 16.516H136.26c-11.402 0-20.645 9.243-20.645 20.646 0 11.401 9.243 20.645 20.645 20.645h12.804c3.808 49.888 41.631 90.262 90.36 97.823l16.576-1.3c59.051-7.737 82.508-58.235 82.508-103.52v-92.655z" opacity="1" data-original="#ffd18d" class=""></path><path fill="#70393c" d="M206.372 189.935a8.256 8.256 0 0 1-8.258-8.258v-8.258c0-4.56 3.694-8.258 8.258-8.258s8.258 3.698 8.258 8.258v8.258a8.256 8.256 0 0 1-8.258 8.258zM305.469 189.935a8.256 8.256 0 0 1-8.258-8.258v-8.258c0-4.56 3.694-8.258 8.258-8.258s8.258 3.698 8.258 8.258v8.258a8.256 8.256 0 0 1-8.258 8.258z" opacity="1" data-original="#70393c"></path><path fill="#f4aa73" d="M255.92 247.742c-12.492 0-24.887-2.097-35.839-6.06a8.264 8.264 0 0 1-4.96-10.577 8.262 8.262 0 0 1 10.573-4.956c18.355 6.645 42.097 6.645 60.452 0a8.265 8.265 0 0 1 10.573 4.956 8.264 8.264 0 0 1-4.96 10.577c-10.952 3.963-23.347 6.06-35.839 6.06z" opacity="1" data-original="#f4aa73"></path><path fill="#7a4646" d="M214.638 156.903c-.581 0-1.169-.06-1.758-.185l-16.516-3.577c-4.452-.968-7.29-5.363-6.323-9.819.968-4.464 5.379-7.274 9.823-6.327l16.516 3.577a8.259 8.259 0 0 1-1.742 16.331zM297.203 156.903a8.26 8.26 0 0 1-1.742-16.331l16.516-3.577c4.452-.948 8.855 1.863 9.823 6.327.968 4.456-1.871 8.851-6.323 9.819l-16.516 3.577a8.465 8.465 0 0 1-1.758.185z" opacity="1" data-original="#7a4646"></path><path fill="#4e3d4d" d="M437.678 510.592c9.6-3.413 16.516-12.595 16.516-23.367v-62.51c0-21.748-14.182-40.954-34.967-47.354l-72.305-22.265-3.346 15.814 70.788 22.239c13.944 4.29 23.315 16.98 23.315 31.569v85.874z" opacity="1" data-original="#4e3d4d"></path><path fill="#ffe077" d="M138.637 438.056c-3.144-1.015-6.408-2.137-9.468-3.331v-14.903c5.248.073 8.554 2.433 8.863 2.665 3.5 2.847 8.645 2.375 11.54-1.077 2.944-3.488 2.492-8.698-.992-11.633-4.395-3.698-15.46-8.968-29.097-5.202-8.96 2.468-15.524 9.617-17.137 18.661-1.435 8.036 1.516 15.774 7.685 20.194 4.261 3.055 10.123 5.732 19.137 8.84v19.578c-.474.046-.854.228-1.355.231-7.468.06-9.815-.286-15.532-3.702-3.887-2.343-8.976-1.06-11.323 2.851a8.258 8.258 0 0 0 2.855 11.327c8.54 5.105 13.976 6.044 23.169 6.044.306 0 .613-.004.927-.004 16.476-.097 26.903-11.851 28.685-23.407 1.906-12.341-5.142-22.99-17.957-27.132z" opacity="1" data-original="#ffe077"></path><path fill="#ffd05b" d="M129.169 495.484a8.256 8.256 0 0 1-8.258-8.258v-82.581c0-4.56 3.694-8.258 8.258-8.258s8.258 3.698 8.258 8.258v82.581a8.256 8.256 0 0 1-8.258 8.258z" opacity="1" data-original="#ffd05b"></path><path fill="#fbbd80" d="M375.743 165.161H363.356c-9.121 0-16.516-7.395-16.516-16.516v-34.749c0-12.354-6.775-22.939-16.516-28.611v112.909c0 53.677-39.447 98.141-90.901 106.082a107.712 107.712 0 0 0 16.578 1.273c56.503 0 102.708-43.678 106.938-99.097h12.805c11.402 0 20.645-9.243 20.645-20.645-.001-11.403-9.244-20.646-20.646-20.646z" opacity="1" data-original="#fbbd80"></path></g></svg>