<svg width="60" height="61" viewBox="0 0 60 61" fill="none" xmlns="http://www.w3.org/2000/svg">
<path d="M28.352 5.38351C29.3333 5.03785 30.4153 5.03785 31.4218 5.38351L48.0036 10.9459C49.8656 11.5588 51.1237 13.2773 51.1237 15.1895L51.2497 31.7836C51.2746 36.8092 49.4378 41.6876 46.0661 45.5144C44.5312 47.2795 42.5434 48.7749 40.0272 50.1232L31.0947 54.9036C30.8179 55.0507 30.5159 55.1242 30.214 55.1242C29.912 55.1242 29.5849 55.0507 29.3081 54.9036L20.3001 50.2458C17.7588 48.922 15.7709 47.4511 14.2109 45.7105C10.7889 41.9352 8.87654 37.0568 8.85138 32.0312L8.75036 15.4322C8.72557 13.52 9.98367 11.8064 11.8205 11.1666L28.352 5.38351ZM26.5906 23.5221C25.8609 22.8112 24.6783 22.8112 23.9235 23.5221C23.1938 24.26 23.1938 25.4122 23.9235 26.1231L27.3203 29.4302L23.9235 32.7421C23.1938 33.4531 23.1938 34.6298 23.9235 35.3407C24.3009 35.7084 24.779 35.8776 25.257 35.8776C25.7603 35.8776 26.2384 35.7084 26.5906 35.3407L29.9875 32.0312L33.3844 35.3407C33.7618 35.7084 34.2399 35.8776 34.718 35.8776C35.1961 35.8776 35.6993 35.7084 36.0516 35.3407C36.7813 34.6298 36.7813 33.4531 36.0516 32.7421L32.6547 29.4302L36.0516 26.1231C36.7813 25.4122 36.7813 24.26 36.0516 23.5221C35.3219 22.8112 34.1141 22.8112 33.3844 23.5221L29.9875 26.8341L26.5906 23.5221Z" fill="#D62D30"/>
</svg>
