<svg width="61" height="61" viewBox="0 0 61 61" fill="none" xmlns="http://www.w3.org/2000/svg">
<path d="M31.8043 5.464L48.3979 11.0314C50.2553 11.6516 51.5112 13.3579 51.5213 15.27L51.627 31.8717C51.6597 36.9046 49.8249 41.7856 46.4649 45.6099C44.9196 47.3652 42.9388 48.8729 40.4094 50.2212L31.4897 54.9894C31.2104 55.1365 30.9033 55.2125 30.5937 55.215C30.2842 55.2174 29.9746 55.1439 29.6977 54.9992L20.695 50.3414C18.1379 49.0151 16.1395 47.5295 14.579 45.7987C11.1637 42.0136 9.26599 37.1547 9.23327 32.1144L9.1275 15.525C9.1175 13.6104 10.3507 11.8919 12.1981 11.2471L28.7287 5.48116C29.7103 5.13304 30.8051 5.12569 31.8043 5.464ZM39.7394 23.2617C38.997 22.5483 37.8015 22.5532 37.0691 23.2764L28.6477 31.5772L25.1996 28.2628C24.4572 27.5494 23.2642 27.5568 22.5293 28.28C21.7969 29.0032 21.8044 30.1652 22.5469 30.8786L27.3364 35.4874C27.7089 35.8453 28.1922 36.0218 28.6754 36.017C29.1586 36.0145 29.6393 35.8331 30.0068 35.4702L39.7545 25.8603C40.4869 25.1371 40.4794 23.9751 39.7394 23.2617Z" fill="#06853C"/>
</svg>
