<svg width="61" height="61" viewBox="0 0 61 61" fill="none" xmlns="http://www.w3.org/2000/svg">
<path d="M31.8043 5.71205L48.3979 11.2794C50.2553 11.8997 51.5112 13.6059 51.5213 15.5181L51.627 32.1197C51.6597 37.1527 49.8249 42.0336 46.4649 45.858C44.9196 47.6133 42.9388 49.1209 40.4094 50.4693L31.4897 55.2375C31.2104 55.3846 30.9033 55.4605 30.5937 55.4631C30.2842 55.4655 29.9746 55.3919 29.6977 55.2473L20.695 50.5894C18.1379 49.2631 16.1395 47.7775 14.579 46.0467C11.1637 42.2616 9.26599 37.4027 9.23327 32.3624L9.1275 15.773C9.1175 13.8584 10.3507 12.1399 12.1981 11.4952L28.7287 5.72921C29.7103 5.38109 30.8051 5.37374 31.8043 5.71205Z" fill="#F57438"/>
<path d="M30.3774 31.3047L30.3774 20.6306" stroke="white" stroke-width="4" stroke-linecap="round"/>
<circle cx="30.3774" cy="38.1991" r="2.09607" fill="white"/>
</svg>
