<svg xmlns="http://www.w3.org/2000/svg" version="1.1" xmlns:xlink="http://www.w3.org/1999/xlink" width="512" height="512" x="0" y="0" viewBox="0 0 512 512" style="enable-background:new 0 0 512 512" xml:space="preserve" class=""><g><g fill-rule="evenodd" clip-rule="evenodd"><path fill="#c2c2c1" d="m373.4 115.5 20.4 20.4c6 6 6 15.7 0 21.7l-7.9 7.9c-5 5-6 12.4-2.4 18.5 7 12.1 12.3 25 15.8 38.2 1.8 6.8 7.7 11.4 14.8 11.4h11.2c8.4 0 15.3 6.9 15.3 15.3v28.8c0 8.4-6.9 15.3-15.3 15.3H414c-7 0-13 4.6-14.8 11.4-3.5 13.2-8.8 26-15.8 38.2-3.5 6.1-2.5 13.5 2.4 18.5l7.9 7.9c6 6 6 15.7 0 21.7l-20.4 20.4c-6 6-15.7 6-21.6 0l-7.9-7.9c-5-5-12.4-6-18.5-2.4-12.1 7-24.9 12.3-38.2 15.8-6.8 1.8-11.3 7.8-11.3 14.8v11.2c0 8.4-6.9 15.3-15.3 15.3h-28.8c-8.4 0-15.3-6.9-15.3-15.3v-11.2c0-7-4.6-13-11.3-14.8-13.2-3.5-26.1-8.8-38.2-15.8-6.1-3.5-13.5-2.6-18.5 2.4l-7.9 7.9c-6 6-15.7 6-21.6 0l-20.4-20.4c-6-6-6-15.7 0-21.7l7.9-7.9c5-5 6-12.4 2.4-18.5-7-12.1-12.3-25-15.8-38.2-1.8-6.8-7.7-11.4-14.8-11.4H67c-8.4 0-15.3-6.9-15.3-15.3v-28.8c0-8.4 6.9-15.3 15.3-15.3h11.2c7 0 13-4.6 14.8-11.4 3.5-13.2 8.8-26 15.8-38.2 3.5-6.1 2.5-13.5-2.4-18.5l-7.9-7.9c-6-6-6-15.7 0-21.7l20.4-20.4c6-6 15.7-6 21.6 0l7.9 7.9c5 5 12.4 6 18.5 2.4 12.1-7 24.9-12.3 38.2-15.8 6.8-1.8 11.3-7.8 11.3-14.8V84.1c0-8.4 6.9-15.3 15.3-15.3h28.8c8.4 0 15.3 6.9 15.3 15.3v11.2c0 7 4.6 13 11.4 14.8 13.2 3.5 26.1 8.8 38.2 15.8 6.1 3.5 13.5 2.6 18.5-2.4l7.9-7.9c5.9-6 15.7-6 21.6-.1z" opacity="1" data-original="#c2c2c1" class=""></path><path fill="#999999" d="M440.6 263.2v14.4c0 8.4-6.9 15.3-15.3 15.3H414c-7 0-13 4.6-14.8 11.4-3.5 13.2-8.8 26-15.8 38.2-3.5 6.1-2.5 13.5 2.4 18.5l7.9 7.9c6 6 6 15.7 0 21.7L373.3 411c-6 6-15.7 6-21.6 0l-7.9-7.9c-5-5-12.4-6-18.5-2.4-12.1 7-24.9 12.3-38.2 15.8-6.8 1.8-11.3 7.8-11.3 14.8v11.2c0 8.4-6.9 15.3-15.3 15.3h-28.8c-8.4 0-15.3-6.9-15.3-15.3v-11.2c0-7-4.6-13-11.3-14.8-13.2-3.5-26.1-8.8-38.2-15.8-6.1-3.5-13.5-2.6-18.5 2.4l-7.9 7.9c-6 6-15.7 6-21.6 0l-20.4-20.4c-6-6-6-15.7 0-21.7l7.9-7.9c5-5 6-12.4 2.4-18.5-7-12.1-12.3-25-15.8-38.2-1.8-6.8-7.7-11.4-14.8-11.4H67c-8.4 0-15.3-6.9-15.3-15.3v-14.4z" opacity="1" data-original="#999999"></path><path fill="#80311a" d="M328.1 181.2c45.3 45.3 45.3 118.7 0 164s-118.7 45.3-164 0-45.3-118.7 0-164 118.7-45.3 164 0z" opacity="1" data-original="#80311a" class=""></path><path fill="#fcb13b" d="M357.8 294.5c-5.2 18.6-15.1 36.1-29.7 50.7-45.3 45.3-118.7 45.3-164 0-8.8-8.8-15.9-18.6-21.2-29.1-14.7-39.7-6.2-86 25.7-117.8 43.6-43.6 114.2-43.6 157.8 0 26.3 26.1 36.7 62.1 31.4 96.2z" opacity="1" data-original="#fcb13b" class=""></path><path fill="#80311a" d="M277.2 209.3c29.8 17.2 40 55.2 22.8 85s-55.2 39.9-85 22.8c-29.8-17.2-40-55.2-22.8-85s55.3-40 85-22.8z" opacity="1" data-original="#80311a" class=""></path><path fill="#dd6e42" d="M299.3 295.6c-17.5 28.8-54.9 38.4-84.2 21.5-15.6-9-25.9-23.8-29.6-40.1.4-9.1 2.9-18.2 7.7-26.6 16-27.8 51.5-37.3 79.3-21.2 23.7 13.5 34.1 41.3 26.8 66.4z" opacity="1" data-original="#dd6e42"></path><path fill="#ed2024" d="m370.7 76.8-47.3 47.9c.7.4 1.3.7 1.9 1.1 6.1 3.5 13.5 2.6 18.5-2.4l7.9-7.9c6-6 15.7-6 21.6 0l20.4 20.4c6 6 6 15.7 0 21.7l-7.9 7.9c-5 5-6 12.4-2.4 18.5.5.9 1 1.8 1.6 2.7l47.5-48.1L478 92.3c-6.9-31.8-30.3-54.9-62.2-61.3zM225.3 224.2c15.2-5 32.3-3.7 47.2 4.9 16.2 9.4 26.2 25.5 28.5 42.7l-52.9 53.6L132 443.2 34 481l35.9-99.2c107.8-109.3 77.5-78.6 155.4-157.6z" opacity="1" data-original="#ed2024" class=""></path><path fill="#b92025" d="m383.7 125.8 10.1 10.1c6 6 6 15.7 0 21.7l-7.9 7.9c-5 5-6 12.4-2.4 18.5.5.9 1 1.8 1.6 2.7l47.5-48.1L478 92.3c-3.4-15.9-11-29.7-21.7-40.2zM34 481l244.3-248.1c12.9 9.6 20.8 23.8 22.8 38.9l-52.9 53.6L132 443.2z" opacity="1" data-original="#b92025"></path><path fill="#aeb0b0" d="m415.9 31-45.1 45.8 61.8 61.7L478 92.3c-6.9-31.8-30.2-54.9-62.1-61.3z" opacity="1" data-original="#aeb0b0"></path></g></g></svg>