<svg width="200" height="200" viewBox="0 0 200 200" fill="none" xmlns="http://www.w3.org/2000/svg">
<path d="M90.625 106.25V115.625H21.875V106.25H31.25H81.25H90.625Z" fill="#A8B7D4"/>
<path d="M21.875 96.875H31.25V106.25H21.875V96.875Z" fill="#5C6979"/>
<path d="M81.25 96.875H90.625V106.25H81.25V96.875Z" fill="#5C6979"/>
<path d="M125 131.25V143.75H106.25L107.281 131.25H125Z" fill="#EDF4FA"/>
<path d="M125 131.25H140.625V143.75H125V131.25Z" fill="#EDF4FA"/>
<path d="M140.625 131.25H156.25V143.75H140.625V131.25Z" fill="#EDF4FA"/>
<path d="M173.969 131.25L175 143.75H156.25V131.25H173.969Z" fill="#EDF4FA"/>
<path d="M172.906 118.75L173.969 131.25H156.25V118.75H172.906Z" fill="#EDF4FA"/>
<path d="M140.625 118.75H156.25V131.25H140.625V118.75Z" fill="#EDF4FA"/>
<path d="M125 118.75H140.625V131.25H125V118.75Z" fill="#EDF4FA"/>
<path d="M125 118.75V131.25H107.281L108.344 118.75H125Z" fill="#EDF4FA"/>
<path d="M125 106.25V118.75H108.344L109.375 106.25H125Z" fill="#EDF4FA"/>
<path d="M125 106.25H140.625V118.75H125V106.25Z" fill="#EDF4FA"/>
<path d="M140.625 106.25H156.25V118.75H140.625V106.25Z" fill="#EDF4FA"/>
<path d="M171.875 106.25L172.906 118.75H156.25V106.25H171.875Z" fill="#EDF4FA"/>
<path d="M153.125 84.375V90.625H128.125V84.375V71.875H153.125V84.375Z" fill="#BD6F08"/>
<path d="M106.25 62.5H175V12.5H106.25V62.5ZM184.375 9.375V65.625C184.37 67.2811 183.71 68.8679 182.539 70.039C181.368 71.21 179.781 71.8701 178.125 71.875H103.125C101.469 71.8701 99.8821 71.21 98.711 70.039C97.54 68.8679 96.8799 67.2811 96.875 65.625V9.375C96.8799 7.71892 97.54 6.13208 98.711 4.96105C99.8821 3.79001 101.469 3.12995 103.125 3.125H178.125C179.781 3.12995 181.368 3.79001 182.539 4.96105C183.71 6.13208 184.37 7.71892 184.375 9.375Z" fill="#FFAD39"/>
<path d="M106.25 12.5H175V62.5H106.25V12.5Z" fill="#EDF4FA"/>
<path d="M59.375 171.875H140.625V184.375H59.375V171.875Z" fill="#E03E3E"/>
<path d="M196.875 160.531V184.375C196.875 187.69 195.558 190.87 193.214 193.214C190.87 195.558 187.69 196.875 184.375 196.875H15.625C12.3098 196.875 9.13037 195.558 6.78617 193.214C4.44196 190.87 3.125 187.69 3.125 184.375V160.531C3.125 160.125 3.125 159.75 3.15625 159.375H196.844C196.875 159.75 196.875 160.125 196.875 160.531ZM140.625 184.375V171.875H59.375V184.375H140.625Z" fill="#FC9E20"/>
<path d="M173.969 131.25L172.906 118.75L171.875 106.25H109.375L108.344 118.75L107.281 131.25L106.25 143.75H175L173.969 131.25ZM196.719 158.219C196.75 158.625 196.812 159 196.844 159.375H3.15625C3.1875 159 3.25 158.625 3.28125 158.219L11.8125 89.8437C12.0077 88.3322 12.7465 86.9435 13.891 85.9371C15.0354 84.9306 16.5072 84.3754 18.0312 84.375H31.25V96.875H21.875V115.625H90.625V96.875H81.25V84.375H128.125V90.625H153.125V84.375H181.969C183.493 84.3754 184.965 84.9306 186.109 85.9371C187.253 86.9435 187.992 88.3322 188.187 89.8437L196.719 158.219Z" fill="#FEBD55"/>
<path d="M140.625 53.125C133.995 53.125 127.636 50.4911 122.947 45.8027C118.259 41.1143 115.625 34.7554 115.625 28.125V12.5H106.25V62.5H175V53.125H140.625Z" fill="#C1CFE8"/>
<path d="M140.625 78.125H153.125V71.875H128.125V90.625H134.375V84.375C134.375 82.7174 135.033 81.1277 136.206 79.9556C137.378 78.7835 138.967 78.125 140.625 78.125Z" fill="#9E5D07"/>
<path d="M190.625 184.375H37.5C34.1848 184.375 31.0054 183.058 28.6612 180.714C26.317 178.37 25 175.19 25 171.875V159.375H3.15625C3.125 159.75 3.125 160.125 3.125 160.531V184.375C3.125 187.69 4.44196 190.87 6.78617 193.214C9.13037 195.558 12.3098 196.875 15.625 196.875H184.375C187.69 196.875 190.87 195.558 193.214 193.214C195.558 190.87 196.875 187.69 196.875 184.375V178.125C196.875 179.783 196.217 181.372 195.044 182.544C193.872 183.717 192.283 184.375 190.625 184.375Z" fill="#E68C15"/>
<path d="M27.1687 133.337C27.429 130.212 28.8545 127.299 31.1625 125.176C33.4704 123.053 36.4921 121.874 39.6281 121.875H84.375C85.2038 121.875 85.9987 121.546 86.5847 120.96C87.1708 120.374 87.5 119.579 87.5 118.75V115.625H21.875V96.875H31.25V84.375H18.0312C16.5072 84.3754 15.0354 84.9306 13.891 85.9371C12.7465 86.9435 12.0077 88.3322 11.8125 89.8437L3.28125 158.219C3.25 158.625 3.1875 159 3.15625 159.375H25L27.1687 133.337Z" fill="#FC9E20"/>
<path d="M128.125 84.375V90.625H153.125L148.706 95.0437C147.534 96.2159 145.945 96.8746 144.287 96.875H104.687C103.444 96.875 102.252 96.3811 101.373 95.5021C100.494 94.623 100 93.4307 100 92.1875C100 90.9443 100.494 89.752 101.373 88.8729C102.252 87.9939 103.444 87.5 104.687 87.5H118.75V84.375H128.125Z" fill="#FC9E20"/>
<path d="M59.375 171.875V184.375H68.75V181.25C68.75 180.421 69.0792 179.626 69.6653 179.04C70.2513 178.454 71.0462 178.125 71.875 178.125H128.125C128.954 178.125 129.749 178.454 130.335 179.04C130.921 179.626 131.25 180.421 131.25 181.25V184.375H140.625V171.875H59.375Z" fill="#A81E29"/>
<path d="M31.25 96.875V106.25H21.875V103.125H25C25.8288 103.125 26.6237 102.796 27.2097 102.21C27.7958 101.624 28.125 100.829 28.125 100V96.875H31.25Z" fill="#393D48"/>
<path d="M81.25 96.875V106.25H90.625V103.125H87.5C86.6712 103.125 85.8763 102.796 85.2903 102.21C84.7042 101.624 84.375 100.829 84.375 100V96.875H81.25Z" fill="#393D48"/>
<path d="M21.875 106.25V115.625H90.625V106.25H87.5C87.5 107.908 86.8415 109.497 85.6694 110.669C84.4973 111.842 82.9076 112.5 81.25 112.5H31.25C29.5924 112.5 28.0027 111.842 26.8306 110.669C25.6585 109.497 25 107.908 25 106.25H21.875Z" fill="#8394B2"/>
<path d="M81.25 84.375V96.875V106.25H31.25V96.875V84.375V43.75L37.5 50L43.75 43.75L50 50L56.25 43.75L62.5 50L68.75 43.75L75 50L81.25 43.75V84.375Z" fill="#EDF4FA"/>
<path d="M31.25 100H81.25V106.25H31.25V100Z" fill="#D6E0EB"/>
<path d="M103.125 75H125V90.625C125 91.4538 125.329 92.2487 125.915 92.8347C126.501 93.4208 127.296 93.75 128.125 93.75H153.125C153.954 93.75 154.749 93.4208 155.335 92.8347C155.921 92.2487 156.25 91.4538 156.25 90.625V75H178.125C180.611 75 182.996 74.0123 184.754 72.2541C186.512 70.496 187.5 68.1114 187.5 65.625V9.375C187.5 6.8886 186.512 4.50403 184.754 2.74587C182.996 0.98772 180.611 0 178.125 0L103.125 0C100.639 0 98.254 0.98772 96.4959 2.74587C94.7377 4.50403 93.75 6.8886 93.75 9.375V65.625C93.75 68.1114 94.7377 70.496 96.4959 72.2541C98.254 74.0123 100.639 75 103.125 75ZM150 87.5H131.25V75H150V87.5ZM100 9.375C100 8.5462 100.329 7.75134 100.915 7.16529C101.501 6.57924 102.296 6.25 103.125 6.25H178.125C178.954 6.25 179.749 6.57924 180.335 7.16529C180.921 7.75134 181.25 8.5462 181.25 9.375V65.625C181.25 66.4538 180.921 67.2487 180.335 67.8347C179.749 68.4208 178.954 68.75 178.125 68.75H103.125C102.296 68.75 101.501 68.4208 100.915 67.8347C100.329 67.2487 100 66.4538 100 65.625V9.375Z" fill="black"/>
<path d="M199.831 157.828L191.284 89.4625C191.001 87.195 189.899 85.109 188.186 83.5967C186.473 82.0844 184.266 81.2499 181.981 81.25H159.375V87.5H181.981C182.743 87.4995 183.479 87.7774 184.051 88.2815C184.622 88.7857 184.99 89.4813 185.084 90.2375L193.631 158.597C193.71 159.243 193.75 159.893 193.75 160.544V184.375C193.75 186.861 192.762 189.246 191.004 191.004C189.246 192.762 186.861 193.75 184.375 193.75H15.625C13.1386 193.75 10.754 192.762 8.99587 191.004C7.23772 189.246 6.25 186.861 6.25 184.375V160.544C6.25025 159.895 6.2899 159.247 6.36875 158.603L14.9156 90.2375C15.0101 89.4813 15.3777 88.7857 15.9492 88.2815C16.5207 87.7774 17.2567 87.4995 18.0187 87.5H25V81.25H18.0187C15.7336 81.2499 13.5271 82.0844 11.8139 83.5967C10.1008 85.109 8.99898 87.195 8.71563 89.4625L0.16875 157.834C0.0578839 158.733 0.00153088 159.638 0 160.544L0 184.375C0.00496206 188.517 1.65276 192.489 4.58194 195.418C7.51112 198.347 11.4825 199.995 15.625 200H184.375C188.517 199.995 192.489 198.347 195.418 195.418C198.347 192.489 199.995 188.517 200 184.375V160.544C199.998 159.636 199.942 158.729 199.831 157.828Z" fill="black"/>
<path d="M87.5 81.25H121.875V87.5H87.5V81.25Z" fill="black"/>
<path d="M21.875 93.7493C21.0462 93.7493 20.2513 94.0786 19.6653 94.6646C19.0792 95.2507 18.75 96.0455 18.75 96.8743V115.624C18.75 116.453 19.0792 117.248 19.6653 117.834C20.2513 118.42 21.0462 118.749 21.875 118.749H90.625C91.4538 118.749 92.2487 118.42 92.8347 117.834C93.4208 117.248 93.75 116.453 93.75 115.624V96.8743C93.75 96.0455 93.4208 95.2507 92.8347 94.6646C92.2487 94.0786 91.4538 93.7493 90.625 93.7493H84.375V43.7493C84.3749 43.1314 84.1915 42.5273 83.8481 42.0135C83.5047 41.4997 83.0167 41.0993 82.4458 40.8628C81.8749 40.6264 81.2466 40.5645 80.6405 40.685C80.0344 40.8055 79.4777 41.1031 79.0406 41.54L75 45.5806L70.9594 41.54C70.3733 40.9541 69.5786 40.625 68.75 40.625C67.9214 40.625 67.1266 40.9541 66.5406 41.54L62.5 45.5806L58.4594 41.54C57.8734 40.9541 57.0786 40.625 56.25 40.625C55.4214 40.625 54.6266 40.9541 54.0406 41.54L50 45.5806L45.9594 41.54C45.3733 40.9541 44.5786 40.625 43.75 40.625C42.9214 40.625 42.1266 40.9541 41.5406 41.54L37.5 45.5806L33.4594 41.54C33.0223 41.1031 32.4656 40.8055 31.8595 40.685C31.2534 40.5645 30.6251 40.6264 30.0542 40.8628C29.4833 41.0993 28.9953 41.4997 28.6519 42.0135C28.3085 42.5273 28.1251 43.1314 28.125 43.7493V93.7493H21.875ZM25 99.9993H28.125V103.124H25V99.9993ZM25 112.499V109.374H87.5V112.499H25ZM87.5 99.9993V103.124H84.375V99.9993H87.5ZM34.375 51.2931L35.2906 52.2087C35.8766 52.7946 36.6714 53.1237 37.5 53.1237C38.3286 53.1237 39.1233 52.7946 39.7094 52.2087L43.75 48.1681L47.7906 52.2087C48.3766 52.7946 49.1714 53.1237 50 53.1237C50.8286 53.1237 51.6234 52.7946 52.2094 52.2087L56.25 48.1681L60.2906 52.2087C60.8766 52.7946 61.6714 53.1237 62.5 53.1237C63.3286 53.1237 64.1233 52.7946 64.7094 52.2087L68.75 48.1681L72.7906 52.2087C73.3766 52.7946 74.1714 53.1237 75 53.1237C75.8286 53.1237 76.6233 52.7946 77.2094 52.2087L78.125 51.2931V103.124H34.375V51.2931Z" fill="black"/>
<path d="M171.875 103.125H109.375C108.589 103.122 107.831 103.416 107.252 103.947C106.673 104.478 106.315 105.208 106.25 105.991L103.125 143.491C103.089 143.922 103.143 144.357 103.284 144.766C103.425 145.176 103.649 145.552 103.943 145.87C104.237 146.188 104.594 146.442 104.991 146.615C105.388 146.788 105.817 146.877 106.25 146.875H175C175.433 146.877 175.862 146.788 176.259 146.615C176.656 146.442 177.013 146.188 177.307 145.87C177.601 145.552 177.825 145.176 177.966 144.766C178.107 144.357 178.161 143.922 178.125 143.491L175 105.991C174.935 105.208 174.577 104.478 173.998 103.947C173.419 103.416 172.661 103.122 171.875 103.125ZM169.522 115.625H159.375V109.375H169L169.522 115.625ZM128.125 121.875H137.5V128.125H128.125V121.875ZM121.875 128.125H110.688L111.209 121.875H121.875V128.125ZM137.5 115.625H128.125V109.375H137.5V115.625ZM143.75 109.375H153.125V115.625H143.75V109.375ZM137.5 134.375V140.625H128.125V134.375H137.5ZM143.75 134.375H153.125V140.625H143.75V134.375ZM143.75 128.125V121.875H153.125V128.125H143.75ZM159.375 121.875H170.041L170.563 128.125H159.375V121.875ZM121.875 109.375V115.625H111.728L112.25 109.375H121.875ZM110.169 134.375H121.875V140.625H109.647L110.169 134.375ZM159.375 140.625V134.375H171.081L171.603 140.625H159.375Z" fill="black"/>
<path d="M21.875 156.25H190.625V162.5H21.875V156.25Z" fill="black"/>
<path d="M9.375 156.25H15.625V162.5H9.375V156.25Z" fill="black"/>
<path d="M106.25 65.625H175C175.829 65.625 176.624 65.2958 177.21 64.7097C177.796 64.1237 178.125 63.3288 178.125 62.5V28.125H171.875V59.375H109.375V15.625H171.875V21.875H178.125V12.5C178.125 11.6712 177.796 10.8763 177.21 10.2903C176.624 9.70424 175.829 9.375 175 9.375H106.25C105.421 9.375 104.626 9.70424 104.04 10.2903C103.454 10.8763 103.125 11.6712 103.125 12.5V62.5C103.125 63.3288 103.454 64.1237 104.04 64.7097C104.626 65.2958 105.421 65.625 106.25 65.625Z" fill="black"/>
<path d="M59.375 168.75C58.5462 168.75 57.7513 169.079 57.1653 169.665C56.5792 170.251 56.25 171.046 56.25 171.875V184.375C56.25 185.204 56.5792 185.999 57.1653 186.585C57.7513 187.171 58.5462 187.5 59.375 187.5H140.625C141.454 187.5 142.249 187.171 142.835 186.585C143.421 185.999 143.75 185.204 143.75 184.375V171.875C143.75 171.046 143.421 170.251 142.835 169.665C142.249 169.079 141.454 168.75 140.625 168.75H59.375ZM137.5 181.25H62.5V175H137.5V181.25Z" fill="black"/>
<path d="M40.625 56.25H46.875V62.5H40.625V56.25Z" fill="black"/>
<path d="M53.125 56.25H59.375V62.5H53.125V56.25Z" fill="black"/>
<path d="M40.625 65.625H46.875V71.875H40.625V65.625Z" fill="black"/>
<path d="M53.125 65.625H59.375V71.875H53.125V65.625Z" fill="black"/>
<path d="M40.625 78.125H71.875V84.375H40.625V78.125Z" fill="black"/>
<path d="M40.625 90.625H71.875V96.875H40.625V90.625Z" fill="black"/>
<path d="M115.625 21.875H121.875V28.125H115.625V21.875Z" fill="black"/>
<path d="M128.125 21.875H134.375V28.125H128.125V21.875Z" fill="black"/>
<path d="M115.625 31.25H121.875V37.5H115.625V31.25Z" fill="black"/>
<path d="M128.125 31.25H134.375V37.5H128.125V31.25Z" fill="black"/>
</svg>
