<svg xmlns="http://www.w3.org/2000/svg" version="1.1" xmlns:xlink="http://www.w3.org/1999/xlink" width="512" height="512" x="0" y="0" viewBox="0 0 509.951 509.951" style="enable-background:new 0 0 512 512" xml:space="preserve" class=""><g><g fill="#cbe6fd"><path d="m154.469 254.973-11.064-15H7.469v30h135.936zM188.926 160.217 119.159 90.45h-20.19l-1.023 21.213 69.767 69.767h19.089zM167.713 328.515 71.858 424.37l3.578 19.352 17.635 1.862 95.855-95.856-3.124-21.213z" fill="#cbe6fd" opacity="1" data-original="#cbe6fd" class=""></path></g><path fill="#a1d9fd" d="M423.08 115.574V96.473l-21.213-2.111-65.855 65.855 1.207 21.213h20.005zM351.559 335.276l39.211 39.211 19.449-1.765 1.764-19.448-43.027-43.027-18.987 2.226z" opacity="1" data-original="#a1d9fd"></path><path fill="#cbe6fd" d="M247.469 59.973v75.935l7.07 10.065 7.93-11 10-34.25-10-40.75zM247.469 479.972h15l9.75-52.967-9.75-52.033-7.486-11.999-7.514 11.063z" opacity="1" data-original="#cbe6fd" class=""></path><path fill="#a1d9fd" d="m262.469 134.973 7.544 11 7.456-10.065V59.973h-15zM277.469 479.972V374.036l-7.915-11.063-7.085 11.999v105z" opacity="1" data-original="#a1d9fd"></path><path fill="#543f85" d="M142.469 254.973c0 66.168 53.832 119.999 120 119.999l15-119.999-15-120c-66.169 0-120 53.831-120 120z" opacity="1" data-original="#543f85" class=""></path><path fill="#403069" d="M262.469 134.973v239.999c66.168 0 120-53.831 120-119.999 0-66.169-53.832-120-120-120z" opacity="1" data-original="#403069" class=""></path><path fill="#e7f2ff" d="M172.469 254.973c0 49.626 40.374 90 90 90l15-90-15-90c-49.626 0-90 40.374-90 90z" opacity="1" data-original="#e7f2ff" class=""></path><path fill="#cbe6fd" d="M262.469 164.973v180c49.626 0 90-40.374 90-90s-40.374-90-90-90z" opacity="1" data-original="#cbe6fd" class=""></path><circle cx="67.469" cy="59.972" r="60" fill="#00f0c6" opacity="1" data-original="#00f0c6"></circle><path fill="#fbd62e" d="M20.649 496.792c-17.545-17.545-17.545-46.094 0-63.639 17.546-17.546 46.096-17.546 63.64 0 17.545 17.545 17.545 46.094 0 63.639-17.542 17.543-46.095 17.547-63.64 0z" opacity="1" data-original="#fbd62e"></path><path fill="#6678e8" d="M410.649 106.793c-17.546-17.546-17.546-46.095 0-63.64 17.545-17.546 46.094-17.545 63.639-.001 17.546 17.546 17.546 46.095 0 63.64v.001c-17.545 17.544-46.093 17.544-63.639 0z" opacity="1" data-original="#6678e8"></path><path fill="#e5036f" d="M400.043 447.397c-23.448-23.445-23.452-61.4 0-84.851 23.446-23.448 61.401-23.452 84.852 0 23.448 23.446 23.452 61.401 0 84.851-23.447 23.45-61.402 23.454-84.852 0z" opacity="1" data-original="#e5036f"></path><path fill="#fd4282" d="M202.469 254.973c0 33.084 26.916 60 60 60l15-60-15-60c-33.084 0-60 26.916-60 60z" opacity="1" data-original="#fd4282" class=""></path><path fill="#e5036f" d="M262.469 194.973v120c33.084 0 60-26.916 60-60s-26.916-60-60-60z" opacity="1" data-original="#e5036f"></path></g></svg>