<svg width="25" height="26" viewBox="0 0 25 26" fill="none" xmlns="http://www.w3.org/2000/svg">
<path d="M19.5 3H16.6875V1.4375C16.6875 0.925 16.2625 0.5 15.75 0.5C15.2375 0.5 14.8125 0.925 14.8125 1.4375V24.5625C14.8125 25.075 15.2375 25.5 15.75 25.5C16.2625 25.5 16.6875 25.075 16.6875 24.5625V23H19.5C22.2625 23 24.5 20.7625 24.5 18V8C24.5 5.2375 22.2625 3 19.5 3ZM5.125 3C2.3625 3 0.125 5.2375 0.125 8V18C0.125 20.7625 2.3625 23 5.125 23H11.375C12.0625 23 12.625 22.4375 12.625 21.75V4.25C12.625 3.5625 12.0625 3 11.375 3H5.125ZM5.3375 13.475C5.275 13.625 5.1875 13.7625 5.075 13.8875C4.95 14 4.8125 14.0875 4.6625 14.15C4.5125 14.2125 4.35 14.25 4.1875 14.25C4.025 14.25 3.8625 14.2125 3.7125 14.15C3.5625 14.0875 3.425 14 3.3 13.8875C3.1875 13.7625 3.1 13.625 3.025 13.475C2.96479 13.324 2.93505 13.1626 2.9375 13C2.9375 12.675 3.075 12.35 3.3 12.1125L3.4875 11.9625C3.5625 11.9125 3.6375 11.875 3.7125 11.85C3.7875 11.8125 3.8625 11.7875 3.9375 11.775C4.3625 11.6875 4.7875 11.825 5.075 12.1125C5.3 12.35 5.4375 12.675 5.4375 13C5.4375 13.1625 5.4 13.325 5.3375 13.475ZM9.7125 13.475C9.65 13.625 9.5625 13.7625 9.45 13.8875C9.325 14 9.1875 14.0875 9.0375 14.15C8.8875 14.2125 8.725 14.25 8.5625 14.25C8.4 14.25 8.2375 14.2125 8.0875 14.15C7.9375 14.0875 7.8 14 7.675 13.8875C7.5001 13.7126 7.38161 13.4894 7.33483 13.2465C7.28804 13.0036 7.31509 12.7523 7.4125 12.525C7.475 12.3625 7.5625 12.2375 7.675 12.1125C8.1375 11.65 8.975 11.65 9.45 12.1125C9.675 12.35 9.8125 12.675 9.8125 13C9.8125 13.1625 9.775 13.325 9.7125 13.475Z" fill="black"/>
</svg>
