<svg width="45" height="45" viewBox="0 0 45 45" fill="none" xmlns="http://www.w3.org/2000/svg">
<path d="M37.4437 16.4062H31.9313C29.55 16.4062 28.125 14.9812 28.125 12.6V7.0875C28.125 4.70625 29.55 3.28125 31.9313 3.28125H37.4437C39.825 3.28125 41.25 4.70625 41.25 7.0875V12.6C41.25 14.9812 39.825 16.4062 37.4437 16.4062ZM37.8563 10.2C37.6313 9.975 37.3313 9.8625 37.0312 9.8625C36.7312 9.8625 36.4312 9.975 36.2062 10.2L35.8687 10.5375V6.3375C35.8687 5.68125 35.3438 5.15625 34.6875 5.15625C34.0312 5.15625 33.5063 5.68125 33.5063 6.3375V10.5375L33.1688 10.2C32.7188 9.75 31.9687 9.75 31.5187 10.2C31.0687 10.65 31.0687 11.4 31.5187 11.85L33.8625 14.1938C33.9562 14.2875 34.0875 14.3625 34.2188 14.4187C34.2562 14.4375 34.2937 14.4375 34.3312 14.4563C34.425 14.4937 34.5187 14.5125 34.6312 14.5125C34.6687 14.5125 34.7063 14.5125 34.7438 14.5125C34.875 14.5125 34.9875 14.4937 35.1187 14.4375C35.1375 14.4375 35.1375 14.4375 35.1562 14.4375C35.2875 14.3812 35.4 14.3062 35.4938 14.2125C35.5125 14.1937 35.5125 14.1938 35.5313 14.1938L37.875 11.85C38.325 11.4 38.325 10.65 37.8563 10.2Z" fill="#E94040"/>
<path d="M3.75 21.4875V30.8625C3.75 35.1562 7.21875 38.625 11.5125 38.625H33.4688C37.7625 38.625 41.25 35.1375 41.25 30.8438V21.4875C41.25 20.2312 40.2375 19.2188 38.9813 19.2188H6.01875C4.7625 19.2187 3.75 20.2312 3.75 21.4875ZM15 32.3437H11.25C10.4812 32.3437 9.84375 31.7062 9.84375 30.9375C9.84375 30.1687 10.4812 29.5312 11.25 29.5312H15C15.7688 29.5312 16.4062 30.1687 16.4062 30.9375C16.4062 31.7062 15.7688 32.3437 15 32.3437ZM27.1875 32.3437H19.6875C18.9187 32.3437 18.2812 31.7062 18.2812 30.9375C18.2812 30.1687 18.9187 29.5312 19.6875 29.5312H27.1875C27.9562 29.5312 28.5938 30.1687 28.5938 30.9375C28.5938 31.7062 27.9562 32.3437 27.1875 32.3437Z" fill="#292D32"/>
<path d="M25.3125 8.64375V14.1375C25.3125 15.3937 24.3 16.4062 23.0438 16.4062H6.01875C4.74375 16.4062 3.75 15.3562 3.75 14.1C3.76875 11.9812 4.6125 10.05 6.01875 8.64375C7.425 7.2375 9.375 6.375 11.5125 6.375H23.0438C24.3 6.375 25.3125 7.3875 25.3125 8.64375Z" fill="#E94040"/>
</svg>
