<svg width="60" height="61" viewBox="0 0 60 61" fill="none" xmlns="http://www.w3.org/2000/svg">
<path d="M28.352 6.13132C29.3333 5.78566 30.4153 5.78566 31.4218 6.13132L48.0036 11.6937C49.8656 12.3066 51.1237 14.0251 51.1237 15.9373L51.2497 32.5314C51.2746 37.557 49.4378 42.4354 46.0661 46.2622C44.5312 48.0273 42.5434 49.5227 40.0272 50.871L31.0947 55.6514C30.8179 55.7985 30.5159 55.8721 30.214 55.8721C29.912 55.8721 29.5849 55.7985 29.3081 55.6514L20.3001 50.9936C17.7588 49.6698 15.7709 48.1989 14.2109 46.4583C10.7889 42.683 8.87654 37.8046 8.85138 32.779L8.75036 16.18C8.72557 14.2678 9.98367 12.5542 11.8205 11.9144L28.352 6.13132Z" fill="#1D81BC"/>
<path d="M31.5558 26.1313C30.0447 26.1627 27.7474 26.1964 26.6503 26.1676C26.3556 26.1598 26.038 26.4427 26.038 26.7375V29.5397C26.038 29.7698 26.2245 29.9563 26.4546 29.9563H27.4106C27.6407 29.9563 27.8273 30.1429 27.8273 30.373V35.6106C27.8273 35.8407 27.6407 36.0273 27.4106 36.0273H26.4546C26.2245 36.0273 26.038 36.2138 26.038 36.4439V40.0839C26.038 40.314 26.2245 40.5006 26.4546 40.5006H33.5454C33.7756 40.5006 33.9621 40.314 33.9621 40.0839V36.4439C33.9621 36.2138 33.7756 36.0273 33.5454 36.0273H32.3978C32.1676 36.0273 31.9811 35.8407 31.9811 35.6106V26.5483C31.9811 26.3145 31.7896 26.1264 31.5558 26.1313Z" fill="white"/>
<circle cx="29.5128" cy="21.4243" r="2.42434" fill="white"/>
</svg>
