<svg xmlns="http://www.w3.org/2000/svg" version="1.1" xmlns:xlink="http://www.w3.org/1999/xlink" width="512" height="512" x="0" y="0" viewBox="0 0 512 512" style="enable-background:new 0 0 512 512" xml:space="preserve" class=""><g><linearGradient id="a"><stop offset="0" stop-color="#60b7ff"></stop><stop offset="1" stop-color="#0268b4"></stop></linearGradient><linearGradient xlink:href="#a" id="n" x1="103.721" x2="346.145" y1="156.807" y2="375.315" gradientUnits="userSpaceOnUse"></linearGradient><linearGradient xlink:href="#a" id="o" x1="204.145" x2="204.145" y1="157.451" y2="143.761" gradientUnits="userSpaceOnUse"></linearGradient><linearGradient xlink:href="#a" id="p" x1="204.145" x2="204.145" y1="138.881" y2="125.191" gradientUnits="userSpaceOnUse"></linearGradient><linearGradient xlink:href="#a" id="q" x1="204.145" x2="204.145" y1="120.311" y2="106.62" gradientUnits="userSpaceOnUse"></linearGradient><linearGradient xlink:href="#a" id="r" x1="204.145" x2="204.145" y1="101.741" y2="88.05" gradientUnits="userSpaceOnUse"></linearGradient><linearGradient id="b"><stop offset="0" stop-color="#024c67" stop-opacity="0"></stop><stop offset=".266" stop-color="#034664" stop-opacity=".266"></stop><stop offset=".609" stop-color="#06365b" stop-opacity=".609"></stop><stop offset=".994" stop-color="#0b1b4c" stop-opacity=".994"></stop><stop offset="1" stop-color="#0b1b4c"></stop></linearGradient><linearGradient xlink:href="#b" id="s" x1="173.236" x2="152.786" y1="107.47" y2="64.935" gradientUnits="userSpaceOnUse"></linearGradient><linearGradient xlink:href="#b" id="t" x1="1340.945" x2="1320.495" y1="107.47" y2="64.935" gradientTransform="matrix(-1 0 0 1 1576 0)" gradientUnits="userSpaceOnUse"></linearGradient><linearGradient xlink:href="#b" id="u" x1="349.746" x2="401.922" y1="202.504" y2="202.504" gradientUnits="userSpaceOnUse"></linearGradient><linearGradient xlink:href="#b" id="v" x1="204.145" x2="204.145" y1="354.52" y2="409.847" gradientUnits="userSpaceOnUse"></linearGradient><linearGradient id="c"><stop offset="0" stop-color="#f5fbff"></stop><stop offset="1" stop-color="#dbd5ef"></stop></linearGradient><linearGradient xlink:href="#c" id="w" x1="204.145" x2="204.145" y1="8.762" y2="144.549" gradientUnits="userSpaceOnUse"></linearGradient><linearGradient xlink:href="#c" id="x" x1="200.104" x2="204.466" y1="9.201" y2="131.9" gradientUnits="userSpaceOnUse"></linearGradient><linearGradient id="d"><stop offset="0" stop-color="#dbd5ef" stop-opacity="0"></stop><stop offset=".285" stop-color="#d9d2ee" stop-opacity=".285"></stop><stop offset=".474" stop-color="#d4c9e9" stop-opacity=".474"></stop><stop offset=".635" stop-color="#cbbae2" stop-opacity=".635"></stop><stop offset=".779" stop-color="#bfa5d7" stop-opacity=".78"></stop><stop offset=".913" stop-color="#af8aca" stop-opacity=".913"></stop><stop offset="1" stop-color="#a274bf"></stop></linearGradient><linearGradient xlink:href="#d" id="y" x1="204.145" x2="204.145" y1="96.56" y2="-2.579" gradientUnits="userSpaceOnUse"></linearGradient><linearGradient xlink:href="#d" id="z" x1="387.568" x2="410.355" y1="98.805" y2="98.805" gradientUnits="userSpaceOnUse"></linearGradient><linearGradient xlink:href="#d" id="A" x1="339.425" x2="339.425" y1="102.013" y2="148.417" gradientUnits="userSpaceOnUse"></linearGradient><linearGradient xlink:href="#d" id="B" x1="68.866" x2="68.866" y1="102.013" y2="148.417" gradientUnits="userSpaceOnUse"></linearGradient><linearGradient id="e"><stop offset="0" stop-color="#5a5a5a"></stop><stop offset="1" stop-color="#444"></stop></linearGradient><linearGradient xlink:href="#e" id="C" x1="165.299" x2="234.653" y1="223.336" y2="362.044" gradientUnits="userSpaceOnUse"></linearGradient><linearGradient id="f"><stop offset="0" stop-color="#433f43" stop-opacity="0"></stop><stop offset=".344" stop-color="#403c40" stop-opacity=".344"></stop><stop offset=".622" stop-color="#363336" stop-opacity=".622"></stop><stop offset=".876" stop-color="#252425" stop-opacity=".876"></stop><stop offset="1" stop-color="#1a1a1a"></stop></linearGradient><linearGradient xlink:href="#f" id="D" x1="311.765" x2="251.883" y1="337.667" y2="332.677" gradientUnits="userSpaceOnUse"></linearGradient><linearGradient xlink:href="#f" id="E" x1="150.779" x2="89.371" y1="295.402" y2="295.402" gradientUnits="userSpaceOnUse"></linearGradient><linearGradient xlink:href="#f" id="F" x1="204.145" x2="204.145" y1="246.512" y2="194.2" gradientUnits="userSpaceOnUse"></linearGradient><linearGradient id="g"><stop offset="0" stop-color="#fea613"></stop><stop offset="1" stop-color="#c4573a"></stop></linearGradient><linearGradient xlink:href="#g" id="G" x1="65.629" x2="240.93" y1="287.003" y2="427.528" gradientUnits="userSpaceOnUse"></linearGradient><linearGradient id="h"><stop offset="0" stop-color="#c4573a" stop-opacity="0"></stop><stop offset=".235" stop-color="#be5539" stop-opacity=".235"></stop><stop offset=".539" stop-color="#ae4e35" stop-opacity=".539"></stop><stop offset=".879" stop-color="#934330" stop-opacity=".879"></stop><stop offset="1" stop-color="#883f2e"></stop></linearGradient><linearGradient xlink:href="#h" id="H" x1="222.801" x2="256.897" y1="364.797" y2="364.797" gradientUnits="userSpaceOnUse"></linearGradient><linearGradient xlink:href="#h" id="I" x1="95.693" x2="167.553" y1="346.393" y2="435.286" gradientUnits="userSpaceOnUse"></linearGradient><linearGradient xlink:href="#h" id="J" x1="190.936" x2="202.031" y1="317.921" y2="364.68" gradientUnits="userSpaceOnUse"></linearGradient><linearGradient xlink:href="#h" id="K" x1="101.089" x2="96.831" y1="408.608" y2="430.61" gradientUnits="userSpaceOnUse"></linearGradient><linearGradient xlink:href="#h" id="L" x1="-960.059" x2="-964.317" y1="408.608" y2="430.61" gradientTransform="matrix(-1 0 0 1 -754.03 0)" gradientUnits="userSpaceOnUse"></linearGradient><linearGradient xlink:href="#g" id="M" x1="152.89" x2="155.551" y1="288.935" y2="324.421" gradientUnits="userSpaceOnUse"></linearGradient><linearGradient xlink:href="#h" id="N" x1="123.003" x2="124.954" y1="290.769" y2="298.931" gradientUnits="userSpaceOnUse"></linearGradient><linearGradient id="i"><stop offset="0" stop-color="#fef0ae"></stop><stop offset="1" stop-color="#fac600"></stop></linearGradient><linearGradient xlink:href="#i" id="O" x1="135.93" x2="149.77" y1="282.647" y2="316.358" gradientUnits="userSpaceOnUse"></linearGradient><linearGradient id="j"><stop offset="0" stop-color="#fe9738" stop-opacity="0"></stop><stop offset="1" stop-color="#fe9738"></stop></linearGradient><linearGradient xlink:href="#j" id="P" x1="113.056" x2="113.056" y1="303.173" y2="310.942" gradientUnits="userSpaceOnUse"></linearGradient><linearGradient xlink:href="#j" id="Q" x1="102.326" x2="107.696" y1="324.72" y2="324.72" gradientUnits="userSpaceOnUse"></linearGradient><linearGradient xlink:href="#j" id="R" x1="97.339" x2="96.275" y1="336.224" y2="342.257" gradientUnits="userSpaceOnUse"></linearGradient><linearGradient xlink:href="#c" id="S" x1="71.782" x2="96.477" y1="375.92" y2="418.451" gradientUnits="userSpaceOnUse"></linearGradient><linearGradient xlink:href="#d" id="T" x1="84.245" x2="82.358" y1="402.172" y2="410.403" gradientUnits="userSpaceOnUse"></linearGradient><linearGradient xlink:href="#d" id="U" x1="100.277" x2="106.705" y1="400.175" y2="400.175" gradientUnits="userSpaceOnUse"></linearGradient><linearGradient xlink:href="#g" id="V" x1="134.492" x2="309.793" y1="357.793" y2="498.318" gradientUnits="userSpaceOnUse"></linearGradient><linearGradient xlink:href="#h" id="W" x1="291.664" x2="325.76" y1="435.586" y2="435.586" gradientUnits="userSpaceOnUse"></linearGradient><linearGradient xlink:href="#h" id="X" x1="164.556" x2="236.415" y1="417.183" y2="506.076" gradientUnits="userSpaceOnUse"></linearGradient><linearGradient xlink:href="#h" id="Y" x1="169.952" x2="165.693" y1="479.398" y2="501.399" gradientUnits="userSpaceOnUse"></linearGradient><linearGradient xlink:href="#h" id="Z" x1="-1028.921" x2="-1033.179" y1="479.398" y2="501.399" gradientTransform="matrix(-1 0 0 1 -754.03 0)" gradientUnits="userSpaceOnUse"></linearGradient><linearGradient xlink:href="#g" id="aa" x1="221.752" x2="224.413" y1="359.724" y2="395.21" gradientUnits="userSpaceOnUse"></linearGradient><linearGradient xlink:href="#h" id="ab" x1="191.865" x2="193.817" y1="361.559" y2="369.72" gradientUnits="userSpaceOnUse"></linearGradient><linearGradient xlink:href="#i" id="ac" x1="204.793" x2="218.632" y1="353.436" y2="387.148" gradientUnits="userSpaceOnUse"></linearGradient><linearGradient xlink:href="#j" id="ad" x1="181.919" x2="181.919" y1="373.963" y2="381.732" gradientUnits="userSpaceOnUse"></linearGradient><linearGradient xlink:href="#j" id="ae" x1="171.188" x2="176.558" y1="395.51" y2="395.51" gradientUnits="userSpaceOnUse"></linearGradient><linearGradient xlink:href="#j" id="af" x1="166.202" x2="165.137" y1="407.014" y2="413.046" gradientUnits="userSpaceOnUse"></linearGradient><linearGradient xlink:href="#c" id="ag" x1="140.644" x2="165.339" y1="446.71" y2="489.241" gradientUnits="userSpaceOnUse"></linearGradient><linearGradient xlink:href="#d" id="ah" x1="153.107" x2="151.221" y1="472.961" y2="481.193" gradientUnits="userSpaceOnUse"></linearGradient><linearGradient xlink:href="#d" id="ai" x1="169.139" x2="175.567" y1="470.965" y2="470.965" gradientUnits="userSpaceOnUse"></linearGradient><linearGradient id="aj" x1="234.043" x2="575.814" y1="251.357" y2="503.537" gradientUnits="userSpaceOnUse"><stop offset="0" stop-color="#b3dafe"></stop><stop offset="1" stop-color="#01d0fb"></stop></linearGradient><linearGradient id="k"><stop offset="0" stop-color="#08a9f1" stop-opacity="0"></stop><stop offset="1" stop-color="#08a9f1"></stop></linearGradient><linearGradient xlink:href="#k" id="ak" x1="488.63" x2="511.165" y1="367.81" y2="367.81" gradientUnits="userSpaceOnUse"></linearGradient><linearGradient xlink:href="#k" id="al" x1="454.268" x2="424.405" y1="262.422" y2="257.721" gradientUnits="userSpaceOnUse"></linearGradient><linearGradient xlink:href="#k" id="am" x1="479.644" x2="418.258" y1="380.956" y2="339.893" gradientUnits="userSpaceOnUse"></linearGradient><linearGradient xlink:href="#k" id="an" x1="391.867" x2="391.867" y1="489.579" y2="511.77" gradientUnits="userSpaceOnUse"></linearGradient><linearGradient xlink:href="#c" id="ao" x1="330.805" x2="499.832" y1="305.846" y2="474.873" gradientUnits="userSpaceOnUse"></linearGradient><linearGradient xlink:href="#d" id="ap" x1="444.88" x2="415.497" y1="291.673" y2="239.437" gradientUnits="userSpaceOnUse"></linearGradient><linearGradient xlink:href="#d" id="aq" x1="472.039" x2="490.777" y1="366.908" y2="366.908" gradientUnits="userSpaceOnUse"></linearGradient><linearGradient xlink:href="#d" id="ar" x1="391.867" x2="391.867" y1="471.232" y2="494.492" gradientUnits="userSpaceOnUse"></linearGradient><linearGradient xlink:href="#d" id="as" x1="391.867" x2="391.867" y1="263.754" y2="250.423" gradientUnits="userSpaceOnUse"></linearGradient><linearGradient xlink:href="#d" id="at" x1="377.932" x2="362.999" y1="252.565" y2="252.565" gradientUnits="userSpaceOnUse"></linearGradient><linearGradient xlink:href="#e" id="au" x1="391.867" x2="391.867" y1="265.275" y2="272.741" gradientUnits="userSpaceOnUse"></linearGradient><linearGradient xlink:href="#f" id="av" x1="391.867" x2="391.867" y1="266.105" y2="271.911" gradientUnits="userSpaceOnUse"></linearGradient><linearGradient xlink:href="#f" id="aw" x1="391.867" x2="391.867" y1="259.33" y2="249.652" gradientUnits="userSpaceOnUse"></linearGradient><linearGradient xlink:href="#f" id="ax" x1="417.635" x2="427.589" y1="256.37" y2="260.38" gradientUnits="userSpaceOnUse"></linearGradient><linearGradient xlink:href="#i" id="ay" x1="391.868" x2="391.868" y1="221.678" y2="250.352" gradientUnits="userSpaceOnUse"></linearGradient><linearGradient xlink:href="#i" id="az" x1="391.868" x2="391.868" y1="246.288" y2="218.017" gradientUnits="userSpaceOnUse"></linearGradient><linearGradient xlink:href="#j" id="aA" x1="391.868" x2="391.868" y1="242.693" y2="251.689" gradientUnits="userSpaceOnUse"></linearGradient><linearGradient xlink:href="#j" id="aB" x1="416.768" x2="435.571" y1="232.886" y2="235.098" gradientUnits="userSpaceOnUse"></linearGradient><linearGradient xlink:href="#d" id="aC" x1="415.575" x2="416.405" y1="203.672" y2="326.03" gradientUnits="userSpaceOnUse"></linearGradient><linearGradient xlink:href="#d" id="aD" x1="304.647" x2="347.888" y1="275.706" y2="318.946" gradientUnits="userSpaceOnUse"></linearGradient><linearGradient xlink:href="#d" id="aE" x1="329.533" x2="329.533" y1="300.799" y2="285.844" gradientUnits="userSpaceOnUse"></linearGradient><linearGradient xlink:href="#d" id="aF" x1="338.036" x2="312.735" y1="300.592" y2="300.592" gradientUnits="userSpaceOnUse"></linearGradient><linearGradient id="l"><stop offset="0" stop-color="#bbec6c"></stop><stop offset=".197" stop-color="#b5e665"></stop><stop offset=".48" stop-color="#a5d552"></stop><stop offset=".812" stop-color="#8abb33"></stop><stop offset="1" stop-color="#78a91f"></stop></linearGradient><linearGradient xlink:href="#l" id="aG" x1="337.645" x2="341.466" y1="286.669" y2="306.567" gradientUnits="userSpaceOnUse"></linearGradient><linearGradient id="m"><stop offset="0" stop-color="#334c0f" stop-opacity="0"></stop><stop offset=".32" stop-color="#344c12" stop-opacity=".32"></stop><stop offset=".565" stop-color="#374a1c" stop-opacity=".565"></stop><stop offset=".786" stop-color="#3c482c" stop-opacity=".786"></stop><stop offset=".991" stop-color="#444443" stop-opacity=".991"></stop><stop offset="1" stop-color="#444"></stop></linearGradient><linearGradient xlink:href="#m" id="aH" x1="342.344" x2="346.04" y1="295.273" y2="298.969" gradientUnits="userSpaceOnUse"></linearGradient><linearGradient xlink:href="#d" id="aI" x1="415.575" x2="416.405" y1="241.416" y2="363.774" gradientUnits="userSpaceOnUse"></linearGradient><linearGradient xlink:href="#d" id="aJ" x1="304.647" x2="347.888" y1="313.45" y2="356.69" gradientUnits="userSpaceOnUse"></linearGradient><linearGradient xlink:href="#d" id="aK" x1="329.533" x2="329.533" y1="338.543" y2="323.589" gradientUnits="userSpaceOnUse"></linearGradient><linearGradient xlink:href="#d" id="aL" x1="338.036" x2="312.735" y1="338.336" y2="338.336" gradientUnits="userSpaceOnUse"></linearGradient><linearGradient xlink:href="#l" id="aM" x1="337.645" x2="341.466" y1="324.413" y2="344.311" gradientUnits="userSpaceOnUse"></linearGradient><linearGradient xlink:href="#m" id="aN" x1="342.344" x2="346.04" y1="333.017" y2="336.713" gradientUnits="userSpaceOnUse"></linearGradient><linearGradient xlink:href="#d" id="aO" x1="415.575" x2="416.405" y1="279.161" y2="401.518" gradientUnits="userSpaceOnUse"></linearGradient><linearGradient xlink:href="#d" id="aP" x1="304.647" x2="347.888" y1="351.194" y2="394.434" gradientUnits="userSpaceOnUse"></linearGradient><linearGradient xlink:href="#d" id="aQ" x1="329.533" x2="329.533" y1="376.287" y2="361.333" gradientUnits="userSpaceOnUse"></linearGradient><linearGradient xlink:href="#d" id="aR" x1="338.036" x2="312.735" y1="376.08" y2="376.08" gradientUnits="userSpaceOnUse"></linearGradient><linearGradient xlink:href="#l" id="aS" x1="337.645" x2="341.466" y1="362.157" y2="382.056" gradientUnits="userSpaceOnUse"></linearGradient><linearGradient xlink:href="#m" id="aT" x1="342.344" x2="346.04" y1="370.761" y2="374.457" gradientUnits="userSpaceOnUse"></linearGradient><linearGradient xlink:href="#d" id="aU" x1="415.575" x2="416.405" y1="316.943" y2="439.3" gradientUnits="userSpaceOnUse"></linearGradient><linearGradient xlink:href="#d" id="aV" x1="304.647" x2="347.888" y1="388.976" y2="432.217" gradientUnits="userSpaceOnUse"></linearGradient><linearGradient xlink:href="#d" id="aW" x1="329.533" x2="329.533" y1="414.07" y2="399.115" gradientUnits="userSpaceOnUse"></linearGradient><linearGradient xlink:href="#d" id="aX" x1="338.036" x2="312.735" y1="413.862" y2="413.862" gradientUnits="userSpaceOnUse"></linearGradient><linearGradient xlink:href="#d" id="aY" x1="415.575" x2="416.405" y1="354.725" y2="477.082" gradientUnits="userSpaceOnUse"></linearGradient><linearGradient xlink:href="#d" id="aZ" x1="304.647" x2="347.888" y1="426.758" y2="469.999" gradientUnits="userSpaceOnUse"></linearGradient><linearGradient xlink:href="#d" id="ba" x1="329.533" x2="329.533" y1="451.852" y2="436.897" gradientUnits="userSpaceOnUse"></linearGradient><linearGradient xlink:href="#d" id="bb" x1="338.036" x2="312.735" y1="451.644" y2="451.644" gradientUnits="userSpaceOnUse"></linearGradient><path fill="url(#n)" d="M391.959 102.441v283.523c0 7.751-6.284 14.035-14.043 14.035h-57.799l-115.972-31.834-115.972 31.834H30.375c-7.759 0-14.043-6.284-14.043-14.035V102.441L204.145 5.009z" opacity="1" data-original="url(#n)"></path><path fill="url(#o)" d="M249.244 156.314h-90.198a5.495 5.495 0 1 1 0-10.99h90.198a5.495 5.495 0 1 1 0 10.99z" opacity="1" data-original="url(#o)"></path><path fill="url(#p)" d="M249.244 137.744h-90.198a5.495 5.495 0 1 1 0-10.99h90.198a5.495 5.495 0 1 1 0 10.99z" opacity="1" data-original="url(#p)"></path><path fill="url(#q)" d="M249.244 119.174h-90.198a5.495 5.495 0 1 1 0-10.99h90.198a5.495 5.495 0 1 1 0 10.99z" opacity="1" data-original="url(#q)"></path><path fill="url(#r)" d="M249.244 100.604h-90.198a5.495 5.495 0 1 1 0-10.99h90.198a5.495 5.495 0 1 1 0 10.99z" opacity="1" data-original="url(#r)"></path><path fill="url(#s)" d="M16.332 102.439v138.646h375.626V102.439L204.145 5.009z" opacity="1" data-original="url(#s)"></path><path fill="url(#t)" d="M391.958 102.439v138.646H16.332V102.439l187.813-97.43z" opacity="1" data-original="url(#t)" class=""></path><path fill="url(#u)" d="M391.959 102.441v283.523c0 7.751-6.284 14.035-14.043 14.035h-57.799l-115.972-31.834V5.009z" opacity="1" data-original="url(#u)"></path><path fill="url(#v)" d="M391.959 287.711v98.253c0 7.751-6.284 14.035-14.043 14.035h-57.799l-115.972-31.834-115.972 31.834H30.375c-7.759 0-14.043-6.284-14.043-14.035v-98.253z" opacity="1" data-original="url(#v)"></path><path fill="url(#w)" d="M200.553.876 4.209 102.731A7.802 7.802 0 0 0 0 109.656v26.43c0 5.85 6.201 9.619 11.394 6.925l189.159-98.128a7.799 7.799 0 0 1 7.185 0l189.159 98.128c5.193 2.694 11.394-1.075 11.394-6.925v-26.43a7.8 7.8 0 0 0-4.209-6.925L207.738.876a7.804 7.804 0 0 0-7.185 0z" opacity="1" data-original="url(#w)"></path><path fill="url(#x)" d="M200.553.876 4.209 102.731A7.802 7.802 0 0 0 0 109.656v26.43c0 5.85 6.201 9.619 11.394 6.925l189.159-98.128a7.799 7.799 0 0 1 7.185 0l189.159 98.128c5.193 2.694 11.394-1.075 11.394-6.925v-26.43a7.8 7.8 0 0 0-4.209-6.925L207.738.876a7.804 7.804 0 0 0-7.185 0z" opacity="1" data-original="url(#x)" class=""></path><path fill="url(#y)" d="M200.553 20.508 0 124.546v11.54c0 5.85 6.201 9.619 11.394 6.925l189.159-98.128a7.804 7.804 0 0 1 7.185 0l189.159 98.128c5.193 2.694 11.394-1.075 11.394-6.925v-11.54L207.738 20.508a7.804 7.804 0 0 0-7.185 0z" opacity="1" data-original="url(#y)"></path><path fill="url(#z)" d="m404.082 102.731-94.495-49.02v44.008l87.31 45.293c5.193 2.694 11.394-1.075 11.394-6.925v-26.43a7.804 7.804 0 0 0-4.209-6.926z" opacity="1" data-original="url(#z)"></path><path fill="url(#A)" d="M396.896 143.012c5.193 2.694 11.394-1.075 11.394-6.925v-26.43a7.8 7.8 0 0 0-4.209-6.925l-48.689-25.258H270.56z" opacity="1" data-original="url(#A)"></path><path fill="url(#B)" d="m11.394 143.012 126.337-65.538H52.898L4.209 102.731A7.802 7.802 0 0 0 0 109.656v26.43c0 5.851 6.201 9.62 11.394 6.926z" opacity="1" data-original="url(#B)"></path><path fill="url(#C)" d="M320.117 205.55v194.448H88.173V205.55c0-8.15 6.603-14.745 14.745-14.745h202.455c8.142 0 14.744 6.595 14.744 14.745z" opacity="1" data-original="url(#C)"></path><path fill="url(#D)" d="m282.755 329.324-31.465-31.465v69.537h31.465z" opacity="1" data-original="url(#D)"></path><path fill="url(#E)" d="M209.903 190.805v209.193H88.173V205.55c0-8.15 6.603-14.745 14.745-14.745z" opacity="1" data-original="url(#E)"></path><path fill="url(#F)" d="M305.369 190.802H102.921c-8.143 0-14.745 6.601-14.745 14.745v79.622h231.937v-79.622c.001-8.144-6.6-14.745-14.744-14.745z" opacity="1" data-original="url(#F)"></path><path fill="url(#G)" d="M254.128 304.52v105.89a9.265 9.265 0 0 1-7.138 9.015l-91.305 21.539a9.305 9.305 0 0 1-4.251 0l-91.305-21.539a9.265 9.265 0 0 1-7.138-9.015V304.52a9.26 9.26 0 0 1 2.827-6.66H251.29v-.01a9.245 9.245 0 0 1 2.838 6.67z" opacity="1" data-original="url(#G)"></path><path fill="url(#H)" d="M251.29 297.859h-56.523v133.885l52.222-12.32a9.265 9.265 0 0 0 7.138-9.015V304.52a9.244 9.244 0 0 0-2.837-6.67z" opacity="1" data-original="url(#H)"></path><path fill="url(#I)" d="M153.559 297.859v143.349c-.712 0-1.424-.08-2.126-.244l-91.305-21.539a9.265 9.265 0 0 1-7.138-9.015V304.52a9.26 9.26 0 0 1 2.827-6.66h97.742z" opacity="1" data-original="url(#I)"></path><path fill="url(#J)" d="M254.125 304.518v105.889a9.262 9.262 0 0 1-7.132 9.019l-91.309 21.535a9.25 9.25 0 0 1-2.123.243V297.859h97.731a9.2 9.2 0 0 1 2.833 6.659z" opacity="1" data-original="url(#J)"></path><path fill="url(#K)" d="M153.559 375.923v65.285c-.712 0-1.424-.08-2.126-.244l-91.305-21.539a9.265 9.265 0 0 1-7.138-9.015v-56.982l90.304 21.3a44.663 44.663 0 0 0 10.265 1.195z" opacity="1" data-original="url(#K)"></path><path fill="url(#L)" d="M153.559 375.923v65.285c.712 0 1.424-.08 2.126-.244l91.305-21.539a9.265 9.265 0 0 0 7.138-9.015v-56.982l-90.304 21.3a44.67 44.67 0 0 1-10.265 1.195z" opacity="1" data-original="url(#L)"></path><path fill="url(#M)" d="m251.29 297.859-92.38 21.793a23.287 23.287 0 0 1-10.703 0l-92.38-21.793a9.276 9.276 0 0 1 4.296-2.355l91.31-21.539a9.278 9.278 0 0 1 4.251 0l34.094 8.044v4.107h17.418l39.798 9.388a9.27 9.27 0 0 1 4.296 2.355z" opacity="1" data-original="url(#M)"></path><path fill="url(#N)" d="M189.778 282.009v4.107L97.911 307.79l-42.083-9.931a9.276 9.276 0 0 1 4.296-2.355l91.31-21.539a9.278 9.278 0 0 1 4.251 0z" opacity="1" data-original="url(#N)"></path><path fill="url(#O)" d="m189.778 282.004-98.646 23.274a2.5 2.5 0 0 0-1.926 2.433l-.006 30.941c0 .674.464 1.26 1.12 1.415l14.516 3.422a1.454 1.454 0 0 0 1.787-1.415v-30.428c0-1.058.728-1.977 1.757-2.22l98.815-23.312z" opacity="1" data-original="url(#O)"></path><path fill="url(#P)" d="m136.136 302.882-27.757 6.546a2.295 2.295 0 0 0-1.055.577l-17.348-4.092a2.507 2.507 0 0 1 1.155-.637l27.578-6.506z" opacity="1" data-original="url(#P)"></path><path fill="url(#Q)" d="m89.976 305.913 17.343 4.092a2.283 2.283 0 0 0-.697 1.643v30.425a1.45 1.45 0 0 1-1.787 1.414l-14.516-3.42a1.453 1.453 0 0 1-1.12-1.414l.005-30.943c0-.702.294-1.344.772-1.797z" opacity="1" data-original="url(#Q)"></path><path fill="url(#R)" d="m89.202 323.755-.002 14.898c0 .672.463 1.259 1.12 1.414l14.516 3.42a1.45 1.45 0 0 0 1.787-1.414v-18.318z" opacity="1" data-original="url(#R)"></path><path fill="url(#S)" d="m64.003 406.147 40.023 9.442a2.111 2.111 0 0 0 2.596-2.055v-21.981c0-.979-.673-1.83-1.627-2.055l-40.023-9.44a2.111 2.111 0 0 0-2.596 2.055v21.979c0 .98.674 1.831 1.627 2.055z" opacity="1" data-original="url(#S)"></path><path fill="url(#T)" d="M62.376 388.344v15.748c0 .979.673 1.83 1.627 2.055l40.023 9.442a2.111 2.111 0 0 0 2.596-2.055v-14.752z" opacity="1" data-original="url(#T)"></path><path fill="url(#U)" d="m104.996 389.499-20.325-4.794v26.319l19.355 4.566a2.111 2.111 0 0 0 2.596-2.055v-21.981a2.11 2.11 0 0 0-1.626-2.055z" opacity="1" data-original="url(#U)"></path><path fill="url(#V)" d="M322.99 375.309v105.89a9.265 9.265 0 0 1-7.138 9.015l-91.305 21.539a9.278 9.278 0 0 1-4.251 0l-91.305-21.539a9.265 9.265 0 0 1-7.138-9.015v-105.89a9.26 9.26 0 0 1 2.827-6.66h195.473v-.01a9.244 9.244 0 0 1 2.837 6.67z" opacity="1" data-original="url(#V)"></path><path fill="url(#W)" d="M320.153 368.649H263.63v133.885l52.222-12.32a9.265 9.265 0 0 0 7.138-9.015v-105.89a9.244 9.244 0 0 0-2.837-6.67z" opacity="1" data-original="url(#W)"></path><path fill="url(#X)" d="M222.421 368.649v143.349c-.712 0-1.424-.08-2.126-.244l-91.305-21.539a9.265 9.265 0 0 1-7.138-9.015V375.31a9.26 9.26 0 0 1 2.827-6.66h97.742z" opacity="1" data-original="url(#X)"></path><path fill="url(#Y)" d="M222.421 446.712v65.285c-.712 0-1.424-.08-2.126-.244l-91.305-21.539a9.265 9.265 0 0 1-7.138-9.015v-56.982l90.304 21.3a44.676 44.676 0 0 0 10.265 1.195z" opacity="1" data-original="url(#Y)"></path><path fill="url(#Z)" d="M222.421 446.712v65.285c.712 0 1.424-.08 2.126-.244l91.305-21.539a9.265 9.265 0 0 0 7.138-9.015v-56.982l-90.304 21.3a44.663 44.663 0 0 1-10.265 1.195z" opacity="1" data-original="url(#Z)"></path><path fill="url(#aa)" d="m320.153 368.649-92.38 21.793a23.287 23.287 0 0 1-10.703 0l-92.38-21.793a9.276 9.276 0 0 1 4.296-2.355l91.31-21.539a9.278 9.278 0 0 1 4.251 0l34.094 8.044v4.107h17.418l39.798 9.388a9.272 9.272 0 0 1 4.296 2.355z" opacity="1" data-original="url(#aa)"></path><path fill="url(#ab)" d="M258.641 352.799v4.107l-91.867 21.674-42.083-9.931a9.276 9.276 0 0 1 4.296-2.355l91.31-21.539a9.278 9.278 0 0 1 4.251 0z" opacity="1" data-original="url(#ab)"></path><path fill="url(#ac)" d="m258.641 352.794-98.646 23.274a2.5 2.5 0 0 0-1.926 2.433l-.007 30.941c0 .674.464 1.26 1.12 1.415l14.516 3.422a1.454 1.454 0 0 0 1.787-1.415v-30.428a2.28 2.28 0 0 1 1.757-2.22l98.815-23.311z" opacity="1" data-original="url(#ac)"></path><path fill="url(#ad)" d="m204.999 373.671-27.757 6.546a2.295 2.295 0 0 0-1.055.577l-17.348-4.092a2.507 2.507 0 0 1 1.155-.637l27.578-6.506z" opacity="1" data-original="url(#ad)"></path><path fill="url(#ae)" d="m158.838 376.703 17.343 4.092a2.283 2.283 0 0 0-.697 1.643v30.425a1.45 1.45 0 0 1-1.787 1.414l-14.516-3.42a1.453 1.453 0 0 1-1.12-1.414l.005-30.943a2.476 2.476 0 0 1 .772-1.797z" opacity="1" data-original="url(#ae)"></path><path fill="url(#af)" d="m158.064 394.545-.002 14.898c0 .672.463 1.259 1.12 1.414l14.516 3.42a1.45 1.45 0 0 0 1.787-1.414v-18.318z" opacity="1" data-original="url(#af)"></path><path fill="url(#ag)" d="m132.865 476.937 40.023 9.442a2.111 2.111 0 0 0 2.596-2.055v-21.981c0-.979-.673-1.83-1.627-2.055l-40.023-9.44a2.111 2.111 0 0 0-2.596 2.055v21.979c.001.979.674 1.83 1.627 2.055z" opacity="1" data-original="url(#ag)"></path><path fill="url(#ah)" d="M131.239 459.134v15.748c0 .979.673 1.83 1.627 2.055l40.023 9.442a2.111 2.111 0 0 0 2.596-2.055v-14.752z" opacity="1" data-original="url(#ah)"></path><path fill="url(#ai)" d="m173.858 460.288-20.325-4.794v26.319l19.355 4.566a2.111 2.111 0 0 0 2.596-2.055v-21.981a2.11 2.11 0 0 0-1.626-2.055z" opacity="1" data-original="url(#ai)"></path><path fill="url(#aj)" d="M500.941 512H282.794c-6.108 0-11.059-4.951-11.059-11.059V234.678c0-6.108 4.951-11.059 11.059-11.059h218.147c6.108 0 11.059 4.951 11.059 11.059V500.94c0 6.109-4.951 11.06-11.059 11.06z" opacity="1" data-original="url(#aj)"></path><path fill="url(#ak)" d="M500.941 223.619H393.233V512h107.708c6.108 0 11.059-4.951 11.059-11.059V234.678c0-6.108-4.951-11.059-11.059-11.059z" opacity="1" data-original="url(#ak)"></path><path fill="url(#al)" d="M500.941 223.619H393.233v75.483H512v-64.423c0-6.109-4.951-11.06-11.059-11.06z" opacity="1" data-original="url(#al)"></path><path fill="url(#am)" d="M500.941 512c6.108 0 11.059-4.951 11.059-11.059V265.095l-23.508-23.508h-30.14V512z" opacity="1" data-original="url(#am)"></path><path fill="url(#an)" d="M271.735 322.329v178.612c0 6.108 4.951 11.059 11.059 11.059h218.147c6.108 0 11.059-4.951 11.059-11.059V322.329z" opacity="1" data-original="url(#an)"></path><path fill="url(#ao)" d="M483.025 494.534H300.71a7.968 7.968 0 0 1-7.968-7.968V247.25c0-4.4 3.567-7.968 7.968-7.968h182.316c4.4 0 7.968 3.567 7.968 7.968v239.316a7.97 7.97 0 0 1-7.969 7.968z" opacity="1" data-original="url(#ao)"></path><path fill="url(#ap)" d="M483.025 239.283h-59.067v13.559c0 7.859-6.371 14.23-14.23 14.23h-49.389l-1.007 1.007L490.993 399.74V247.25c0-4.4-3.567-7.967-7.968-7.967z" opacity="1" data-original="url(#ap)"></path><path fill="url(#aq)" d="M483.025 239.283h-50.389v255.251h50.389c4.4 0 7.968-3.567 7.968-7.968V247.25c0-4.4-3.567-7.967-7.968-7.967z" opacity="1" data-original="url(#aq)"></path><path fill="url(#ar)" d="M292.742 428.095v58.471c0 4.4 3.567 7.968 7.968 7.968h182.316c4.4 0 7.968-3.567 7.968-7.968v-58.471z" opacity="1" data-original="url(#ar)"></path><path fill="url(#as)" d="M359.776 238.058h64.182v29.015h-64.182z" opacity="1" data-original="url(#as)"></path><path fill="url(#at)" d="M359.776 238.058h64.182v29.015h-64.182z" opacity="1" data-original="url(#at)"></path><path fill="url(#au)" d="M412.26 273.026h-40.786c-9.458 0-17.153-7.694-17.153-17.152v-22.061h75.091v22.061c.001 9.457-7.694 17.152-17.152 17.152zm-49.211-30.486v13.333c0 4.646 3.78 8.425 8.425 8.425h40.786c4.646 0 8.425-3.779 8.425-8.425V242.54z" opacity="1" data-original="url(#au)"></path><path fill="url(#av)" d="M412.26 273.026h-40.786c-9.458 0-17.153-7.694-17.153-17.152v-22.061h75.091v22.061c.001 9.457-7.694 17.152-17.152 17.152zm-49.211-30.486v13.333c0 4.646 3.78 8.425 8.425 8.425h40.786c4.646 0 8.425-3.779 8.425-8.425V242.54z" opacity="1" data-original="url(#av)"></path><path fill="url(#aw)" d="M412.26 273.026h-40.786c-9.458 0-17.153-7.694-17.153-17.152v-22.061h75.091v22.061c.001 9.457-7.694 17.152-17.152 17.152zm-49.211-30.486v13.333c0 4.646 3.78 8.425 8.425 8.425h40.786c4.646 0 8.425-3.779 8.425-8.425V242.54z" opacity="1" data-original="url(#aw)"></path><path fill="url(#ax)" d="M391.205 242.54h29.48v13.333c0 4.646-3.779 8.425-8.425 8.425h-21.056v8.727h21.056c9.458 0 17.152-7.694 17.152-17.152v-22.061h-38.208v8.728z" opacity="1" data-original="url(#ax)"></path><path fill="url(#ay)" d="M434.859 232.102c0 5.299-1.03 10.101-2.706 13.57-1.664 3.469-3.974 5.621-6.522 5.621h-67.527c-5.097 0-9.228-8.593-9.228-19.192 0-4.538.762-8.769 2.06-12.092 1.297-3.33 3.13-5.753 5.266-6.69l2.41-1.057a3.019 3.019 0 0 1 2.454-.004c20.312 8.908 41.292 8.908 61.604 0a3.019 3.019 0 0 1 2.454.004l2.41 1.057c4.27 1.867 7.325 9.707 7.325 18.783z" opacity="1" data-original="url(#ay)"></path><path fill="url(#az)" d="M416.102 234.115c0 2.987-.581 5.694-1.525 7.65-.938 1.956-2.24 3.169-3.677 3.169h-38.065c-2.873 0-5.202-4.844-5.202-10.818 0-2.558.43-4.943 1.161-6.816.731-1.877 1.764-3.243 2.968-3.771l1.358-.596a1.702 1.702 0 0 1 1.384-.002c11.45 5.021 23.276 5.021 34.726 0a1.706 1.706 0 0 1 1.384.002l1.358.596c2.408 1.051 4.13 5.47 4.13 10.586z" opacity="1" data-original="url(#az)"></path><path fill="url(#aA)" d="M348.876 232.102c0 10.599 4.131 19.192 9.228 19.192h67.527c2.548 0 4.858-2.152 6.522-5.621 1.676-3.469 2.706-8.271 2.706-13.57a39.49 39.49 0 0 0-.156-3.511h-85.669a39.442 39.442 0 0 0-.158 3.51z" opacity="1" data-original="url(#aA)"></path><path fill="url(#aB)" d="m427.534 213.32-2.41-1.057a3.019 3.019 0 0 0-2.454-.004c-11.295 4.954-22.797 7.148-34.276 6.592v32.442h37.237c2.548 0 4.858-2.152 6.522-5.621 1.676-3.469 2.706-8.271 2.706-13.57 0-9.076-3.055-16.916-7.325-18.782z" opacity="1" data-original="url(#aB)"></path><path fill="url(#aC)" d="M463.949 304.325h-95.433a3.733 3.733 0 1 1 0-7.466h95.433a3.733 3.733 0 1 1 0 7.466z" opacity="1" data-original="url(#aC)"></path><path fill="url(#aD)" d="M339.28 314.072h-19.494a3.733 3.733 0 0 1-3.733-3.733v-19.494a3.733 3.733 0 0 1 3.733-3.733h19.494a3.733 3.733 0 0 1 3.733 3.733v19.494a3.733 3.733 0 0 1-3.733 3.733z" opacity="1" data-original="url(#aD)"></path><path fill="url(#aE)" d="M339.28 314.072h-19.494a3.733 3.733 0 0 1-3.733-3.733v-19.494a3.733 3.733 0 0 1 3.733-3.733h19.494a3.733 3.733 0 0 1 3.733 3.733v19.494a3.733 3.733 0 0 1-3.733 3.733z" opacity="1" data-original="url(#aE)"></path><path fill="url(#aF)" d="M339.28 314.072h-19.494a3.733 3.733 0 0 1-3.733-3.733v-19.494a3.733 3.733 0 0 1 3.733-3.733h19.494a3.733 3.733 0 0 1 3.733 3.733v19.494a3.733 3.733 0 0 1-3.733 3.733z" opacity="1" data-original="url(#aF)"></path><path fill="url(#aG)" d="M332.37 309.885a6.453 6.453 0 0 1-4.593-1.903l-7.191-7.191a4.365 4.365 0 0 1 6.171-6.172l5.613 5.613 18.019-18.019a4.365 4.365 0 0 1 6.171 6.172l-19.598 19.598a6.452 6.452 0 0 1-4.592 1.902z" opacity="1" data-original="url(#aG)"></path><path fill="url(#aH)" d="M332.37 309.885a6.453 6.453 0 0 1-4.593-1.903l-7.191-7.191a4.365 4.365 0 0 1 6.171-6.172l5.613 5.613 18.019-18.019a4.365 4.365 0 0 1 6.171 6.172l-19.598 19.598a6.452 6.452 0 0 1-4.592 1.902z" opacity="1" data-original="url(#aH)"></path><path fill="url(#aI)" d="M463.949 342.069h-95.433a3.733 3.733 0 1 1 0-7.466h95.433a3.733 3.733 0 1 1 0 7.466z" opacity="1" data-original="url(#aI)"></path><path fill="url(#aJ)" d="M339.28 351.816h-19.494a3.733 3.733 0 0 1-3.733-3.733v-19.494a3.733 3.733 0 0 1 3.733-3.733h19.494a3.733 3.733 0 0 1 3.733 3.733v19.494a3.733 3.733 0 0 1-3.733 3.733z" opacity="1" data-original="url(#aJ)"></path><path fill="url(#aK)" d="M339.28 351.816h-19.494a3.733 3.733 0 0 1-3.733-3.733v-19.494a3.733 3.733 0 0 1 3.733-3.733h19.494a3.733 3.733 0 0 1 3.733 3.733v19.494a3.733 3.733 0 0 1-3.733 3.733z" opacity="1" data-original="url(#aK)"></path><path fill="url(#aL)" d="M339.28 351.816h-19.494a3.733 3.733 0 0 1-3.733-3.733v-19.494a3.733 3.733 0 0 1 3.733-3.733h19.494a3.733 3.733 0 0 1 3.733 3.733v19.494a3.733 3.733 0 0 1-3.733 3.733z" opacity="1" data-original="url(#aL)"></path><path fill="url(#aM)" d="M332.37 347.629a6.453 6.453 0 0 1-4.593-1.903l-7.191-7.191a4.365 4.365 0 0 1 6.171-6.172l5.613 5.613 18.019-18.019a4.365 4.365 0 0 1 6.171 6.172l-19.598 19.598a6.452 6.452 0 0 1-4.592 1.902z" opacity="1" data-original="url(#aM)"></path><path fill="url(#aN)" d="M332.37 347.629a6.453 6.453 0 0 1-4.593-1.903l-7.191-7.191a4.365 4.365 0 0 1 6.171-6.172l5.613 5.613 18.019-18.019a4.365 4.365 0 0 1 6.171 6.172l-19.598 19.598a6.452 6.452 0 0 1-4.592 1.902z" opacity="1" data-original="url(#aN)"></path><path fill="url(#aO)" d="M463.949 379.813h-95.433a3.733 3.733 0 1 1 0-7.466h95.433a3.733 3.733 0 1 1 0 7.466z" opacity="1" data-original="url(#aO)"></path><path fill="url(#aP)" d="M339.28 389.56h-19.494a3.733 3.733 0 0 1-3.733-3.733v-19.494a3.733 3.733 0 0 1 3.733-3.733h19.494a3.733 3.733 0 0 1 3.733 3.733v19.494a3.733 3.733 0 0 1-3.733 3.733z" opacity="1" data-original="url(#aP)"></path><path fill="url(#aQ)" d="M339.28 389.56h-19.494a3.733 3.733 0 0 1-3.733-3.733v-19.494a3.733 3.733 0 0 1 3.733-3.733h19.494a3.733 3.733 0 0 1 3.733 3.733v19.494a3.733 3.733 0 0 1-3.733 3.733z" opacity="1" data-original="url(#aQ)"></path><path fill="url(#aR)" d="M339.28 389.56h-19.494a3.733 3.733 0 0 1-3.733-3.733v-19.494a3.733 3.733 0 0 1 3.733-3.733h19.494a3.733 3.733 0 0 1 3.733 3.733v19.494a3.733 3.733 0 0 1-3.733 3.733z" opacity="1" data-original="url(#aR)"></path><path fill="url(#aS)" d="M332.37 385.373a6.453 6.453 0 0 1-4.593-1.903l-7.191-7.191a4.365 4.365 0 0 1 6.171-6.172l5.613 5.613 18.019-18.019a4.365 4.365 0 0 1 6.171 6.172l-19.598 19.598a6.452 6.452 0 0 1-4.592 1.902z" opacity="1" data-original="url(#aS)"></path><path fill="url(#aT)" d="M332.37 385.373a6.453 6.453 0 0 1-4.593-1.903l-7.191-7.191a4.365 4.365 0 0 1 6.171-6.172l5.613 5.613 18.019-18.019a4.365 4.365 0 0 1 6.171 6.172l-19.598 19.598a6.452 6.452 0 0 1-4.592 1.902z" opacity="1" data-original="url(#aT)"></path><path fill="url(#aU)" d="M463.949 417.595h-95.433a3.733 3.733 0 1 1 0-7.466h95.433a3.733 3.733 0 1 1 0 7.466z" opacity="1" data-original="url(#aU)"></path><path fill="url(#aV)" d="M339.28 427.342h-19.494a3.733 3.733 0 0 1-3.733-3.733v-19.494a3.733 3.733 0 0 1 3.733-3.733h19.494a3.733 3.733 0 0 1 3.733 3.733v19.494a3.733 3.733 0 0 1-3.733 3.733z" opacity="1" data-original="url(#aV)"></path><path fill="url(#aW)" d="M339.28 427.342h-19.494a3.733 3.733 0 0 1-3.733-3.733v-19.494a3.733 3.733 0 0 1 3.733-3.733h19.494a3.733 3.733 0 0 1 3.733 3.733v19.494a3.733 3.733 0 0 1-3.733 3.733z" opacity="1" data-original="url(#aW)"></path><path fill="url(#aX)" d="M339.28 427.342h-19.494a3.733 3.733 0 0 1-3.733-3.733v-19.494a3.733 3.733 0 0 1 3.733-3.733h19.494a3.733 3.733 0 0 1 3.733 3.733v19.494a3.733 3.733 0 0 1-3.733 3.733z" opacity="1" data-original="url(#aX)"></path><path fill="url(#aY)" d="M463.949 455.377h-95.433a3.733 3.733 0 1 1 0-7.466h95.433a3.733 3.733 0 1 1 0 7.466z" opacity="1" data-original="url(#aY)"></path><path fill="url(#aZ)" d="M339.28 465.124h-19.494a3.733 3.733 0 0 1-3.733-3.733v-19.494a3.733 3.733 0 0 1 3.733-3.733h19.494a3.733 3.733 0 0 1 3.733 3.733v19.494a3.733 3.733 0 0 1-3.733 3.733z" opacity="1" data-original="url(#aZ)"></path><path fill="url(#ba)" d="M339.28 465.124h-19.494a3.733 3.733 0 0 1-3.733-3.733v-19.494a3.733 3.733 0 0 1 3.733-3.733h19.494a3.733 3.733 0 0 1 3.733 3.733v19.494a3.733 3.733 0 0 1-3.733 3.733z" opacity="1" data-original="url(#ba)"></path><path fill="url(#bb)" d="M339.28 465.124h-19.494a3.733 3.733 0 0 1-3.733-3.733v-19.494a3.733 3.733 0 0 1 3.733-3.733h19.494a3.733 3.733 0 0 1 3.733 3.733v19.494a3.733 3.733 0 0 1-3.733 3.733z" opacity="1" data-original="url(#bb)"></path></g></svg>