<svg xmlns="http://www.w3.org/2000/svg" version="1.1" xmlns:xlink="http://www.w3.org/1999/xlink" width="512" height="512" x="0" y="0" viewBox="0 0 32 32" style="enable-background:new 0 0 512 512" xml:space="preserve" class=""><g transform="matrix(1.0999999999999994,0,0,1.0999999999999994,-1.5995000123977583,-1.6010000228881758)"><rect width="19" height="26" x="6.49" y="4.51" fill="#a9cf38" rx=".5" opacity="1" data-original="#a9cf38" class=""></rect><path fill="#f3f3f4" d="M8.99 8.01h14v20h-14z" opacity="1" data-original="#f3f3f4" class=""></path><path fill="#facb46" fill-rule="evenodd" d="M15.99 10.01c2.76 0 5 2.24 5 5s-2.24 5-5 5-5-2.24-5-5 2.24-5 5-5M14.58 4.01c-.05-.16-.08-.32-.08-.5 0-.83.67-1.5 1.5-1.5s1.5.67 1.5 1.5c0 .18-.03.34-.08.5H19v2h-6v-2z" opacity="1" data-original="#facb46" class=""></path><path fill="#f4b51b" d="M18.99 6.51h-6c-.28 0-.5-.22-.5-.5v-2c0-.28.22-.5.5-.5h1c0-1.1.9-2 2-2s2 .9 2 2h1c.28 0 .5.22.5.5v2c0 .28-.22.5-.5.5m-5.5-1h5v-1h-1.08c-.16 0-.31-.08-.41-.21a.499.499 0 0 1-.06-.46.96.96 0 0 0 .06-.33c0-.55-.45-1-1-1s-1 .45-1 1c0 .11.02.23.06.33.05.15.03.32-.06.46-.09.13-.25.21-.41.21h-1.08v1z" opacity="1" data-original="#f4b51b" class=""></path><rect width="9" height="3" x="11.49" y="5.51" fill="#f04f59" rx=".5" opacity="1" data-original="#f04f59" class=""></rect><path fill="#d9d9d8" d="M22.99 14.75c-.28 0-.5-.22-.5-.5V8.51h-13v5.72c0 .28-.22.5-.5.5s-.5-.22-.5-.5V8.01c0-.28.22-.5.5-.5h14c.28 0 .5.22.5.5v6.24c0 .28-.22.5-.5.5zm-2 9.76h-10c-.28 0-.5-.22-.5-.5s.22-.5.5-.5h10c.28 0 .5.22.5.5s-.22.5-.5.5zm0 2h-10c-.28 0-.5-.22-.5-.5s.22-.5.5-.5h10c.28 0 .5.22.5.5s-.22.5-.5.5zm2 2h-14c-.28 0-.5-.22-.5-.5V17.72c0-.28.22-.5.5-.5s.5.22.5.5v9.79h13v-10c0-.28.22-.5.5-.5s.5.22.5.5v10.5c0 .28-.22.5-.5.5z" opacity="1" data-original="#d9d9d8"></path><path fill="#f4b51b" d="M11.38 17.4c-.2 0-.38-.11-.46-.31a5.51 5.51 0 0 1 5.07-7.64 5.51 5.51 0 0 1 5.19 7.33.501.501 0 0 1-.94-.34c.17-.48.26-.98.26-1.5 0-2.48-2.02-4.5-4.5-4.5a4.507 4.507 0 0 0-4.15 6.25.492.492 0 0 1-.46.69" opacity="1" data-original="#f4b51b" class=""></path><path fill="#f2f3f3" fill-rule="evenodd" d="M15.49 13.46v1c-.28 0-.5-.23-.5-.5s.22-.5.5-.5zm1 3v-1c.28 0 .5.22.5.5s-.22.5-.5.5zm-1-4.5c0-.28.22-.5.5-.5s.5.22.5.5v.5c.83 0 1.5.67 1.5 1.5 0 .28-.22.5-.5.5s-.5-.22-.5-.5-.22-.5-.5-.5v1c.83 0 1.5.67 1.5 1.5s-.67 1.5-1.5 1.5v.5c0 .28-.22.5-.5.5s-.5-.22-.5-.5v-.5c-.83 0-1.5-.67-1.5-1.5 0-.28.22-.5.5-.5s.5.22.5.5.22.5.5.5v-1c-.83 0-1.5-.67-1.5-1.5s.67-1.5 1.5-1.5z" opacity="1" data-original="#f2f3f3" class=""></path><path fill="#82c341" d="M25.99 30.51h-20c-.28 0-.5-.22-.5-.5s.22-.5.5-.5h20c.28 0 .5.22.5.5s-.22.5-.5.5" opacity="1" data-original="#82c341" class=""></path><path fill="#f04f59" fill-rule="evenodd" d="M29.08 22.91c0 .13-.05.26-.15.35a.485.485 0 0 1-.7 0l-5.28-5.28-3.18 3.18c-.2.19-.51.19-.71 0L18 20.1l-3.16 3.16c-.2.19-.51.19-.71 0L1.64 10.77c-.2-.19-.2-.51 0-.71l1.41-1.41c.19-.19.52-.19.71 0l10.72 10.72 3.16-3.16c.2-.2.51-.2.71 0l1.08 1.08 3.18-3.18c.19-.19.51-.19.71 0l7.03 7.03c.2.2.2.51 0 .71-.1.1-.23.15-.35.15v.91h-.91z" opacity="1" data-original="#f04f59" class=""></path><path fill="#ee2e38" d="M29.99 23.41h-2.83c-.28 0-.5-.22-.5-.5s.22-.5.5-.5h2.33v-2.33c0-.28.22-.5.5-.5s.5.22.5.5v2.83c0 .28-.22.5-.5.5" opacity="1" data-original="#ee2e38"></path></g></svg>