<svg xmlns="http://www.w3.org/2000/svg" version="1.1" xmlns:xlink="http://www.w3.org/1999/xlink" width="512" height="512" x="0" y="0" viewBox="0 0 512 512" style="enable-background:new 0 0 512 512" xml:space="preserve" class=""><g><path fill="#7986bf" fill-rule="evenodd" d="M511.5 316.785H236.133l137.683-97.979zM258.442 421.819h230.749V448.5H258.442z" clip-rule="evenodd" opacity="1" data-original="#7986bf"></path><path fill="#3d4a75" fill-rule="evenodd" d="M280.148 316.785h34.519v105.034h-34.519zM356.572 316.785h34.489v105.034h-34.489zM432.966 316.785h34.489v105.034h-34.489zM373.816 294.144c10.853 0 19.686-8.833 19.686-19.686s-8.833-19.686-19.686-19.686-19.686 8.833-19.686 19.686 8.833 19.686 19.686 19.686z" clip-rule="evenodd" opacity="1" data-original="#3d4a75"></path><path fill="#bf6100" fill-rule="evenodd" d="M.5 154.622h180.101V79.494H14.73C6.892 79.494.5 85.915.5 93.754z" clip-rule="evenodd" opacity="1" data-original="#bf6100" class=""></path><path fill="#eb7800" fill-rule="evenodd" d="M14.73 109.551h175.127c7.838 0 14.26 6.421 14.26 14.26V246.15c0 7.838-6.421 14.26-14.26 14.26H14.73C6.892 260.41.5 253.989.5 246.15V123.811c0-7.838 6.391-14.26 14.23-14.26z" clip-rule="evenodd" opacity="1" data-original="#eb7800" class=""></path><path fill="#f6cd35" fill-rule="evenodd" d="M149.278 156.069h68.133v54.085c0 2.05-1.688 3.708-3.738 3.708h-64.395c-15.888 0-28.881-12.994-28.881-28.881 0-15.889 12.993-28.912 28.881-28.912z" clip-rule="evenodd" opacity="1" data-original="#f6cd35" class=""></path><path fill="#f6cd35" d="M65.875 176.722v-17.107c4.832.051 8.562 2.814 8.562 5.196 0 4.704 3.813 8.517 8.517 8.517s8.517-3.813 8.517-8.517c0-12.22-11.47-22.167-25.596-22.23v-5.475c0-4.704-3.813-8.517-8.517-8.517s-8.517 3.813-8.517 8.517v5.733c-14.432 1.763-25.565 12.387-25.565 25.198 0 10.043 5.131 17.782 14.448 21.79 3.179 1.368 6.796 2.323 11.117 2.917v17.6c-4.817-.063-8.532-2.818-8.532-5.196 0-4.704-3.813-8.517-8.517-8.517s-8.517 3.813-8.517 8.517c0 12.212 11.453 22.153 25.565 22.231v5.475c0 4.704 3.813 8.517 8.517 8.517s8.517-3.813 8.517-8.517v-5.729c14.447-1.752 25.596-12.383 25.596-25.202s-11.148-23.449-25.595-25.201zm-17.034-1.258c-8.52-1.719-8.532-5.259-8.532-7.427 0-3.183 3.351-6.65 8.532-7.919zm17.034 34.387v-15.855c5.198 1.262 8.562 4.737 8.562 7.927s-3.364 6.665-8.562 7.928z" opacity="1" data-original="#f6cd35" class=""></path><path fill="#f44545" d="m419.995 141.892-40.157 40.156c-1.662 1.663-3.842 2.495-6.022 2.495s-4.359-.831-6.022-2.495l-40.156-40.156a8.516 8.516 0 0 1 0-12.044 8.516 8.516 0 0 1 12.045 0l25.617 25.616v-74.93H230.887c-4.704 0-8.517-3.813-8.517-8.517s3.813-8.517 8.517-8.517h142.929a8.517 8.517 0 0 1 8.517 8.517v83.448l25.618-25.617c3.325-3.326 8.718-3.326 12.044 0s3.326 8.718 0 12.044z" opacity="1" data-original="#f44545"></path><path fill="#44bc58" d="M251.463 393.27a8.517 8.517 0 0 1-8.517 8.517H100.017a8.517 8.517 0 0 1-8.517-8.517v-83.448l-25.617 25.617a8.516 8.516 0 0 1-12.045 0 8.516 8.516 0 0 1 0-12.044l40.156-40.157a8.517 8.517 0 0 1 12.044 0l40.156 40.157a8.516 8.516 0 0 1 0 12.044 8.491 8.491 0 0 1-6.022 2.495 8.485 8.485 0 0 1-6.022-2.495l-25.617-25.617v74.932h134.413a8.515 8.515 0 0 1 8.517 8.516z" opacity="1" data-original="#44bc58" class=""></path></g></svg>