<svg xmlns="http://www.w3.org/2000/svg" version="1.1" xmlns:xlink="http://www.w3.org/1999/xlink" width="512" height="512" x="0" y="0" viewBox="0 0 512.001 512.001" style="enable-background:new 0 0 512 512" xml:space="preserve" class=""><g><path d="M93.091 162.909h372.364c25.706 0 46.546 20.84 46.546 46.546v186.182c0 25.706-20.84 46.546-46.546 46.546H93.091c-25.706 0-46.546-20.84-46.546-46.546V209.455c.001-25.707 20.84-46.546 46.546-46.546z" style="" fill="#ebd5ff" data-original="#ebd5ff"></path><path d="M442.182 186.182c25.706 0 46.546 20.84 46.546 46.546v46.545c0 25.706-20.84 46.546-46.546 46.546s-46.546-20.84-46.546-46.546v-46.546c.001-25.706 20.84-46.545 46.546-46.545zM232.727 325.819h93.091c12.853 0 23.272 10.419 23.272 23.272 0 12.853-10.419 23.272-23.272 23.272h-93.091c-12.853 0-23.272-10.419-23.272-23.272 0-12.853 10.419-23.272 23.272-23.272z" style="" fill="#dcb5ff" data-original="#dcb5ff"></path><path d="M442.182 186.182H116.364c0 25.706-20.84 46.545-46.546 46.546v139.636c25.706 0 46.545 20.839 46.546 46.545v.001h325.819c0-25.706 20.839-46.545 46.545-46.546h.001V232.728c-25.707-.001-46.546-20.84-46.547-46.546zM279.273 372.363c-38.559 0-69.818-31.259-69.818-69.818s31.259-69.818 69.818-69.818 69.818 31.259 69.818 69.818c.001 38.559-31.258 69.818-69.818 69.818z" style="" fill="#00c864" data-original="#00c864" class=""></path><path d="M442.182 186.182H116.364c0 25.706-20.84 46.545-46.546 46.546v93.091c0 25.706 20.84 46.545 46.546 46.546h162.909c-38.559 0-69.818-31.259-69.818-69.818s31.259-69.818 69.818-69.818 69.818 31.259 69.818 69.818-31.259 69.818-69.818 69.818h162.909c25.706 0 46.545-20.84 46.546-46.546v-93.091c-25.706-.001-46.545-20.84-46.546-46.546z" style="" fill="#00a84f" data-original="#00a84f"></path><path d="M46.546 69.818H418.91c25.706 0 46.546 20.84 46.546 46.546v186.182c0 25.705-20.84 46.545-46.546 46.545H46.546C20.84 349.091 0 328.251 0 302.545V116.364c0-25.706 20.84-46.546 46.546-46.546z" style="" fill="#f6edff" data-original="#f6edff" class=""></path><path d="M418.91 69.818H279.273c-12.853 0-23.272 10.418-23.272 23.271v.001c0 12.853-10.419 23.272-23.272 23.272H162.91c-12.853-.008-23.279 10.405-23.287 23.258s10.405 23.279 23.258 23.287h69.846c12.853.005 23.269 10.428 23.264 23.282-.005 12.847-10.417 23.259-23.264 23.264-12.854.001-23.273 10.42-23.273 23.273s10.419 23.272 23.272 23.272h69.818c12.853 0 23.272 10.419 23.272 23.272s-10.419 23.272-23.272 23.272H186.183c-12.853.005-23.269 10.428-23.264 23.282.005 12.847 10.417 23.259 23.264 23.264H418.91c25.706 0 46.545-20.84 46.546-46.546v-186.18c0-25.704-20.839-46.544-46.546-46.544.001 0 0 0 0 0z" style="" fill="#f0e1ff" data-original="#f0e1ff" class=""></path><path d="M395.637 93.091H69.819c0 25.706-20.84 46.546-46.546 46.546v139.636c25.706 0 46.546 20.839 46.546 46.545v.001h325.819c0-25.706 20.839-46.545 46.545-46.546h.001V139.636c-25.708 0-46.547-20.839-46.547-46.545zm-162.91 186.182c-38.559 0-69.818-31.259-69.818-69.818s31.259-69.818 69.818-69.818 69.818 31.259 69.818 69.818-31.257 69.818-69.818 69.818c.002 0 0 0 0 0z" style="" fill="#19e77c" data-original="#19e77c" class=""></path><path d="M395.637 325.819c0-25.706 20.839-46.545 46.545-46.546h.001V139.636c-25.706 0-46.545-20.84-46.546-46.546H256.001c0 12.853-10.419 23.272-23.272 23.272H162.91c-12.853-.008-23.279 10.405-23.287 23.258s10.405 23.279 23.258 23.287h18.147c25.552-28.691 69.526-31.236 98.217-5.684s31.236 69.526 5.684 98.217a68.12 68.12 0 0 1-.502.557h18.119c12.853.008 23.267 10.433 23.258 23.287-.008 12.842-10.416 23.251-23.258 23.258H186.183c-12.853 0-23.272 10.418-23.272 23.271v.001h232.727v.005z" style="" fill="#00c864" data-original="#00c864" class=""></path><path d="M9.641 455.815 455.815 9.64c12.853-12.853 33.693-12.853 46.546 0 12.853 12.853 12.853 33.693 0 46.546L56.186 502.361c-12.853 12.853-33.693 12.853-46.546 0-12.853-12.853-12.853-33.693.001-46.546z" style="" fill="#ff4957" data-original="#ff4957"></path></g></svg>