<svg xmlns="http://www.w3.org/2000/svg" version="1.1" xmlns:xlink="http://www.w3.org/1999/xlink" width="512" height="512" x="0" y="0" viewBox="0 0 52 52" style="enable-background:new 0 0 512 512" xml:space="preserve" class=""><g transform="matrix(1.0799999999999996,0,0,1.0799999999999996,-2.0799999999999947,-2.080030174255363)"><g fill="#4c5c75"><path d="M2.71 23.499c.05-.03.11-.05.17-.05-.09.02-.17.05-.24.09.02-.02.04-.03.07-.04zM3.735 23.516c-.308-.11-.597-.132-.854-.067.251-.072.54-.047.854.067zM4.11 23.689z" fill="#4c5c75" opacity="1" data-original="#4c5c75" class=""></path></g><path fill="#4c5c75" d="M42.89 34.349v2.25l-14.9 8.59L2 30.119l.01-5.23c.01-.67.25-1.14.63-1.35.07-.04.15-.07.24-.09.258-.065.547-.043.855.067-.313-.114-.603-.14-.854-.067-.06 0-.12.02-.17.05l14.81-8.55c.38-.22.91-.18 1.49.15.08.05.17.1.25.16l21.8 15.65c1.05.75 1.84 2.23 1.83 3.44z" opacity="1" data-original="#4c5c75" class=""></path><g fill="#1d2943"><path d="M2.71 23.499c.05-.03.11-.05.17-.05-.09.02-.17.05-.24.09.02-.02.04-.03.07-.04zM4.11 23.689zM3.735 23.516c-.308-.11-.597-.132-.854-.067.251-.072.54-.047.854.067z" fill="#1d2943" opacity="1" data-original="#1d2943" class=""></path></g><path fill="#4c5c75" d="m42.894 34.353-.007 2.246-14.897 8.593.005-2.244c.005-1.217-.783-2.697-1.831-3.45L4.368 23.856a3.033 3.033 0 0 0-.258-.166c-.574-.333-1.103-.366-1.486-.143l14.897-8.595c.383-.222.912-.189 1.488.143.083.05.17.104.256.168l21.796 15.64c1.05.754 1.836 2.234 1.833 3.449z" opacity="1" data-original="#4c5c75" class=""></path><path fill="#1d2943" d="M40.767 31.314 18.962 15.668a2.341 2.341 0 0 0-.205-.134c-.247-.143-.484-.218-.684-.218a.584.584 0 0 0-.3.074L4.253 23.192c.035.019.072.039.107.06.101.057.2.122.303.195l21.796 15.64c1.188.855 2.048 2.479 2.043 3.862l-.004 1.367 13.886-8.01.006-1.954c.003-1.048-.71-2.382-1.622-3.038z" opacity="1" data-original="#1d2943" class=""></path><path fill="#1d2943" d="M4.11 23.69c.085.05.171.105.258.167l21.796 15.641c1.049.754 1.835 2.234 1.832 3.45l-.006 2.244L2 30.115l.014-5.226c.004-1.343.959-1.855 2.096-1.199zM40.9 33.921c-.215-.111-.504-.086-.815.107l-8.386 5.206c-.622.392-1.108 1.295-1.08 2.028.012.363.15.615.36.727l-.395-.213c-.21-.112-.349-.364-.36-.727-.029-.733.458-1.636 1.08-2.024l8.385-5.21c.311-.193.6-.218.815-.107z" opacity="1" data-original="#1d2943" class=""></path><path fill="#4c5c75" d="M40.084 34.03c.622-.387 1.15-.112 1.176.62.027.731-.46 1.638-1.082 2.025l-8.383 5.206c-.624.389-1.15.112-1.177-.62-.026-.731.458-1.637 1.083-2.025z" opacity="1" data-original="#4c5c75" class=""></path><path fill="#1d2943" d="M40.88 34.666c.001.052-.002.11-.006.168a2.168 2.168 0 0 1-.297.869c-.022.035-.038.065-.06.095a1.796 1.796 0 0 1-.54.551l-.272.172-3.016 1.863-1.53.955-.983.613-.325.202-.364.227-.978.607-.682.422-.233.147a.679.679 0 0 1-.321.115c-.226.008-.264-.264-.275-.426a1.441 1.441 0 0 1 .02-.267c.033-.216.113-.45.228-.664v-.005c.163-.313.398-.588.66-.747l.022-.013.694-.435 1.962-1.219 1.524-.95 4.175-2.591a.68.68 0 0 1 .322-.115c.226-.008.27.264.275.426z" opacity="1" data-original="#1d2943" class=""></path><path fill="#1d2943" d="M40.88 34.666a1.683 1.683 0 0 1-.012.218 2.19 2.19 0 0 1-.29.818c-.022.036-.039.067-.06.096-.151.231-.335.423-.54.55l-.274.173-3.016 1.863-1.528.956-.137.085-.847.527-.324.202-.12.074-.245.153-.935.58-.002.002-.04.025-.683.422-.107.068-.125.08c-.155.09-.258.113-.323.114-.225.008-.264-.263-.274-.425a1.245 1.245 0 0 1 .009-.18c.001-.03.006-.059.01-.088.034-.217.114-.45.229-.664v-.005a.615.615 0 0 1 .038-.067c0-.003.003-.008.004-.01.16-.282.377-.524.617-.67l.024-.013.693-.434 1.768-1.099.194-.12 1.524-.95.54-.334 1.8-1.12 1.676-1.04.16-.098a.667.667 0 0 1 .32-.115c.227-.007.27.264.275.426z" opacity="1" data-original="#1d2943" class=""></path><path fill="#dba660" d="M50 40.419v.99c0 .16-.11.31-.32.43l-7.88 4.59c-.42.24-1.09.24-1.52-.01-.01 0-.07-.04-.1-.05-.43-.26-2.32-1.35-9.17-5.3 0-.03 0-.06.01-.09.03-.22.11-.45.23-.66v-.01c.01-.02.02-.04.03-.07 0 0 .01 0 .01-.01.16-.28.37-.52.61-.67l.03-.01c5.43-3.37 8.19-5.09 8.19-5.1 7.46 4.31 9.09 5.25 9.37 5.42 0 0 0-.01.01 0h.01l.01.01h.01c.03.02.08.05.15.09.21.13.32.28.32.45z" opacity="1" data-original="#dba660"></path><path fill="#aa6256" d="M50 40.42v.992c0 .159-.108.31-.317.431l-7.88 4.585c-.418.246-1.094.246-1.518-.006l-9.278-5.355c.001-.03.006-.059.01-.088.034-.217.114-.45.229-.664v-.005a.615.615 0 0 1 .038-.067c0-.003.003-.008.004-.01l.31.179c9.067 5.235-4.816-2.778 8.694 5.016.417.244 1.093.244 1.51 0l7.888-4.577c.21-.122.31-.282.31-.432z" opacity="1" data-original="#aa6256"></path><path fill="#dba660" d="M50 40.42c0 .15-.1.309-.31.43l-7.887 4.578c-.418.244-1.094.244-1.511 0l-8.694-5.016-.31-.18c.16-.281.377-.523.617-.67l.024-.012 8.195-5.096 9.559 5.519c.209.122.316.28.316.446z" opacity="1" data-original="#dba660"></path><g opacity=".3"><path fill="#f8f9fe" d="M44.992 38.031c.051.029.078.05.078.069-.022.153.147.271.166.419.005.047.07.088-.031.129a.277.277 0 0 1-.26-.019c-.036-.023-.059-.034-.09-.052-.06.06-.134.114-.145.165-.003.008.005.016.019.024.031.018.094.036.12.049.066-.028.093-.046.13-.049.18-.008.356-.017.542-.022.007.04.017.077.033.118-.028.034-.031.06.002.08.065.198.094.393.101.586.003.065.003.128.004.191-.007.065-.004.13-.013.195a2.73 2.73 0 0 1-.024.191c-.009.042-.015.083-.024.123-.015.088-.04.176-.062.26-.014.034-.025.073-.036.106-.105.293-.249.58-.443.857a4.295 4.295 0 0 1-.58.69 5.643 5.643 0 0 1-.88.703l-.318.02-.112.005c-.175-.046-.284.025-.397.088-.082.042-.154.09-.25.116a.5.5 0 0 1-.347-.027c-.061-.035-.03-.078.072-.146.221-.145.414-.301.488-.487l.01-.051c-.102-.133.029-.254.12-.378.017-.026.008-.069-.02-.09-.089-.062-.191-.118-.285-.18-.045-.037-.132-.068-.06-.134.014-.013-.032-.05-.057-.073-.13-.085-.187-.179-.108-.306.02-.036-.05-.085-.085-.13l-.06.004c-.074.112-.175.224-.222.339-.018.042-.01.072.023.092.047.026.143.033.291.024a1.353 1.353 0 0 1-.013.142c-.02.072-.074.12-.217.121-.039.001-.089.012-.11.032-.133.1-.296.098-.467.065-.137-.029-.282-.065-.419-.094-.09-.019-.196-.032-.33-.054-.048-.036-.046-.095.04-.158.036-.024.052-.054.07-.086.08-.101.156-.204.219-.312.022-.034.03-.07.038-.104l.013-.032a.178.178 0 0 1 .054-.097c.041-.042.111-.075.161-.117a.22.22 0 0 0 .059-.11c-.003-.023-.046-.046-.067-.068-.038.017-.09.029-.11.049-.078.081-.15.166-.22.249a2.556 2.556 0 0 1-.174.167c-.056.064-.12.128-.165.193-.076.116-.126.237-.19.357-.04.083.023.15.12.206.044.026.097.05.149.07l.034.016c.028.016.05.038.075.056-.05.02-.1.042-.156.059-.12.028-.243.046-.361.078a2.03 2.03 0 0 1-.782.05c-.268-.04-.452-.002-.63.145-.105.081-.2.165-.293.251-.149.145-.49.253-.753.219a.803.803 0 0 0-.552.109c-.122.074-.324.104-.49.153-.077.02-.159.036-.234.061-.06.02-.124.039-.183.052l-.771-.445c.076-.121.133-.228.253-.319.187-.157.352-.321.563-.47.19-.14.426-.26.65-.383.197-.099.212-.237.294-.36.058-.082.097-.142.26-.17.095-.016.184-.08.258-.13.02-.014-.007-.061-.03-.083-.05-.036-.098-.056-.075-.12.014-.036-.006-.063-.042-.083a.64.64 0 0 0-.16-.053c-.153-.043-.31-.084-.427-.152a.391.391 0 0 1-.146-.135c-.08-.133-.166-.269-.014-.418.027-.029.031-.068.036-.102.001-.125.11-.223.28-.303.17-.078.38-.132.48-.26.016-.02.12-.023.186-.03.082-.01.173-.005.255-.023.093-.02.177-.053.275-.02l.08-.004c.092-.073.224-.067.344-.077l.057-.011c.124-.072.224-.063.307-.015.02.011.039.025.057.04a.454.454 0 0 1 .411-.008c.034.014.08.027.116.038.069.021.14.035.212.057l.077.013c.18.085.36.173.572.272-.104.034-.183.065-.263.084-.127.035-.129.054-.074.12.075.08.108.175.15.265.01.03.002.064.004.097a.07.07 0 0 0 .03.04c.021.013.054.011.102-.01.121-.052.178-.07.222-.045a.235.235 0 0 1 .072.085.922.922 0 0 0 .328.296c.045.026.094.051.147.075.084.041.177.05.29.021.098-.032.2-.06.286-.097.105-.044.11-.086.036-.128a3.277 3.277 0 0 1-.291-.148c-.09-.052-.07-.111.007-.174a.296.296 0 0 0 .098-.112c.008-.03-.026-.057-.037-.082-.055.01-.114.019-.141.037-.095.071-.195.074-.336.053.074-.086.138-.165.215-.241.072-.063.078-.115-.001-.169-.087-.058-.147-.118-.017-.199.02-.014-.008-.054-.03-.082-.13.075-.13.154-.092.238.03.064-.032.105-.115.149-.08.033-.16.07-.228.036.06-.07.13-.13.165-.193.02-.038-.002-.083-.012-.12l-.043-.054a.628.628 0 0 0-.277-.264l-.102-.025c-.161.011-.314.028-.466.043-.136.013-.282.026-.386.097l-.075.012c0-.054-.02-.092-.062-.117a.304.304 0 0 0-.12-.033c-.03-.051-.049-.096-.074-.15.075-.033.163-.074.254-.113.034-.017.086-.034.107-.06.051-.067.106-.072.177-.039l.027.016a.18.18 0 0 0 .028.02c.023.013.05.023.077.035.184.08.225.075.409-.024.077-.039.127-.073.138-.138.008-.066.106-.072.19-.04a.44.44 0 0 0 .178.04 7.73 7.73 0 0 0 .52-.027.299.299 0 0 1 .219.055.223.223 0 0 0 .027.018c.066.038.139.03.218-.015.073-.048.154-.09.265-.136-.01.035-.024.07-.033.101-.027.107.044.208.168.28a.86.86 0 0 0 .414.103c.147.002.3.027.45-.023.02-.007.07.012.097.022.117.057.296.04.418-.055l-.442-.187c-.005-.071.127-.145.347-.173.084-.006.173-.015.243-.038.041-.013.061-.054.09-.084-.047-.004-.088-.02-.136-.019-.134.004-.266.01-.398.025-.195.024-.379.076-.533.165a1.509 1.509 0 0 1-.32.13.294.294 0 0 1-.161-.014c-.018-.01.011-.057.022-.084.013-.08.04-.156.03-.232-.03-.022-.117-.031-.17-.043-.04-.01-.113-.014-.135-.026-.02-.032.01-.081.046-.1.113-.057.229-.109.351-.154.055-.018.127-.015.196-.018.177.005.356.014.538.014.057 0 .123-.029.184-.04.06-.01.12-.02.184-.028.061-.007.137-.003.184-.022.225-.08.377-.014.535.05.104.046.22.092.323.14z" opacity="1" data-original="#f8f9fe"></path><g opacity=".5"><path fill="#f8f9fe" d="M35.095 39.792c.007.051-.035.109-.115.137a.474.474 0 0 1-.159.057c-.02 0-.035.008-.057.015h-.015c-.05.007-.108.03-.158.037-.042.007-.107.028-.144.02-.187-.057-.31.023-.439.065-.096.037-.178.081-.275.105a.54.54 0 0 1-.193.017l-.108-.007c-.13-.078-.301-.02-.438-.043-.036-.007-.093.015-.115.03a.812.812 0 0 1-.59.115c-.05-.008-.101 0-.145.007-.143.035-.223.035-.287-.007a.21.21 0 0 1-.095-.087l-.02-.028-.058-.008c-.014.05-.064.1-.059.145-.005.02-.013.043-.027.05 0 .007 0 .007-.008.007l-.306-.176c0-.003.003-.008.004-.01.16-.282.377-.524.617-.67l.024-.013.693-.434 1.768-1.099c.017.03.042.056.072.077.022.007.03.015.042.022.188.108.252.272.11.417-.045.044-.052.08 0 .109.013.013.035.02.072.028.02.007.042.014.063.03.109.064.137.179.037.251-.13.1-.13.18-.008.252.022.013.05.02.08.035.007.008.02.008.028.015.03.022.051.043.072.057a.566.566 0 0 1 .065.115c.054.122.06.246.072.367zM38.565 36.618c-.045-.007-.087-.02-.145-.028-.18-.029-.366-.051-.554-.086-.223-.03-.425-.015-.583.1-.05.036-.101.03-.159 0-.028-.014-.057-.028-.092-.043-.102-.05-.195-.057-.29.015a.137.137 0 0 1-.095.037l1.801-1.12a.121.121 0 0 1 .03.096c0 .065.05.137.072.21-.072.036-.16.071-.23.107l.02.051.354-.044.028.03c-.202.201-.266.409-.157.675z" opacity="1" data-original="#f8f9fe"></path></g></g><path fill="#f8f9fe" d="m42.283 44.145-.872.507-1.904-1.1.872-.506zM39.558 42.572l-.872.507-1.904-1.1.872-.507zM36.831 40.997l-.872.507-1.902-1.098.872-.507zM34.105 39.424l-.871.506-.996-.574.384-.24.457-.284z" opacity="1" data-original="#f8f9fe"></path><path fill="#ffd06c" d="m46.148 40.566.566-.33.655.379-.567.329zM47.837 39.917c.203.117.202.308 0 .425l-.28.163-.655-.378.648-.376zM45.567 39.575l-.566.329-.652-.377.566-.329z" opacity="1" data-original="#ffd06c" class=""></path><path fill="#febc1f" d="m46.595 39.2-2.236 1.299-.192-.11.646-.376-.652-.377.188-.109.652.377.566-.33-.652-.376.188-.11.652.377.648-.376z" opacity="1" data-original="#febc1f"></path><path fill="#ffd06c" d="m45.314 41.05.646-.375.654.378-.28.163a.81.81 0 0 1-.735.002l-1.717-.992c-.203-.117-.204-.31-.002-.426l.28-.164.653.377-.646.375.192.11 2.236-1.299.766.443-2.236 1.3z" opacity="1" data-original="#ffd06c" class=""></path><path fill="#ffd06c" d="m46.403 39.089-.648.376-.652-.376.28-.164a.815.815 0 0 1 .737 0z" opacity="1" data-original="#ffd06c" class=""></path><path fill="#febc1f" d="m47.55 39.75-.648.377.655.378-.186.11-.657-.378-.566.329.654.378-.185.11-.657-.379-.646.375-.19-.109 2.237-1.3z" opacity="1" data-original="#febc1f"></path><path fill="#e3e7f0" d="M7.638 21.98c-.296.175-.302.512-.011.754.29.242.766.297 1.063.122l8.888-5.233c.295-.174.3-.511.01-.753-.291-.243-.766-.297-1.062-.123z" opacity="1" data-original="#e3e7f0" class=""></path><path fill="#1d2943" d="M8.284 22.734a.812.812 0 0 1-.514-.173c-.09-.075-.139-.161-.133-.236.006-.073.066-.123.115-.152l8.888-5.232a.595.595 0 0 1 .291-.071.81.81 0 0 1 .513.172c.09.076.14.162.133.238-.005.072-.065.122-.113.15l-8.888 5.233a.597.597 0 0 1-.292.07z" opacity="1" data-original="#1d2943" class=""></path><path fill="#9ea9c9" d="M17.578 17.28c-.007.072-.065.122-.114.15l-.424.251-8.464 4.981-.018.01a.607.607 0 0 1-.274.062.785.785 0 0 1-.513-.172c-.092-.076-.14-.162-.134-.237.006-.073.066-.123.116-.152l.446-.262.354-.208 8.087-4.762a.584.584 0 0 1 .291-.07c.035-.001.07 0 .104.006a.777.777 0 0 1 .41.165c.09.076.138.162.133.238z" opacity="1" data-original="#9ea9c9"></path><path fill="#4c5c75" d="m30.235 24.698-12.55 7.195-10.49-7.533 12.55-7.196z" opacity="1" data-original="#4c5c75" class=""></path><path fill="#57b3fe" d="m26.67 22.77-11.552 6.623-6.94-4.984 11.552-6.624z" opacity="1" data-original="#57b3fe" class=""></path><path fill="#5094ff" d="m8.558 24.429.537.385 10.624-6.101-.006-.687z" opacity="1" data-original="#5094ff"></path><path fill="#3d7cea" d="m19.713 18.026.006.687 6.047 4.338.53-.302z" opacity="1" data-original="#3d7cea"></path><path fill="#497bfe" d="m9.095 24.814 6.037 4.337 10.634-6.1-6.047-4.338z" opacity="1" data-original="#497bfe" class=""></path><path fill="#78e75a" d="M24.79 26.559c0 .02 0 .03-.01.03l-.1.67c-.01.09-.06.17-.16.23l-2.48 1.45c-.22.13-.58.11-.8-.06l-1.03-.77c-.13-.09-.18-.21-.17-.32l.11-.67c0-.1.06-.18.17-.25l2.47-1.46c.23-.13.59-.1.81.06l1.03.78c.12.09.18.21.16.31z" opacity="1" data-original="#78e75a"></path><path fill="#5ec363" d="m24.791 26.561-.109.7c-.011.086-.066.167-.165.225l-2.475 1.456c-.223.131-.584.103-.806-.064l-1.028-.77c-.124-.093-.177-.21-.163-.317l.108-.7c-.015.108.04.224.164.317l1.026.77c.222.167.585.195.808.064l2.473-1.456c.1-.059.156-.14.167-.225z" opacity="1" data-original="#5ec363"></path><path fill="#78e75a" d="M20.32 26.866c-.224.132-.226.375-.003.541l1.026.77c.223.168.585.196.808.064l2.474-1.456c.223-.132.225-.374.002-.54l-1.026-.771c-.223-.167-.585-.196-.808-.064z" opacity="1" data-original="#78e75a"></path><path fill="#ffd06c" d="m28.19 24.379-.07.47c-.01.06-.05.12-.11.16l-1.69.99c-.16.09-.4.07-.55-.04l-.7-.53c-.09-.06-.13-.14-.12-.22l.08-.44c-.01-.07.03-.14.11-.19l1.69-.99c.15-.09.4-.07.55.04l.7.53c.11.08.14.2.08.29.02-.02.03-.05.03-.07z" opacity="1" data-original="#ffd06c" class=""></path><path fill="#febc1f" d="m28.193 24.374-.075.478c-.007.058-.045.113-.112.153L26.317 26a.54.54 0 0 1-.55-.044l-.701-.526c-.085-.063-.121-.142-.111-.216l.073-.478c-.01.074.027.153.112.217l.7.525c.152.114.4.133.552.044l1.687-.994c.068-.04.106-.094.114-.153z" opacity="1" data-original="#febc1f"></path><path fill="#ffd06c" d="M25.142 24.582c-.153.09-.154.256-.002.37l.7.525a.54.54 0 0 0 .552.043l1.687-.993c.153-.09.154-.255.002-.37l-.7-.525a.54.54 0 0 0-.552-.043zM19.88 29.139l-.07.48c-.01.06-.05.11-.12.15l-1.68.99c-.16.09-.4.07-.55-.04l-.71-.52c-.08-.07-.12-.15-.11-.22l.08-.45v-.01c0-.06.03-.12.11-.17l1.69-1c.15-.09.4-.07.55.05l.7.52c.08.07.12.15.11.22z" opacity="1" data-original="#ffd06c" class=""></path><path fill="#febc1f" d="m19.882 29.139-.075.478c-.007.058-.045.113-.112.153l-1.689.993a.54.54 0 0 1-.55-.044l-.701-.525c-.085-.063-.121-.143-.111-.216l.073-.478c-.01.074.027.153.112.216l.7.526c.152.114.4.133.552.044l1.687-.994c.068-.04.106-.095.114-.153z" opacity="1" data-original="#febc1f"></path><path fill="#ffd06c" d="M16.83 29.347c-.152.09-.153.255-.001.37l.7.525a.54.54 0 0 0 .552.043l1.687-.993c.153-.09.154-.255.002-.37l-.7-.525a.54.54 0 0 0-.552-.043z" opacity="1" data-original="#ffd06c" class=""></path><path fill="#57b3fe" d="m34.69 34.239-.09.54a.22.22 0 0 1-.13.17l-1.91 1.13c-.18.1-.46.08-.63-.05l-.79-.59c-.1-.08-.14-.17-.13-.25l.08-.52c0-.07.04-.15.13-.2l1.92-1.12c.17-.11.45-.09.62.04l.8.6c.12.09.15.21.11.3.01-.02.02-.03.02-.05z" opacity="1" data-original="#57b3fe" class=""></path><path fill="#497bfe" d="m34.687 34.236-.083.542c-.01.066-.053.129-.13.174l-1.916 1.128c-.173.102-.454.08-.626-.05l-.795-.596c-.096-.072-.139-.162-.127-.246l.084-.542c-.011.083.031.173.126.245l.796.597c.173.13.452.151.627.05l1.916-1.129c.076-.045.119-.107.128-.173z" opacity="1" data-original="#497bfe" class=""></path><path fill="#57b3fe" d="M31.223 34.472c-.174.102-.174.29-.002.42l.795.596c.172.13.453.151.626.05l1.917-1.129c.173-.102.174-.29.002-.42l-.796-.596c-.172-.13-.453-.151-.626-.05z" opacity="1" data-original="#57b3fe" class=""></path><path fill="#5ec363" d="m38.89 31.769-.08.53c-.01.07-.05.13-.13.18l-1.91 1.12c-.18.11-.46.08-.63-.05l-.8-.59c-.09-.07-.13-.16-.12-.25l.08-.51v-.01c0-.08.05-.14.13-.19l1.92-1.13c.17-.1.45-.08.62.05l.8.59c.1.08.14.17.12.26z" opacity="1" data-original="#5ec363"></path><path fill="#5ec363" d="m38.895 31.758-.085.543c-.009.066-.051.129-.128.174l-1.916 1.128c-.174.101-.454.08-.626-.05l-.796-.596c-.095-.072-.138-.162-.126-.246l.083-.543c-.012.083.03.174.127.246l.796.597c.171.129.452.15.625.048l1.916-1.128c.078-.045.12-.106.13-.173z" opacity="1" data-original="#5ec363"></path><path fill="#78e75a" d="M35.43 31.994c-.173.103-.174.29-.002.42l.796.597c.172.129.452.15.626.049l1.916-1.129c.173-.102.174-.29.002-.419l-.795-.597c-.173-.129-.453-.15-.627-.049z" opacity="1" data-original="#78e75a"></path><path fill="#f45170" d="m30.48 36.709-.08.55c-.01.06-.06.12-.13.17l-1.92 1.13c-.17.1-.45.08-.62-.05l-.8-.6c-.1-.07-.14-.16-.13-.24l.08-.51c0-.01 0-.03.01-.04 0-.07.05-.13.13-.17l1.91-1.13c.18-.1.46-.08.63.05l.79.6c.1.07.14.16.13.24z" opacity="1" data-original="#f45170" class=""></path><path fill="#df3260" d="m30.48 36.712-.084.543c-.009.066-.051.128-.128.173l-1.917 1.129c-.173.102-.454.08-.625-.049l-.796-.598c-.096-.072-.138-.162-.126-.245l.083-.543c-.012.084.031.174.127.246l.795.598c.172.128.453.15.626.048l1.916-1.128c.077-.045.12-.108.13-.174z" opacity="1" data-original="#df3260"></path><path fill="#f45170" d="M27.016 36.949c-.173.102-.174.29-.002.419l.795.597c.172.13.453.151.626.05l1.917-1.13c.173-.101.174-.289.002-.418l-.796-.597c-.172-.13-.452-.151-.626-.05z" opacity="1" data-original="#f45170" class=""></path><g fill="#e3e7f0"><path d="m30.84 28.549 1.91-1.13c.18-.1.46-.08.63.05l.79.6c.1.07.15.16.13.25l-.08.54c-.01.06-.05.12-.13.17l-1.92 1.13c-.17.1-.45.08-.62-.05l-.8-.6c-.09-.07-.14-.16-.13-.25l.08-.5v-.01c0-.01 0-.02.01-.03 0-.07.05-.13.13-.17zM29.17 29.949l.8.59c.11.08.15.19.11.28l-.07.51c-.01.07-.05.13-.13.18l-1.92 1.12c-.17.11-.45.08-.62-.05l-.8-.59c-.09-.07-.14-.16-.12-.25l.08-.51v-.01c0-.08.04-.14.13-.19l1.91-1.13c.18-.1.46-.08.63.05zM28.46 27.789c-.1-.07-.14-.16-.13-.25l.08-.51v-.01c0-.08.04-.14.13-.19l1.92-1.13c.17-.1.45-.08.62.05l.8.59c.12.09.16.21.1.31.02-.02.03-.04.03-.06l-.09.54a.22.22 0 0 1-.13.17l-1.91 1.13c-.18.11-.46.08-.63-.05zM32.26 32.269c.1.07.14.16.13.24l-.08.55c-.01.06-.05.12-.13.17l-1.92 1.13c-.17.1-.45.08-.62-.05l-.8-.6c-.1-.07-.14-.16-.13-.24l.08-.51v-.01c0-.01 0-.02.01-.03 0-.07.05-.13.13-.17l1.91-1.13c.18-.1.46-.08.63.05zM23.38 32.259l-1.92 1.13c-.17.1-.45.08-.62-.05l-.8-.6c-.1-.07-.14-.16-.13-.24l.08-.51v-.01c0-.01 0-.02.01-.03 0-.07.05-.13.13-.17l1.91-1.13c.18-.1.46-.08.63.05l.79.6c.1.07.14.16.13.24l-.08.55c-.01.06-.06.12-.13.17zM24.25 30.269c-.1-.08-.14-.17-.13-.25l.08-.52c0-.07.05-.14.13-.2l1.92-1.12c.17-.11.45-.09.63.04l.79.6c.12.09.15.21.11.3.01-.02.02-.03.02-.05l-.09.54a.23.23 0 0 1-.12.17l-1.92 1.13c-.17.1-.45.08-.63-.05zM25.67 33.979l-1.91 1.13c-.17.1-.46.08-.63-.05l-.79-.59c-.1-.08-.14-.17-.13-.25l.08-.52c0-.07.04-.14.13-.2l1.92-1.12c.17-.11.45-.08.62.04l.8.6c.12.09.15.21.11.3.01-.02.02-.03.02-.05l-.09.54c0 .07-.05.13-.13.17zM28.06 34.739c.11.08.15.19.11.28l-.07.51c-.01.07-.05.13-.13.18l-1.91 1.12c-.18.11-.46.09-.63-.04l-.8-.6c-.09-.07-.13-.16-.12-.25l.08-.51v-.01c0-.08.04-.14.13-.19l1.92-1.13c.17-.1.45-.08.62.05zM36.6 30.039l-.09.54c0 .06-.05.13-.12.17l-1.92 1.13c-.17.1-.45.08-.63-.05l-.79-.6c-.1-.07-.14-.16-.13-.24l.08-.5.01-.04c0-.07.05-.13.12-.18l1.92-1.13c.17-.1.45-.08.63.05l.79.6c.12.09.15.21.11.3.01-.02.02-.03.02-.05z" fill="#e3e7f0" opacity="1" data-original="#e3e7f0" class=""></path></g><path fill="#b0b8cf" d="m27.799 29.066-.085.542c-.009.066-.051.129-.128.174L25.67 30.91c-.173.102-.453.08-.625-.05l-.796-.596c-.097-.072-.138-.162-.126-.246l.083-.542c-.012.083.03.173.127.246l.795.596c.172.13.453.151.626.05l1.916-1.128c.078-.046.12-.108.13-.174z" opacity="1" data-original="#b0b8cf" class=""></path><path fill="#e3e7f0" d="M24.334 29.302c-.174.102-.175.29-.002.42l.795.596c.173.13.453.151.626.05l1.916-1.129c.174-.102.175-.29.003-.42l-.796-.596c-.172-.13-.453-.151-.626-.05z" opacity="1" data-original="#e3e7f0" class=""></path><path fill="#b0b8cf" d="m32.392 32.512-.085.542c-.009.067-.051.129-.13.174l-1.915 1.128c-.173.103-.454.081-.625-.048l-.796-.598c-.097-.072-.14-.162-.128-.244l.085-.544c-.012.084.03.174.126.246l.796.597c.172.13.453.152.626.049l1.916-1.128c.077-.045.12-.108.13-.174z" opacity="1" data-original="#b0b8cf" class=""></path><path fill="#e3e7f0" d="M28.927 32.749c-.174.102-.175.29-.002.419l.795.597c.172.13.453.151.626.05l1.916-1.13c.174-.101.175-.29.003-.418l-.796-.597c-.173-.13-.453-.152-.626-.05z" opacity="1" data-original="#e3e7f0" class=""></path><path fill="#b0b8cf" d="m32.006 26.587-.084.544c-.009.066-.052.127-.13.172l-1.915 1.129c-.174.102-.454.08-.627-.049l-.794-.596c-.097-.072-.14-.162-.128-.246l.084-.543c-.01.083.032.173.127.245l.796.598c.172.13.453.15.626.048l1.916-1.128c.077-.045.12-.106.13-.174z" opacity="1" data-original="#b0b8cf" class=""></path><path fill="#e3e7f0" d="M28.541 26.824c-.173.103-.174.29-.002.42l.796.597c.172.13.452.15.626.049l1.916-1.129c.173-.102.175-.29.002-.419l-.796-.597c-.172-.129-.452-.15-.626-.049z" opacity="1" data-original="#e3e7f0" class=""></path><path fill="#b0b8cf" d="m34.303 28.31-.084.545c-.01.066-.052.127-.13.172l-1.916 1.129c-.173.102-.454.08-.626-.05l-.796-.597c-.095-.072-.138-.162-.126-.246l.084-.542c-.011.084.03.174.126.246l.796.597c.173.13.453.152.627.049l1.916-1.128a.247.247 0 0 0 .129-.174z" opacity="1" data-original="#b0b8cf" class=""></path><path fill="#e3e7f0" d="M30.837 28.548c-.173.102-.174.29-.002.419l.796.597c.172.13.453.151.626.05l1.917-1.129c.173-.102.174-.29.001-.42l-.795-.597c-.173-.129-.453-.15-.626-.049z" opacity="1" data-original="#e3e7f0" class=""></path><path fill="#b0b8cf" d="m36.598 30.035-.083.542c-.009.066-.053.129-.13.174l-1.915 1.128c-.173.103-.454.08-.627-.048l-.796-.598c-.095-.072-.137-.162-.126-.246l.085-.542c-.012.083.03.173.126.245l.796.597c.172.13.452.151.625.05l1.917-1.129c.077-.045.12-.107.128-.173z" opacity="1" data-original="#b0b8cf" class=""></path><path fill="#e3e7f0" d="M33.134 30.271c-.173.102-.175.29-.002.42l.795.596c.173.13.453.152.626.05l1.917-1.129c.173-.102.174-.29.002-.419l-.796-.597c-.172-.13-.452-.151-.626-.05z" opacity="1" data-original="#e3e7f0" class=""></path><path fill="#b0b8cf" d="m23.591 31.542-.083.543c-.009.066-.053.128-.13.174l-1.915 1.128c-.173.103-.454.08-.627-.049l-.796-.597c-.095-.073-.137-.163-.126-.246l.085-.543c-.012.084.03.174.126.246l.796.596c.172.131.452.152.625.05l1.917-1.128c.077-.045.12-.108.128-.174z" opacity="1" data-original="#b0b8cf" class=""></path><path fill="#e3e7f0" d="M20.127 31.779c-.173.102-.174.29-.002.419l.795.597c.173.13.453.151.626.05l1.917-1.13c.173-.101.174-.289.002-.418l-.796-.597c-.172-.13-.452-.151-.626-.05z" opacity="1" data-original="#e3e7f0" class=""></path><path fill="#b0b8cf" d="m25.888 33.266-.083.542c-.01.067-.053.13-.13.174l-1.916 1.129c-.173.1-.454.079-.626-.05l-.796-.597c-.097-.072-.138-.162-.126-.246l.083-.542c-.012.084.03.174.127.246l.795.596c.174.13.453.151.626.05l1.918-1.128c.076-.045.119-.108.128-.174z" opacity="1" data-original="#b0b8cf" class=""></path><path fill="#e3e7f0" d="M22.423 33.502c-.173.102-.174.29-.002.42l.795.596c.173.13.454.152.627.05l1.916-1.129c.174-.102.175-.29.002-.419l-.796-.597c-.172-.13-.452-.151-.626-.05z" opacity="1" data-original="#e3e7f0" class=""></path><path fill="#b0b8cf" d="m28.184 34.99-.084.542c-.01.066-.052.128-.128.173l-1.916 1.128c-.175.103-.454.08-.627-.049l-.796-.596c-.096-.072-.137-.162-.126-.246l.083-.542c-.011.082.031.172.128.244l.796.598c.17.13.452.151.625.048l1.916-1.128c.078-.045.12-.106.13-.172z" opacity="1" data-original="#b0b8cf" class=""></path><path fill="#e3e7f0" d="M24.72 35.226c-.174.102-.175.29-.002.419l.795.597c.172.129.453.151.626.049l1.916-1.128c.174-.102.175-.29.003-.42l-.796-.596c-.173-.13-.453-.152-.626-.05z" opacity="1" data-original="#e3e7f0" class=""></path><path fill="#b0b8cf" d="m30.093 30.789-.083.542c-.009.067-.053.129-.13.174l-1.915 1.128c-.173.102-.454.08-.627-.05l-.794-.596c-.097-.072-.14-.162-.128-.246l.085-.542c-.012.084.03.174.126.246l.796.596c.172.13.452.151.626.05l1.916-1.128c.077-.046.12-.108.128-.174z" opacity="1" data-original="#b0b8cf" class=""></path><path fill="#e3e7f0" d="M26.63 31.025c-.174.102-.175.29-.003.42l.796.596c.172.13.452.152.626.05l1.916-1.129c.173-.102.174-.29.002-.419l-.796-.597c-.172-.13-.452-.151-.626-.05z" opacity="1" data-original="#e3e7f0" class=""></path><path fill="#f45170" d="M15.338 22.068c-1.157.681-1.162 1.916-.01 2.757 1.15.839 3.022.969 4.18.287 1.16-.683 1.163-1.917.014-2.756-1.152-.842-3.024-.971-4.184-.288z" opacity="1" data-original="#f45170" class=""></path><path fill="#ffffff" d="m17.335 22.384-.015 1.691-1.113-.112-.01.504 1.717.174.017-2.198z" opacity="1" data-original="#ffffff"></path><path fill="#111d33" d="m26.51 43.009-.01 1.31-.98.57-22.9-13.28.02-3.94c0-.59.21-1 .54-1.19h.01l.97-.56c.34-.2.8-.17 1.31.12 10.29 7.356 12.002 8.604 19.43 13.93.92.66 1.61 1.97 1.61 3.04z" opacity="1" data-original="#111d33" class=""></path><path fill="#4c5c75" d="m26.51 43.004-.006 1.318-.985.567.005-1.316c.004-1.071-.69-2.375-1.614-3.04L4.71 26.757a2.673 2.673 0 0 0-.227-.147c-.506-.293-.972-.321-1.309-.125l.986-.57c.337-.195.803-.165 1.31.127.074.044.15.092.226.148l19.2 13.777c.925.664 1.617 1.968 1.615 3.038z" opacity="1" data-original="#4c5c75" class=""></path><path fill="#111d33" d="M4.483 26.61c.075.042.15.091.227.146l19.2 13.778c.924.664 1.617 1.968 1.614 3.039l-.005 1.317L2.624 31.609l.013-3.944c.003-1.183.844-1.634 1.846-1.056z" opacity="1" data-original="#111d33" class=""></path><path fill="#dedffb" d="M16.96 16.869c0 .3-.01.59-.04.88-15.737 9.266-2.402 1.412-8.35 4.91 0 0-.01.01-.02.01-.07.04-.16.06-.25.06.05-.31.09-.62.11-.94.25-3.5-1.07-7.05-3.97-10.76l.35-.45 7.87-4.56c2.87 3.68 4.32 7.32 4.3 10.85z" opacity="1" data-original="#dedffb"></path><path fill="#f3f1fc" d="M16.959 16.873c0 .293-.01.586-.04.88l-.546.322-.566.334-5.697 3.353-.525.303-.545.323c.03-.333.05-.666.05-1 .01-3.515-1.434-7.14-4.303-10.807l7.869-4.566c2.878 3.687 4.323 7.323 4.303 10.858z" opacity="1" data-original="#f3f1fc"></path><path fill="#ffffff" d="M16.443 17.065a11.3 11.3 0 0 1-.07 1.01l-.566.334-5.697 3.353-.525.303c.02-.323.02-.646.01-.98-.06-3.383-1.414-6.848-4.04-10.353l6.97-4.05c2.676 3.535 3.979 7.02 3.918 10.383z" opacity="1" data-original="#ffffff"></path><path fill="#dedffb" d="M9.09 21.388c0 .334-.02.667-.05 1l-.465.273s-.01.01-.02.01a.519.519 0 0 1-.253.06c.05-.312.091-.626.112-.939.242-3.505-1.071-7.05-3.97-10.767l.343-.444C7.656 14.247 9.1 17.873 9.09 21.388zM12.78 7.9 6.692 11.43c-.103-.133-.195-.267-.298-.41l6.089-3.542c.092.143.195.277.297.42zM13.745 9.419l-6.098 3.542c-.082-.144-.164-.298-.267-.441l6.098-3.542c.093.143.175.297.267.441zM14.577 11.02l-6.088 3.532c-.072-.154-.144-.308-.226-.451l6.088-3.542c.082.154.154.308.226.462zM15.255 12.715l-6.068 3.521a4.64 4.64 0 0 0-.185-.482l6.068-3.532.185.493zM15.717 14.522l-5.996 3.49c-.041-.174-.082-.349-.134-.534l6.017-3.49c.04.174.082.349.113.534zM15.922 16.483l-5.883 3.429c-.01-.185-.041-.38-.062-.565l5.924-3.45c.01.195.021.39.021.586zM15.868 18.005a3.01 3.01 0 0 1-.06.404l-5.698 3.353c.01-.141.01-.283.01-.424z" opacity="1" data-original="#dedffb"></path><path fill="#c9cee2" d="m40.27 22.819-3.44 2.02-8.62-4.99.78-13.36 1.54-.56.39-.54 8.6 4.97z" opacity="1" data-original="#c9cee2" class=""></path><path fill="#e3e7f0" d="M39.518 10.356 30.922 5.39l-.389.536-1.538.567 8.58 5.005.933-.932z" opacity="1" data-original="#e3e7f0" class=""></path><path fill="#9ea9c9" d="M30.617 6.036v1.25l-1.314-.766z" opacity="1" data-original="#9ea9c9"></path><path fill="#b0b8cf" d="m30.96 5.564 8.192 4.733-.71.147-.889.889-6.936-4.046V6.036z" opacity="1" data-original="#b0b8cf" class=""></path><path fill="#b0b8cf" d="m36.828 24.822 1.731-2.365-.053-11.892-.931.932z" opacity="1" data-original="#b0b8cf" class=""></path><path fill="#c9cee2" d="m38.508 10.566 1.01-.21.749 12.463-3.436 2.016 1.73-2.38zM28.995 6.493l8.58 5.005-.744 13.337-8.62-4.982z" opacity="1" data-original="#c9cee2" class=""></path><path fill="#e3e7f0" d="m40.267 22.82-1.707-.366-1.729 2.381zM33.803 10.882c0 .304.211.674.475.826.166.093.31.08.397-.02.053-.052.086-.138.086-.257 0-.297-.212-.667-.476-.82a.409.409 0 0 0-.205-.065c-.165 0-.277.125-.277.336zM31.028 9.277c0 .304.212.674.476.826.172.099.317.08.403-.02a.405.405 0 0 0 .072-.25c0-.305-.211-.675-.469-.827a.39.39 0 0 0-.204-.066c-.166-.006-.278.12-.278.337z" opacity="1" data-original="#e3e7f0" class=""></path><path fill="#b0b8cf" d="M34.008 10.797c0 .303.21.673.475.825a.51.51 0 0 0 .192.066c.053-.052.086-.138.086-.257 0-.297-.212-.667-.476-.82a.409.409 0 0 0-.205-.065.405.405 0 0 0-.072.25zM31.226 9.191c0 .304.212.674.483.826a.354.354 0 0 0 .198.066.405.405 0 0 0 .072-.25c0-.305-.211-.675-.469-.827a.39.39 0 0 0-.204-.066.379.379 0 0 0-.08.251z" opacity="1" data-original="#b0b8cf" class=""></path><path fill="#e3e7f0" d="M36.008 9.61c0 .303.212.673.476.825.165.092.31.08.396-.02.053-.053.086-.139.086-.258 0-.297-.211-.667-.476-.819a.409.409 0 0 0-.204-.066c-.166 0-.278.126-.278.337zM33.234 8.004c0 .304.21.674.475.826.172.099.317.079.403-.02a.405.405 0 0 0 .073-.251c0-.304-.212-.674-.47-.826a.39.39 0 0 0-.204-.066c-.165-.007-.277.119-.277.337z" opacity="1" data-original="#e3e7f0" class=""></path><path fill="#ffffff" d="M36.213 9.523c0 .304.211.674.476.826a.51.51 0 0 0 .191.066c.053-.053.086-.139.086-.258 0-.297-.211-.667-.476-.819a.409.409 0 0 0-.204-.066.405.405 0 0 0-.073.251zM33.432 7.918c0 .304.211.674.482.826a.354.354 0 0 0 .198.066.405.405 0 0 0 .073-.251c0-.304-.212-.674-.47-.826a.39.39 0 0 0-.204-.066.379.379 0 0 0-.08.251z" opacity="1" data-original="#ffffff"></path><path fill="#4c5c75" d="M31.028 11.721c0 .945.66 2.081 1.48 2.537.231.132.456.192.667.192.165 0 .317-.04.456-.12.31-.177.482-.54.482-1.016l.007-1.533a.45.45 0 0 1 .152-.344.322.322 0 0 1 .092-.072l.344-.198a.907.907 0 0 0-.152-.298l-.357.205a.434.434 0 0 0-.112.08.816.816 0 0 0-.297.627l-.007 1.533c0 .35-.112.614-.324.733-.205.119-.482.092-.793-.08-.706-.396-1.308-1.426-1.308-2.246l.007-1.532c0-.132.053-.251.139-.344.033-.026.06-.053.099-.079l.33-.192a.924.924 0 0 0-.145-.29l-.35.198a.812.812 0 0 0-.403.707z" opacity="1" data-original="#4c5c75" class=""></path><path fill="#f9a83d" d="M47.56 25.139v1.21c0 .13-.02.54-.04.66-.333 1.332-2.228 2.013-3.68 2.14-1.85.129-4.563-.437-4.99-2.14a1.32 1.32 0 0 1-.06-.39l.01-1.47c0-.05 0-.09.01-.13a1.26 1.26 0 0 1-.04-.28v-1.47c0-.06.01-.11.02-.16 0-.08 0-.16.02-.24.393-1.531 2.767-2.17 4.37-2.17 1.494 0 3.543.555 4.2 1.87.04.1.08.2.11.3.03.13.05.26.04.39l.01 1.21c0 .07-.01.21-.02.35.03.11.04.21.04.32z" opacity="1" data-original="#f9a83d"></path><path fill="#ffd06c" d="m47.56 25.132.003 1.221c0 .121-.018.535-.047.656-.334 1.366-2.276 2.02-3.68 2.137-.424.036-.859.038-1.286 0-1.41-.122-3.35-.776-3.704-2.14a1.502 1.502 0 0 1-.051-.384l.002-1.494c0 .12.018.244.05.364.104.405.377.797.82 1.14.79.61 1.892.915 2.883.998 1.812.161 4.556-.46 4.966-2.138.03-.118.045-.24.045-.36z" opacity="1" data-original="#ffd06c" class=""></path><path fill="#f9a83d" d="M47.512 24.747c.064.248.066.498.004.746-.406 1.66-3.094 2.3-4.965 2.137-.987-.084-2.106-.39-2.883-1-.443-.341-.716-.734-.822-1.139a1.5 1.5 0 0 1-.006-.745c.33-1.333 2.218-2.014 3.681-2.139a7.692 7.692 0 0 1 1.286.001c1.465.126 3.36.805 3.705 2.14z" opacity="1" data-original="#f9a83d"></path><path fill="#f9a83d" d="M47.515 25.494c-.358 1.515-2.726 2.167-4.311 2.167-.217 0-.435-.008-.652-.03-.958-.084-2.15-.395-2.883-1-.442-.34-.717-.738-.826-1.137a1.447 1.447 0 0 1 0-.746c.233-1.004 1.504-1.696 2.506-1.934a6.216 6.216 0 0 1 1.174-.21c.225-.015.456-.022.681-.022.196 0 .406.007.601.03.037 0 .066.006.102.014a5.56 5.56 0 0 1 1.1.195c1.006.245 2.237.919 2.508 1.927.065.247.065.5 0 .746z" opacity="1" data-original="#f9a83d"></path><path fill="#ffd475" d="M43.204 27.298c-.205 0-.41-.006-.616-.027-1.289-.112-3.073-.685-3.396-1.872a1.073 1.073 0 0 1 .001-.558c.2-.862 1.375-1.47 2.24-1.674a5.868 5.868 0 0 1 1.122-.202c.208-.014.432-.02.65-.02.182 0 .378.006.56.026l.114.016c.355.027.7.089 1.03.183.87.213 2.022.8 2.256 1.672.049.185.049.374 0 .56-.314 1.33-2.564 1.896-3.96 1.896z" opacity="1" data-original="#ffd475" class=""></path><path fill="#f9a83d" d="M45.096 25.16a.573.573 0 0 0-.273-.293 1.258 1.258 0 0 0-.566-.18 2.301 2.301 0 0 0-.567.047c-.16.04-.34.093-.546.167l-.786-.454a2.83 2.83 0 0 1 .573-.22l.093-.033c.067-.04.093-.086.087-.133-.007-.047-.034-.087-.087-.12a.489.489 0 0 0-.353-.033c-.247.066-.5.16-.74.286l-.206-.12a.378.378 0 0 0-.18-.04c-.204 0-.342.138-.167.247l.207.12c-.147.106-.247.213-.293.326-.06.12-.06.24-.02.347a.696.696 0 0 0 .286.286c.167.094.34.147.54.16.18.014.373 0 .553-.046.153-.027.34-.08.533-.147l.76.44c-.214.1-.447.186-.7.24a.444.444 0 0 0-.113.046c-.06.034-.1.08-.094.127 0 .047.034.087.094.12a.41.41 0 0 0 .166.053l.18-.013c.32-.073.627-.18.906-.313l.207.12c.053.026.12.046.18.046.276-.027.299-.175.173-.246l-.213-.127c.235-.15.446-.39.366-.66zm-3.098-.08c-.094-.06-.14-.12-.12-.2.013-.073.067-.146.153-.22l.68.394a2.433 2.433 0 0 1-.4.086.53.53 0 0 1-.313-.06zm2.285.487-.66-.387c.167-.053.32-.093.434-.106.12-.02.206-.007.28.04.14.08.28.213-.054.453z" opacity="1" data-original="#f9a83d"></path><path fill="#ffd06c" d="m47.535 23.252.003 1.221c0 .121-.018.535-.047.656-.404 1.65-3.1 2.303-4.966 2.137-.998-.086-2.117-.395-2.883-1-.443-.34-.716-.734-.821-1.14a1.502 1.502 0 0 1-.052-.384l.003-1.495c0 .121.017.244.049.365.352 1.358 2.277 2.019 3.704 2.138a7.29 7.29 0 0 0 1.289 0c1.45-.122 3.35-.805 3.677-2.138.029-.118.044-.24.044-.36z" opacity="1" data-original="#ffd06c" class=""></path><path fill="#f9a83d" d="M47.487 22.867c.064.247.065.498.004.746-.321 1.311-2.166 2.01-3.678 2.137a7.542 7.542 0 0 1-1.288 0c-1.412-.12-3.346-.77-3.705-2.139a1.5 1.5 0 0 1-.005-.745c.33-1.333 2.218-2.014 3.68-2.139a7.692 7.692 0 0 1 1.287 0c1.405.122 3.35.77 3.705 2.14z" opacity="1" data-original="#f9a83d"></path><path fill="#f9a83d" d="M47.49 23.614c-.308 1.3-2.146 1.99-3.609 2.13-.021 0-.043.008-.065.008-.21.014-.42.028-.637.028-.218 0-.435-.007-.652-.028a6.515 6.515 0 0 1-1.203-.21c-1.006-.245-2.232-.921-2.507-1.928a1.447 1.447 0 0 1 0-.746c.234-1.005 1.504-1.697 2.507-1.934a6.216 6.216 0 0 1 1.174-.21c.224-.015.456-.022.68-.022.196 0 .406.007.602.03.036 0 .065.006.101.014.377.029.747.094 1.102.195 1.01.246 2.236.918 2.506 1.927.065.246.065.5 0 .746z" opacity="1" data-original="#f9a83d"></path><path fill="#ffd475" d="M43.179 25.418c-.206 0-.411-.006-.617-.027a6.11 6.11 0 0 1-1.14-.198c-.853-.208-2.015-.793-2.255-1.674a1.073 1.073 0 0 1 0-.558c.201-.865 1.376-1.47 2.24-1.674a5.868 5.868 0 0 1 1.123-.202c.208-.014.432-.02.649-.02.182 0 .379.006.562.026l.112.016c.355.027.701.088 1.03.183.875.214 2.024.805 2.256 1.672.05.185.05.374 0 .56-.206.871-1.363 1.445-2.248 1.676a6.481 6.481 0 0 1-1.044.186c-.258.02-.46.034-.668.034z" opacity="1" data-original="#ffd475" class=""></path><path fill="#f9a83d" d="M45.018 23.633a.426.426 0 0 0 .053-.353.573.573 0 0 0-.273-.293 1.258 1.258 0 0 0-.567-.18 2.301 2.301 0 0 0-.566.047c-.16.04-.34.093-.546.166l-.787-.453a2.83 2.83 0 0 1 .573-.22l.094-.033c.066-.04.093-.087.086-.133-.006-.047-.033-.087-.086-.12a.489.489 0 0 0-.353-.033c-.247.066-.5.16-.74.286l-.207-.12a.378.378 0 0 0-.18-.04.35.35 0 0 0-.173.04c-.047.027-.073.067-.073.1 0 .04.026.073.08.107l.206.12c-.146.106-.246.213-.293.326-.06.12-.06.24-.02.347a.696.696 0 0 0 .287.286c.166.094.34.147.54.16.18.014.373 0 .552-.046.154-.027.34-.08.534-.147l.76.44c-.214.1-.447.186-.7.24a.444.444 0 0 0-.114.046c-.06.034-.1.08-.093.127 0 .047.033.087.093.12a.41.41 0 0 0 .167.053l.18-.013c.32-.073.626-.18.906-.313l.207.12c.053.026.12.046.18.046a.44.44 0 0 0 .173-.046c.046-.027.073-.067.073-.1 0-.04-.027-.074-.073-.1l-.213-.127a.92.92 0 0 0 .313-.307zm-3.046-.433c-.093-.06-.14-.12-.12-.2.014-.073.067-.146.154-.22l.68.394a2.433 2.433 0 0 1-.4.086.53.53 0 0 1-.314-.06zm2.286.487-.66-.387c.167-.053.32-.093.434-.106.12-.02.206-.007.28.04.14.08.28.213-.054.453z" opacity="1" data-original="#f9a83d"></path><g opacity=".3"><path fill="#ffffff" d="M43.179 20.702v5.078c-.218 0-.435-.007-.652-.028a6.515 6.515 0 0 1-1.203-.21v-4.608a6.216 6.216 0 0 1 1.174-.21c.224-.015.456-.022.68-.022zM44.983 20.941v4.608c-.355.094-.725.16-1.102.195v-4.998c.377.029.747.094 1.102.195z" opacity="1" data-original="#ffffff"></path></g></g></svg>